<svg width="1173" height="498" viewBox="0 0 1173 498" fill="none" xmlns="http://www.w3.org/2000/svg">
<g clip-path="url(#clip0_1_678)">
<path d="M102.437 584.292C148.956 578.582 194.715 560.257 241.122 528.905C295.217 492.36 344.635 442.143 392.426 393.581C439.224 346.026 487.597 296.871 538.744 262.583C565.312 244.772 590.594 232.195 616.036 224.136C644.018 215.272 671.691 212.01 700.638 214.164C747.054 217.618 788.394 231.1 827.016 255.38C862.354 277.593 892.672 306.84 921.992 335.125C950.493 362.619 979.952 391.04 1014.19 413.307C1034.91 426.776 1055.59 436.867 1077.44 444.157C1077.99 444.341 1078.59 444.299 1079.11 444.039C1079.63 443.779 1080.03 443.322 1080.21 442.77C1080.4 442.218 1080.36 441.615 1080.1 441.094C1079.84 440.574 1079.38 440.177 1078.83 439.993C1057.34 432.823 1036.98 422.891 1016.59 409.627C982.697 387.59 953.391 359.317 925.049 331.976C895.559 303.526 865.074 274.119 829.352 251.663C790.108 226.993 748.112 213.295 700.964 209.786C671.449 207.59 643.236 210.916 614.71 219.952C588.866 228.139 563.219 240.891 536.3 258.937C484.782 293.474 436.25 342.791 389.314 390.485C341.658 438.911 292.397 488.968 238.664 525.268C176.034 567.583 114.659 585.852 51.0307 581.117C-8.77928 576.666 -60.0983 560.231 -105.859 530.873C-130.225 515.242 -150.201 497.554 -166.53 482.315C-171.859 477.34 -175.071 473.711 -178.178 470.202C-179.965 468.184 -181.812 466.097 -184.029 463.791C-226.901 419.188 -258.666 389.772 -278.443 376.359C-295.35 364.892 -312.462 356.679 -330.756 351.253C-331.314 351.088 -331.915 351.151 -332.427 351.428C-332.939 351.706 -333.319 352.175 -333.484 352.733C-333.65 353.291 -333.587 353.892 -333.309 354.404C-333.031 354.915 -332.562 355.296 -332.004 355.461C-314.15 360.757 -297.435 368.781 -280.906 379.991C-261.383 393.234 -229.853 422.45 -187.194 466.832C-185.039 469.074 -183.302 471.035 -181.464 473.111C-178.289 476.699 -175.006 480.407 -169.524 485.523C-153.053 500.897 -132.889 518.746 -108.23 534.567C-61.8394 564.329 -9.85094 580.987 50.7042 585.493C68.0946 586.787 85.3196 586.393 102.437 584.292Z" fill="url(#paint0_linear_1_678)"/>
<path d="M1078.4 444.254C1078.89 444.194 1079.35 443.967 1079.7 443.611C1080.05 443.255 1080.27 442.791 1080.32 442.295C1080.37 441.799 1080.25 441.301 1079.98 440.882C1079.71 440.464 1079.3 440.15 1078.83 439.993C1057.34 432.823 1036.98 422.891 1016.59 409.627C982.697 387.59 953.391 359.317 925.049 331.975C895.559 303.526 865.074 274.118 829.352 251.663C790.108 226.993 748.112 213.294 700.964 209.785C671.449 207.59 643.236 210.915 614.71 219.951C588.866 228.138 563.218 240.891 536.3 258.936C484.782 293.473 436.25 342.79 389.314 390.484C379.985 399.966 370.35 409.756 360.66 419.457C360.266 419.872 360.049 420.425 360.056 420.998C360.063 421.571 360.294 422.119 360.699 422.524C361.105 422.928 361.653 423.159 362.226 423.165C362.799 423.172 363.352 422.954 363.766 422.559C373.467 412.846 383.108 403.05 392.43 393.577C439.224 346.026 487.597 296.87 538.744 262.582C565.312 244.772 590.594 232.195 616.036 224.135C644.017 215.272 671.691 212.01 700.638 214.163C747.055 217.618 788.394 231.099 827.016 255.379C862.354 277.593 892.672 306.84 921.992 335.125C950.493 362.619 979.952 391.04 1014.19 413.307C1034.91 426.776 1055.59 436.867 1077.44 444.157C1077.75 444.26 1078.08 444.294 1078.4 444.254Z" fill="url(#paint1_linear_1_678)"/>
<path d="M1142.28 443.627C1142.82 443.558 1143.31 443.292 1143.67 442.879C1144.02 442.467 1144.21 441.938 1144.2 441.395C1144.18 440.851 1143.97 440.332 1143.59 439.938C1143.22 439.543 1142.71 439.302 1142.17 439.259C1099.73 436.101 1060.99 422.797 1023.77 398.589C990.935 377.24 962.089 349.411 934.192 322.499C904.226 293.591 873.239 263.699 836.36 240.515C795.251 214.673 751.283 200.326 701.941 196.655C670.723 194.332 640.889 197.845 610.733 207.398C583.682 215.969 556.936 229.249 528.967 248C476.334 283.284 427.318 333.093 379.916 381.261C332.724 429.215 283.935 478.792 231.292 514.358C171.211 554.949 112.566 572.492 52.0073 567.984C-5.5636 563.701 -54.8761 547.936 -98.7484 519.79C-119.221 506.655 -138.668 491.041 -158.196 472.056L-158.345 471.911C-165.477 464.978 -171.11 459.502 -178.505 451.859C-184.013 446.17 -189.505 440.466 -194.98 434.746C-219.765 408.837 -243.171 384.371 -271.051 365.461C-301.944 344.509 -333.936 333.44 -371.73 330.628C-372.311 330.585 -372.885 330.774 -373.326 331.154C-373.767 331.533 -374.039 332.073 -374.082 332.653C-374.125 333.234 -373.936 333.808 -373.556 334.249C-373.176 334.69 -372.637 334.962 -372.056 335.005C-335.059 337.758 -303.747 348.59 -273.514 369.095C-246.019 387.742 -222.771 412.044 -198.158 437.774C-192.675 443.502 -187.176 449.214 -181.66 454.911C-174.218 462.602 -168.563 468.099 -161.405 475.059L-161.256 475.203C-141.514 494.395 -121.842 510.19 -101.118 523.484C-56.6164 552.035 -6.63516 568.023 51.6818 572.361C113.263 576.945 172.818 559.161 233.75 517.995C286.756 482.184 335.702 432.448 383.036 384.35C430.292 336.328 479.149 286.682 531.411 251.645C559.03 233.13 585.41 220.026 612.059 211.583C641.671 202.202 670.965 198.752 701.616 201.032C750.225 204.649 793.537 218.779 834.024 244.231C870.519 267.172 901.34 296.905 931.145 325.658C959.19 352.714 988.191 380.691 1021.37 402.268C1059.24 426.89 1098.64 440.421 1141.85 443.636C1141.99 443.648 1142.14 443.644 1142.28 443.627Z" fill="url(#paint2_linear_1_678)"/>
<path d="M1099.55 463.831C1100.06 463.767 1100.53 463.524 1100.88 463.146C1101.24 462.768 1101.44 462.278 1101.47 461.762C1101.49 461.247 1101.34 460.738 1101.03 460.327C1100.71 459.915 1100.27 459.626 1099.76 459.511C1068.12 452.334 1038.57 439.628 1009.41 420.668C974.466 397.944 944.696 369.226 915.908 341.454C886.905 313.474 856.916 284.544 822.345 262.812C818.123 260.157 813.831 257.617 809.474 255.193C808.965 254.916 808.368 254.851 807.812 255.012C807.256 255.173 806.786 255.548 806.505 256.054C806.224 256.559 806.154 257.156 806.311 257.713C806.467 258.271 806.838 258.743 807.341 259.029C811.63 261.415 815.854 263.915 820.009 266.528C854.195 288.018 884.017 316.789 912.86 344.611C941.798 372.529 971.721 401.394 1007.02 424.346C1036.62 443.594 1066.64 456.497 1098.79 463.791C1099.05 463.849 1099.3 463.86 1099.55 463.83L1099.55 463.831Z" fill="url(#paint3_linear_1_678)"/>
<path d="M1142.28 443.627C1142.82 443.558 1143.31 443.291 1143.67 442.879C1144.02 442.467 1144.21 441.938 1144.2 441.394C1144.18 440.851 1143.97 440.332 1143.59 439.938C1143.22 439.543 1142.71 439.301 1142.17 439.259C1099.73 436.1 1060.99 422.797 1023.77 398.588C990.935 377.24 962.089 349.411 934.192 322.498C904.226 293.591 873.239 263.698 836.36 240.515C795.251 214.672 751.283 200.326 701.941 196.655C670.723 194.332 640.889 197.846 610.733 207.398C583.682 215.969 556.936 229.249 528.967 248C528.726 248.159 528.519 248.365 528.358 248.605C528.196 248.845 528.084 249.115 528.027 249.399C527.97 249.682 527.97 249.974 528.027 250.258C528.083 250.542 528.195 250.812 528.356 251.052C528.517 251.292 528.725 251.498 528.966 251.658C529.207 251.818 529.477 251.929 529.761 251.984C530.045 252.039 530.337 252.037 530.621 251.979C530.904 251.921 531.173 251.807 531.412 251.645C559.03 233.13 585.41 220.025 612.059 211.582C641.67 202.201 670.965 198.751 701.616 201.031C750.225 204.648 793.537 218.779 834.024 244.231C870.519 267.172 901.34 296.904 931.145 325.658C959.19 352.714 988.191 380.69 1021.37 402.268C1059.24 426.89 1098.64 440.421 1141.85 443.636C1141.99 443.648 1142.14 443.644 1142.28 443.627Z" fill="url(#paint4_linear_1_678)"/>
<path d="M1109.76 425.645C1110.27 425.581 1110.75 425.338 1111.1 424.958C1111.45 424.578 1111.66 424.086 1111.68 423.57C1111.71 423.053 1111.55 422.544 1111.23 422.133C1110.92 421.722 1110.47 421.435 1109.96 421.323C1039.61 405.899 992.846 360.784 943.334 313.021C881.701 253.565 817.969 192.084 702.917 183.522C669.996 181.071 638.541 184.776 606.756 194.845C578.499 203.796 550.656 217.606 521.635 237.06C467.891 273.091 418.396 323.385 370.531 372.025C366.841 375.772 363.155 379.519 359.467 383.259C359.265 383.464 359.105 383.707 358.996 383.974C358.888 384.241 358.833 384.527 358.835 384.815C358.837 385.103 358.895 385.388 359.007 385.654C359.12 385.919 359.283 386.16 359.488 386.363C359.693 386.565 359.936 386.725 360.203 386.834C360.47 386.942 360.756 386.997 361.044 386.995C361.332 386.993 361.617 386.934 361.883 386.822C362.148 386.71 362.389 386.547 362.591 386.342C366.283 382.597 369.972 378.851 373.66 375.103C421.371 326.621 470.706 276.488 524.079 240.706C552.749 221.486 580.227 207.854 608.082 199.03C639.323 189.133 670.238 185.492 702.592 187.899C816.062 196.343 879.214 257.264 940.286 316.18C990.259 364.387 1037.46 409.92 1109.02 425.609C1109.27 425.665 1109.52 425.675 1109.76 425.645Z" fill="url(#paint5_linear_1_678)"/>
<path d="M1048.4 489.467C1048.88 489.408 1049.34 489.188 1049.68 488.842C1050.03 488.497 1050.25 488.045 1050.31 487.559C1050.37 487.073 1050.27 486.581 1050.02 486.161C1049.76 485.741 1049.38 485.417 1048.92 485.241C1028.23 477.254 1007.69 466.671 987.874 453.785C949.756 428.997 918.605 398.946 888.482 369.884C860.922 343.3 832.425 315.81 801.32 296.256C769.529 276.271 735.424 265.168 697.055 262.312C674.36 260.623 652.627 263.191 630.615 270.164C609.602 276.82 588.344 287.459 565.629 302.687C518.573 334.232 471.959 381.599 426.879 427.406C381.472 473.546 334.522 521.255 282.136 559.132C281.665 559.473 281.348 559.987 281.256 560.562C281.164 561.136 281.303 561.724 281.644 562.195C281.813 562.429 282.026 562.627 282.271 562.778C282.517 562.93 282.789 563.031 283.074 563.077C283.359 563.122 283.649 563.112 283.93 563.045C284.21 562.978 284.475 562.857 284.708 562.688C337.393 524.597 384.474 476.754 430.006 430.486C474.932 384.834 521.389 337.629 568.073 306.333C590.438 291.34 611.329 280.878 631.941 274.348C653.409 267.548 674.603 265.044 696.73 266.69C734.366 269.49 767.815 280.376 798.984 299.972C829.704 319.284 858.036 346.613 885.434 373.043C915.707 402.248 947.01 432.448 985.481 457.465C1005.55 470.517 1026.37 481.24 1047.34 489.336C1047.68 489.466 1048.04 489.511 1048.4 489.467L1048.4 489.467Z" fill="url(#paint6_linear_1_678)"/>
<path d="M1078.4 444.254C1078.89 444.194 1079.35 443.967 1079.7 443.611C1080.05 443.255 1080.27 442.791 1080.32 442.295C1080.37 441.799 1080.25 441.301 1079.98 440.883C1079.71 440.464 1079.3 440.15 1078.83 439.993C1057.34 432.823 1036.98 422.891 1016.59 409.627C999.335 398.409 981.967 384.781 961.931 366.741C961.496 366.364 960.931 366.174 960.357 366.209C959.784 366.245 959.247 366.505 958.862 366.932C958.478 367.359 958.276 367.92 958.301 368.495C958.325 369.069 958.574 369.611 958.994 370.004C979.204 388.201 996.745 401.96 1014.19 413.307C1034.91 426.776 1055.59 436.867 1077.44 444.157C1077.75 444.26 1078.08 444.294 1078.4 444.254Z" fill="url(#paint7_linear_1_678)"/>
<path d="M110.957 649.665C167.588 642.712 222.702 620.809 277.978 583.463C305.061 565.166 341.45 537.787 405.995 473.441C406.407 473.031 406.639 472.473 406.64 471.891C406.641 471.309 406.411 470.75 406 470.338C405.589 469.925 405.032 469.693 404.449 469.692C403.867 469.691 403.309 469.921 402.896 470.332C338.611 534.418 302.432 561.646 275.52 579.826C200.144 630.752 125.114 652.65 46.1438 646.774C-22.6454 641.656 -84.0049 621.865 -141.441 586.27C-141.935 585.963 -142.532 585.866 -143.099 585.999C-143.665 586.132 -144.156 586.485 -144.463 586.98C-144.769 587.474 -144.867 588.071 -144.734 588.637C-144.6 589.204 -144.248 589.695 -143.753 590.001C-85.7015 625.977 -23.6925 645.979 45.8182 651.152C67.8037 652.787 89.494 652.301 110.957 649.665Z" fill="url(#paint8_linear_1_678)"/>
<path d="M109.252 636.59C163.86 629.886 217.107 608.697 270.606 572.551C329.064 533.059 380.38 480.914 430.005 430.488C474.932 384.834 521.388 337.63 568.073 306.333C590.438 291.34 611.329 280.877 631.941 274.348C653.409 267.548 674.603 265.043 696.73 266.69C734.366 269.49 767.815 280.376 798.984 299.972C829.704 319.284 858.036 346.613 885.434 373.043C915.707 402.248 947.01 432.448 985.481 457.465C1005.55 470.517 1026.37 481.24 1047.34 489.336C1047.89 489.545 1048.49 489.531 1049.02 489.295C1049.55 489.059 1049.97 488.621 1050.18 488.078C1050.39 487.535 1050.37 486.931 1050.14 486.399C1049.9 485.867 1049.47 485.45 1048.92 485.24C1028.23 477.254 1007.69 466.671 987.874 453.785C949.756 428.997 918.605 398.946 888.482 369.884C860.922 343.3 832.425 315.81 801.32 296.256C769.529 276.27 735.424 265.168 697.055 262.312C674.36 260.623 652.627 263.191 630.615 270.164C609.602 276.82 588.344 287.459 565.629 302.687C518.573 334.232 471.959 381.599 426.879 427.406C377.402 477.682 326.244 529.668 268.149 568.914C195.322 618.118 123.021 639.29 47.1213 633.642C-21.2423 628.556 -70.4078 613.239 -128.235 579.014C-133.869 575.679 -138.185 572.986 -143.579 569.085C-144.051 568.757 -144.633 568.627 -145.2 568.723C-145.767 568.82 -146.273 569.135 -146.61 569.601C-146.947 570.066 -147.088 570.646 -147.002 571.215C-146.916 571.783 -146.611 572.295 -146.151 572.641C-140.621 576.641 -136.214 579.391 -130.47 582.791C-72.0068 617.394 -22.3057 632.878 46.795 638.02C67.8627 639.587 88.6568 639.119 109.252 636.59Z" fill="url(#paint9_linear_1_678)"/>
<path d="M144.163 630.266C144.245 630.255 144.327 630.242 144.41 630.221C187.015 620.003 228.294 601.138 270.606 572.551C329.065 533.059 380.38 480.914 430.005 430.488C474.933 384.834 521.388 337.63 568.073 306.333C590.438 291.34 611.329 280.877 631.941 274.348C653.409 267.549 674.602 265.044 696.73 266.69C734.366 269.49 767.814 280.377 798.984 299.972C829.704 319.284 858.036 346.613 885.434 373.043C915.707 402.248 947.01 432.448 985.481 457.465C1005.55 470.517 1026.37 481.24 1047.34 489.336C1047.61 489.44 1047.9 489.489 1048.19 489.482C1048.47 489.475 1048.76 489.412 1049.02 489.295C1049.28 489.178 1049.52 489.011 1049.72 488.802C1049.92 488.593 1050.08 488.347 1050.18 488.079C1050.28 487.81 1050.33 487.523 1050.33 487.235C1050.32 486.947 1050.26 486.663 1050.14 486.399C1050.02 486.136 1049.85 485.898 1049.65 485.699C1049.44 485.5 1049.19 485.344 1048.92 485.241C1028.23 477.254 1007.69 466.671 987.874 453.785C949.756 428.997 918.605 398.946 888.482 369.884C860.922 343.3 832.425 315.81 801.32 296.256C769.529 276.27 735.424 265.168 697.055 262.313C674.359 260.623 652.627 263.192 630.616 270.164C609.602 276.82 588.344 287.459 565.629 302.687C518.573 334.233 471.959 381.6 426.879 427.406C377.402 477.682 326.244 529.668 268.149 568.914C226.281 597.201 185.471 615.859 143.387 625.954C142.84 626.082 142.364 626.416 142.056 626.886C141.748 627.355 141.632 627.925 141.732 628.477C141.831 629.03 142.139 629.523 142.591 629.856C143.043 630.189 143.606 630.335 144.163 630.266Z" fill="url(#paint10_linear_1_678)"/>
<path d="M102.437 584.292C148.956 578.582 194.715 560.257 241.122 528.905C295.217 492.36 344.635 442.143 392.426 393.581C439.224 346.026 487.597 296.871 538.744 262.582C565.312 244.772 590.594 232.196 616.036 224.136C644.018 215.273 671.691 212.01 700.638 214.164C747.055 217.618 788.394 231.1 827.016 255.38C862.354 277.593 892.672 306.84 921.992 335.125C950.493 362.619 979.952 391.04 1014.19 413.307C1034.91 426.776 1055.59 436.867 1077.44 444.157C1077.99 444.341 1078.59 444.299 1079.11 444.039C1079.63 443.779 1080.03 443.322 1080.21 442.77C1080.4 442.218 1080.36 441.615 1080.1 441.094C1079.84 440.574 1079.38 440.177 1078.83 439.993C1057.34 432.823 1036.98 422.891 1016.59 409.627C982.697 387.59 953.391 359.317 925.049 331.975C895.558 303.526 865.074 274.119 829.352 251.663C790.108 226.993 748.112 213.295 700.964 209.786C671.449 207.59 643.236 210.916 614.71 219.952C588.866 228.139 563.219 240.891 536.3 258.936C484.782 293.474 436.25 342.791 389.314 390.484C341.658 438.911 292.397 488.968 238.664 525.268C176.034 567.583 114.659 585.852 51.0307 581.117C-8.77928 576.666 -60.0983 560.231 -105.859 530.873C-122.496 520.199 -138.834 507.472 -157.276 490.818C-157.71 490.44 -158.275 490.249 -158.849 490.283C-159.423 490.318 -159.96 490.576 -160.346 491.003C-160.731 491.43 -160.934 491.991 -160.91 492.565C-160.886 493.14 -160.638 493.682 -160.218 494.076C-141.593 510.895 -125.074 523.76 -108.23 534.567C-61.8394 564.329 -9.85094 580.987 50.7042 585.493C68.0946 586.787 85.3196 586.393 102.437 584.292Z" fill="url(#paint11_linear_1_678)"/>
<path d="M1142.28 443.627C1142.82 443.558 1143.31 443.292 1143.67 442.879C1144.02 442.467 1144.21 441.938 1144.2 441.395C1144.18 440.851 1143.97 440.332 1143.59 439.938C1143.22 439.543 1142.71 439.302 1142.17 439.259C1099.73 436.101 1060.99 422.797 1023.77 398.589C990.935 377.24 962.089 349.411 934.192 322.499C904.226 293.591 873.239 263.699 836.36 240.515C795.251 214.673 751.283 200.326 701.941 196.655C670.723 194.331 640.889 197.846 610.733 207.398C583.682 215.969 556.936 229.249 528.967 247.999C476.334 283.285 427.318 333.093 379.916 381.262C332.724 429.215 283.935 478.792 231.292 514.358C171.211 554.949 112.566 572.492 52.0073 567.984C33.3317 566.594 15.2654 563.949 -1.69033 560.12C-2.25185 560.008 -2.83483 560.12 -3.31492 560.432C-3.79514 560.744 -4.13443 561.231 -4.26042 561.79C-4.38654 562.348 -4.28954 562.934 -3.99005 563.422C-3.69045 563.91 -3.21215 564.261 -2.65709 564.401C14.5086 568.278 32.791 570.955 51.6816 572.361C113.263 576.945 172.818 559.161 233.75 517.995C286.756 482.184 335.702 432.448 383.036 384.35C430.292 336.328 479.149 286.682 531.411 251.645C559.03 233.13 585.41 220.026 612.059 211.583C641.67 202.202 670.964 198.752 701.616 201.032C750.225 204.649 793.536 218.779 834.024 244.231C870.518 267.172 901.34 296.905 931.145 325.658C959.19 352.714 988.191 380.691 1021.37 402.268C1059.24 426.89 1098.64 440.421 1141.85 443.636C1141.99 443.648 1142.14 443.644 1142.28 443.627Z" fill="url(#paint12_linear_1_678)"/>
<path d="M938.491 139.388C938.929 139.334 939.341 139.149 939.673 138.857C940.004 138.566 940.24 138.181 940.35 137.753C940.459 137.326 940.437 136.875 940.287 136.46C940.136 136.045 939.864 135.685 939.505 135.427C931.003 129.312 922.313 123.462 913.449 117.884C887.009 101.262 859.345 87.6157 831.226 77.3228C830.955 77.2201 830.666 77.1722 830.376 77.1819C830.086 77.1916 829.8 77.2587 829.536 77.3794C829.273 77.5 829.035 77.6718 828.838 77.8848C828.641 78.0978 828.488 78.3478 828.388 78.6203C828.289 78.8928 828.244 79.1823 828.257 79.4722C828.269 79.7621 828.34 80.0466 828.463 80.3092C828.587 80.5718 828.761 80.8073 828.976 81.002C829.191 81.1968 829.443 81.347 829.716 81.4439C857.547 91.632 884.932 105.142 911.112 121.6C919.9 127.129 928.514 132.929 936.943 138.991C937.39 139.314 937.944 139.455 938.491 139.388Z" fill="url(#paint13_linear_1_678)"/>
<path d="M351.492 211.294C351.952 211.237 352.382 211.036 352.721 210.719C388.514 177.291 420.128 151.766 452.214 130.392C491.561 104.181 531.709 84.6558 571.54 72.3596C571.816 72.2746 572.072 72.1362 572.293 71.9522C572.515 71.7683 572.699 71.5425 572.833 71.2877C572.968 71.0328 573.051 70.754 573.078 70.467C573.105 70.1801 573.075 69.8907 572.99 69.6153C572.905 69.3397 572.767 69.0834 572.583 68.8613C572.399 68.6392 572.174 68.4555 571.919 68.3208C571.664 68.1861 571.385 68.1031 571.098 68.0765C570.81 68.0499 570.521 68.0802 570.246 68.1657C530.01 80.5868 489.479 100.293 449.78 126.739C417.491 148.249 385.697 173.916 349.724 207.512C349.385 207.828 349.155 208.244 349.067 208.699C348.979 209.154 349.037 209.626 349.233 210.046C349.43 210.466 349.754 210.813 350.16 211.037C350.565 211.261 351.032 211.351 351.492 211.294Z" fill="url(#paint14_linear_1_678)"/>
<path d="M82.6945 427.41C96.8746 425.669 111.399 421.02 126.637 413.379C127.152 413.115 127.541 412.658 127.721 412.108C127.901 411.558 127.856 410.96 127.597 410.442C127.338 409.925 126.885 409.531 126.336 409.346C125.788 409.161 125.189 409.2 124.669 409.454C102.831 420.407 82.5798 425.011 62.7565 423.536C29.8064 421.085 2.4911 412.627 -20.7527 397.683C-21.2422 397.375 -21.8334 397.273 -22.3977 397.399C-22.962 397.525 -23.4538 397.868 -23.7664 398.354C-24.079 398.841 -24.1871 399.431 -24.0671 399.996C-23.9472 400.562 -23.609 401.057 -23.1258 401.375C0.747069 416.725 28.7331 425.405 62.4301 427.914C69.1332 428.412 75.8738 428.248 82.6945 427.41Z" fill="url(#paint15_linear_1_678)"/>
<path d="M486.414 447.638C486.886 447.58 487.342 447.369 487.702 447.006C521.206 413.234 560.077 375.106 597.402 350.084C609.472 341.992 620.61 335.699 631.451 330.846C636.978 328.371 642.493 326.257 647.845 324.562C648.397 324.383 648.855 323.994 649.121 323.479C649.386 322.963 649.437 322.364 649.262 321.811C649.087 321.259 648.7 320.798 648.186 320.529C647.673 320.261 647.074 320.206 646.52 320.378C641.009 322.123 635.336 324.297 629.657 326.84C618.587 331.796 607.237 338.206 594.959 346.438C557.297 371.685 518.24 409.992 484.586 443.915C484.265 444.239 484.053 444.655 483.979 445.105C483.905 445.555 483.974 446.017 484.175 446.427C484.376 446.836 484.699 447.173 485.101 447.39C485.502 447.607 485.961 447.694 486.414 447.638Z" fill="url(#paint16_linear_1_678)"/>
<path d="M989.547 520.421C990.011 520.365 990.445 520.162 990.785 519.842C991.125 519.522 991.355 519.102 991.44 518.642C991.525 518.183 991.461 517.708 991.258 517.288C991.054 516.867 990.722 516.522 990.309 516.304C979.887 510.782 969.408 504.604 959.163 497.944C916.823 470.411 883.837 438.59 851.938 407.818C833.539 390.069 814.521 371.722 795.458 356.669C792.332 354.2 789.239 351.849 786.262 349.678C781.828 346.445 777.462 343.475 773.288 340.85C772.795 340.54 772.199 340.438 771.632 340.568C771.064 340.697 770.571 341.046 770.261 341.539C769.951 342.032 769.85 342.627 769.979 343.195C770.108 343.762 770.458 344.255 770.951 344.565C775.041 347.137 779.323 350.05 783.676 353.225C786.74 355.464 789.761 357.76 792.738 360.114C811.63 375.031 830.569 393.303 848.884 410.972C880.938 441.893 914.078 473.861 956.77 501.623C967.123 508.355 977.717 514.6 988.255 520.182C988.651 520.393 989.102 520.476 989.547 520.421Z" fill="url(#paint17_linear_1_678)"/>
<path d="M976.421 186.662C976.841 186.61 977.237 186.439 977.561 186.167C977.885 185.896 978.124 185.536 978.249 185.132C978.374 184.728 978.379 184.296 978.265 183.889C978.15 183.482 977.92 183.117 977.603 182.837C953.032 161.205 930.42 144.107 906.441 129.032C846.702 91.4779 783.006 70.6436 711.713 65.3388C695.568 64.1373 679.376 63.9497 663.586 64.7814C663.011 64.8191 662.473 65.0822 662.089 65.5137C661.706 65.9452 661.508 66.5103 661.538 67.0867C661.569 67.663 661.825 68.2043 662.251 68.5931C662.678 68.9819 663.241 69.1871 663.817 69.1641C679.422 68.3425 695.426 68.528 711.387 69.7154C781.949 74.9663 844.987 95.5843 904.104 132.748C927.88 147.695 950.312 164.658 974.702 186.131C974.935 186.336 975.208 186.49 975.505 186.581C975.801 186.673 976.113 186.7 976.421 186.662Z" fill="url(#paint18_linear_1_678)"/>
<path d="M84.4409 440.49C108.336 437.556 132.867 427.238 160.034 408.884C202.134 380.441 246.374 335.486 289.157 292.011C341.377 238.946 395.359 184.09 459.514 141.351C487.155 122.938 515.245 107.87 543.003 96.5657C543.276 96.4614 543.526 96.3037 543.737 96.1018C543.948 95.8998 544.117 95.6577 544.234 95.3897C544.35 95.1216 544.412 94.833 544.415 94.5408C544.418 94.2486 544.363 93.9586 544.253 93.688C544.143 93.4173 543.98 93.1714 543.773 92.9646C543.567 92.7578 543.321 92.5944 543.051 92.4839C542.78 92.3734 542.49 92.318 542.198 92.321C541.906 92.3241 541.617 92.3854 541.349 92.5015C513.318 103.916 484.966 119.122 457.08 137.698C392.549 180.689 338.405 235.708 286.044 288.917C243.397 332.253 199.313 377.049 157.576 405.248C122.51 428.938 92.0674 438.922 61.7787 436.668C26.5883 434.05 -2.73747 424.921 -27.8737 408.759C-53.1773 392.49 -76.9045 367.684 -99.8516 343.696C-129.591 312.607 -157.679 283.242 -197.141 256.48C-208.437 248.82 -220.091 241.846 -231.776 235.753C-232.292 235.483 -232.894 235.43 -233.45 235.605C-234.005 235.779 -234.468 236.167 -234.737 236.684C-235.006 237.2 -235.06 237.802 -234.885 238.357C-234.71 238.912 -234.322 239.376 -233.806 239.645C-222.269 245.66 -210.762 252.546 -199.604 260.113C-160.529 286.614 -132.596 315.814 -103.023 346.73C-79.9001 370.903 -55.9897 395.9 -30.2475 412.452C-4.48079 429.018 25.5152 438.371 61.4524 441.045C69.1149 441.617 76.815 441.43 84.4409 440.49Z" fill="url(#paint19_linear_1_678)"/>
<path d="M225.065 643.62C225.286 643.593 225.507 643.531 225.72 643.432C247.962 633.13 270.504 620.295 292.719 605.286C354.45 563.583 407.184 509.997 458.18 458.175C501.727 413.928 546.735 368.196 590.071 339.145C609.281 326.267 626.878 317.391 643.869 312.008C660.452 306.757 676.783 304.82 693.798 306.085C694.37 306.114 694.932 305.918 695.362 305.539C695.792 305.159 696.056 304.627 696.099 304.055C696.141 303.483 695.958 302.917 695.589 302.479C695.22 302.04 694.694 301.763 694.123 301.707C676.541 300.4 659.67 302.4 642.544 307.824C625.15 313.334 607.187 322.388 587.627 335.499C543.92 364.799 498.753 410.692 455.074 455.075C404.206 506.765 351.629 560.192 290.261 601.649C268.24 616.527 245.904 629.245 223.876 639.45C223.401 639.669 223.02 640.051 222.802 640.527C222.584 641.003 222.543 641.54 222.687 642.043C222.83 642.547 223.149 642.982 223.585 643.271C224.021 643.56 224.546 643.684 225.065 643.62Z" fill="url(#paint20_linear_1_678)"/>
<path d="M1053.34 533.111C1053.84 533.05 1054.3 532.822 1054.65 532.463C1055 532.104 1055.21 531.636 1055.26 531.138C1055.31 530.639 1055.18 530.14 1054.91 529.722C1054.63 529.304 1054.22 528.994 1053.74 528.841C1023.44 519.159 994.849 505.441 966.34 486.904C925.054 460.055 892.528 428.678 861.073 398.334C848.127 385.846 834.763 372.953 821.314 361.137C821.098 360.941 820.846 360.79 820.571 360.693C820.297 360.595 820.006 360.554 819.715 360.57C819.424 360.587 819.14 360.661 818.878 360.788C818.616 360.915 818.382 361.094 818.19 361.312C817.998 361.531 817.851 361.786 817.758 362.062C817.665 362.338 817.628 362.63 817.65 362.92C817.671 363.211 817.749 363.494 817.881 363.754C818.013 364.013 818.195 364.244 818.417 364.433C831.789 376.184 845.116 389.04 858.004 401.472C889.63 431.98 922.309 463.506 963.947 490.584C992.79 509.337 1021.72 523.22 1052.41 533.023C1052.71 533.119 1053.03 533.149 1053.34 533.111Z" fill="url(#paint21_linear_1_678)"/>
<path d="M1041.4 265.889C1041.82 265.838 1042.21 265.67 1042.53 265.403C1042.85 265.136 1043.09 264.783 1043.22 264.385C1043.35 263.987 1043.36 263.56 1043.26 263.156C1043.15 262.751 1042.93 262.385 1042.62 262.101C1034.02 254.133 1025.09 245.523 1016.46 237.196C982.162 204.107 946.698 169.895 899.433 140.181C841.557 103.798 779.835 83.6116 710.735 78.47C670.943 75.5096 631.487 79.0452 593.465 88.9782C592.902 89.1253 592.421 89.4901 592.126 89.9924C591.832 90.4947 591.75 91.0932 591.897 91.6564C592.044 92.2195 592.409 92.7012 592.911 92.9953C593.413 93.2895 594.012 93.3721 594.575 93.225C632.129 83.4121 671.102 79.9224 710.41 82.8473C778.776 87.9344 839.842 107.904 897.096 143.897C943.978 173.37 979.276 207.421 1013.41 240.352C1022.06 248.697 1031 257.323 1039.64 265.322C1039.88 265.539 1040.15 265.702 1040.46 265.8C1040.76 265.898 1041.08 265.929 1041.4 265.889Z" fill="url(#paint22_linear_1_678)"/>
<path d="M86.1334 453.564C112.077 450.379 138.459 439.351 167.405 419.794C210.6 390.611 255.315 345.175 298.556 301.233C350.298 248.654 403.795 194.292 466.814 152.309C485.439 139.903 504.327 129.017 522.956 119.954C523.479 119.699 523.88 119.247 524.07 118.697C524.26 118.146 524.223 117.543 523.968 117.02C523.714 116.497 523.261 116.096 522.711 115.906C522.161 115.716 521.558 115.752 521.034 116.007C502.23 125.156 483.169 136.141 464.381 148.656C400.984 190.89 347.326 245.416 295.435 298.147C252.337 341.942 207.779 387.22 164.948 416.157C127.297 441.594 94.2049 452.283 60.8021 449.8C23.3675 447.014 -7.96656 437.213 -34.9944 419.836C-61.6094 402.724 -85.8868 377.344 -109.365 352.8C-138.607 322.23 -166.225 293.356 -204.532 267.379C-211.263 262.811 -218.153 258.483 -225.191 254.404C-225.694 254.112 -226.293 254.033 -226.856 254.183C-227.418 254.333 -227.898 254.7 -228.19 255.204C-228.481 255.707 -228.561 256.306 -228.411 256.869C-228.261 257.431 -227.894 257.911 -227.39 258.203C-220.442 262.23 -213.64 266.502 -206.995 271.011C-169.075 296.727 -141.613 325.438 -112.539 355.832C-88.8818 380.563 -64.421 406.134 -37.3684 423.527C-9.70997 441.31 22.2952 451.336 60.475 454.177C69.0271 454.818 77.6216 454.612 86.1335 453.565L86.1334 453.564Z" fill="url(#paint23_linear_1_678)"/>
<path d="M112.666 662.74C171.312 655.539 228.301 632.917 285.349 594.374C345.988 553.409 398.253 500.299 448.796 448.939C492.791 404.234 538.284 358.009 582.739 328.208C603 314.624 621.695 305.219 639.894 299.454C658.103 293.687 676.055 291.56 694.775 292.953C728.024 295.427 757.525 305.016 784.967 322.268C813.383 340.132 840.72 366.503 867.157 392.005C891.393 415.384 916.431 439.538 945.502 461.524C945.732 461.697 945.994 461.824 946.273 461.897C946.552 461.97 946.842 461.987 947.128 461.947C947.413 461.908 947.688 461.812 947.937 461.666C948.186 461.52 948.403 461.327 948.577 461.097C948.751 460.867 948.878 460.605 948.95 460.326C949.023 460.048 949.04 459.757 949 459.472C948.961 459.186 948.865 458.911 948.719 458.663C948.574 458.414 948.38 458.197 948.15 458.023C919.289 436.195 894.348 412.135 870.226 388.868C843.607 363.188 816.104 336.657 787.304 318.552C759.24 300.91 729.08 291.104 695.1 288.576C675.814 287.141 657.322 289.33 638.568 295.27C619.968 301.162 600.907 310.743 580.294 324.562C535.47 354.612 489.817 401 445.668 445.859C395.275 497.066 343.167 550.017 282.891 590.737C204.968 643.384 127.209 666.01 45.1671 659.905C-28.0707 654.456 -91.4274 634.001 -148.522 597.372C-196.28 566.731 -229.471 532.035 -261.569 498.48C-274.239 485.237 -286.2 472.731 -298.079 461.788C-298.508 461.401 -299.073 461.198 -299.65 461.225C-300.228 461.252 -300.772 461.505 -301.163 461.93C-301.555 462.356 -301.763 462.919 -301.742 463.496C-301.721 464.074 -301.473 464.621 -301.052 465.016C-289.276 475.866 -277.361 488.321 -264.747 501.509C-232.465 535.255 -199.09 570.144 -150.893 601.067C-93.1676 638.099 -29.1417 658.778 44.8408 664.283C67.7517 665.988 90.3291 665.482 112.666 662.74Z" fill="url(#paint24_linear_1_678)"/>
<path d="M1006.06 250.43C1006.47 250.379 1006.86 250.213 1007.18 249.95C1007.51 249.688 1007.75 249.34 1007.88 248.947C1008.01 248.553 1008.03 248.131 1007.93 247.728C1007.83 247.326 1007.62 246.959 1007.32 246.671L1007.26 246.618C999.511 239.14 991.496 231.409 983.39 223.784C968.587 209.86 956.01 198.695 943.81 188.646C943.588 188.459 943.332 188.318 943.055 188.231C942.778 188.144 942.487 188.113 942.198 188.139C941.909 188.166 941.628 188.249 941.371 188.385C941.115 188.521 940.888 188.706 940.703 188.93C940.519 189.154 940.381 189.412 940.297 189.69C940.213 189.968 940.185 190.259 940.214 190.548C940.244 190.836 940.33 191.116 940.469 191.371C940.607 191.626 940.795 191.852 941.02 192.034C953.143 202.02 965.651 213.124 980.382 226.981C988.468 234.587 996.473 242.309 1004.21 249.777L1004.27 249.832C1004.51 250.059 1004.79 250.23 1005.1 250.334C1005.41 250.437 1005.74 250.47 1006.06 250.43Z" fill="url(#paint25_linear_1_678)"/>
<path d="M87.8384 466.641C115.823 463.204 144.048 451.467 174.777 430.706C219.066 400.784 264.252 354.866 307.951 310.459C359.218 258.362 412.227 204.497 474.115 163.269C551.167 111.941 628.141 89.9306 709.433 95.9793C758.884 99.6582 803.739 111.191 846.562 131.236C847.089 131.483 847.693 131.51 848.24 131.312C848.787 131.113 849.233 130.706 849.48 130.179C849.727 129.652 849.754 129.048 849.556 128.501C849.358 127.953 848.95 127.507 848.423 127.26C805.108 106.986 759.751 95.3213 709.758 91.602C627.453 85.4781 549.578 107.725 471.682 159.616C409.416 201.095 356.246 255.125 304.828 307.376C261.275 351.634 216.245 397.393 172.32 427.069C132.084 454.253 96.3384 465.65 59.8246 462.932C44.3592 461.78 29.6315 459.441 16.0514 455.978C15.4875 455.835 14.8894 455.921 14.3889 456.218C13.8884 456.515 13.5265 456.999 13.3826 457.563C13.2389 458.127 13.325 458.725 13.6221 459.225C13.9192 459.726 14.4029 460.088 14.967 460.232C28.7959 463.758 43.7778 466.139 59.4983 467.309C68.944 468.019 78.4367 467.795 87.8384 466.641Z" fill="url(#paint26_linear_1_678)"/>
<path d="M1013.39 488.273C1013.86 488.216 1014.3 488.011 1014.64 487.687C1014.98 487.363 1015.21 486.938 1015.29 486.475C1015.37 486.011 1015.3 485.534 1015.09 485.113C1014.88 484.692 1014.54 484.35 1014.12 484.137C1002.92 478.461 991.674 471.963 980.695 464.824C941.523 439.351 909.914 408.857 879.345 379.367C852.262 353.241 824.262 326.232 794.311 307.404C764.385 288.59 732.252 278.136 696.078 275.444C675.084 273.883 654.973 276.261 634.591 282.717C614.782 288.993 594.623 299.103 572.961 313.626C551.723 327.862 528.336 347.008 501.464 372.156C501.252 372.352 501.081 372.589 500.961 372.852C500.841 373.114 500.774 373.398 500.764 373.687C500.753 373.976 500.8 374.264 500.902 374.535C501.003 374.805 501.157 375.053 501.354 375.264C501.552 375.475 501.789 375.645 502.052 375.764C502.315 375.883 502.6 375.949 502.889 375.958C503.177 375.967 503.465 375.919 503.735 375.816C504.006 375.714 504.253 375.559 504.463 375.361C531.161 350.376 554.366 331.375 575.405 317.271C596.717 302.983 616.51 293.049 635.917 286.902C655.755 280.617 675.327 278.302 695.752 279.821C731.195 282.459 762.669 292.697 791.975 311.12C821.541 329.707 849.375 356.555 876.293 382.521C907.015 412.159 938.779 442.801 978.303 468.504C989.413 475.728 1000.8 482.305 1012.14 488.053C1012.52 488.25 1012.96 488.326 1013.39 488.273Z" fill="url(#paint27_linear_1_678)"/>
<path d="M89.5508 479.716C119.567 476.031 149.64 463.581 182.149 441.617C227.528 410.959 273.187 364.561 317.34 319.691C368.137 268.074 420.662 214.7 481.416 174.228C555.933 124.587 630.198 103.287 708.455 109.111C772.432 113.872 829.553 132.543 883.081 166.193C927.652 194.214 961.955 227.306 995.128 259.309C1012.4 275.965 1028.71 291.698 1045.34 305.432C1045.79 305.798 1046.37 305.971 1046.94 305.914C1047.52 305.857 1048.05 305.574 1048.42 305.127C1048.79 304.68 1048.97 304.106 1048.91 303.529C1048.86 302.952 1048.58 302.419 1048.14 302.047C1031.63 288.421 1015.38 272.746 998.176 256.149C964.842 223.991 930.372 190.739 885.417 162.477C831.268 128.437 773.489 109.549 708.782 104.733C629.511 98.8344 554.344 120.372 478.982 170.574C417.851 211.298 365.165 264.836 314.213 316.613C270.209 361.328 224.708 407.568 179.692 437.98C136.87 466.911 98.4678 479.013 58.8477 476.063C16.9265 472.944 -18.4281 461.797 -49.2376 441.988C-78.4749 423.19 -103.848 396.667 -128.386 371.017C-156.644 341.475 -183.326 313.581 -219.314 289.175C-238.416 276.219 -258.514 265.62 -279.047 257.675C-279.587 257.48 -280.181 257.504 -280.702 257.742C-281.224 257.98 -281.632 258.413 -281.839 258.947C-282.046 259.482 -282.036 260.076 -281.81 260.603C-281.584 261.131 -281.162 261.549 -280.632 261.768C-260.408 269.594 -240.606 280.038 -221.777 292.807C-186.176 316.951 -159.649 344.683 -131.565 374.042C-106.843 399.886 -81.2864 426.601 -51.6116 445.68C-20.1722 465.895 15.8533 477.265 58.5214 480.441C68.9229 481.214 79.2334 480.983 89.5508 479.716Z" fill="url(#paint28_linear_1_678)"/>
<path d="M91.2697 492.791C123.315 488.857 155.226 475.696 189.521 452.527C235.992 421.132 282.119 374.258 326.727 328.927C377.054 277.786 429.095 224.903 488.716 185.187C560.699 137.235 632.256 116.645 707.478 122.242C769.262 126.839 824.409 144.862 876.072 177.342C919.487 204.634 953.293 237.246 985.986 268.785C1012.27 294.136 1037.09 318.08 1063.75 335.525C1080.43 346.434 1096.81 354.088 1113.85 358.926C1114.13 359.004 1114.42 359.028 1114.71 358.994C1114.99 358.961 1115.27 358.871 1115.52 358.731C1115.77 358.591 1115.99 358.402 1116.17 358.176C1116.35 357.95 1116.48 357.691 1116.56 357.414C1116.64 357.136 1116.67 356.846 1116.63 356.56C1116.6 356.274 1116.51 355.997 1116.37 355.745C1116.23 355.493 1116.04 355.272 1115.81 355.093C1115.59 354.914 1115.33 354.781 1115.05 354.703C1098.45 349.988 1082.45 342.513 1066.16 331.852C1039.84 314.634 1015.16 290.83 989.034 265.628C956.18 233.933 922.208 201.16 878.408 173.625C826.124 140.756 770.319 122.517 707.804 117.864C631.571 112.192 559.11 133.017 486.283 181.534C426.285 221.501 374.082 274.548 323.598 325.849C279.142 371.025 233.171 417.741 187.064 448.891C141.656 479.568 100.603 492.374 57.871 489.195C13.7086 485.909 -23.6566 474.09 -56.3585 453.065C-86.9135 433.42 -112.835 406.323 -137.902 380.118C-165.662 351.098 -191.876 323.694 -226.705 300.073C-238.549 292.039 -250.835 284.923 -263.217 278.922C-263.476 278.796 -263.758 278.723 -264.046 278.706C-264.333 278.689 -264.622 278.729 -264.894 278.823C-265.166 278.918 -265.417 279.065 -265.633 279.256C-265.848 279.448 -266.024 279.68 -266.149 279.939C-266.275 280.198 -266.349 280.48 -266.365 280.768C-266.382 281.055 -266.342 281.344 -266.248 281.616C-266.153 281.888 -266.006 282.139 -265.815 282.355C-265.623 282.57 -265.391 282.746 -265.132 282.871C-252.938 288.781 -240.838 295.79 -229.168 303.706C-194.725 327.065 -168.668 354.305 -141.081 383.145C-115.83 409.541 -89.7253 436.829 -58.7324 456.756C-25.3998 478.188 12.6348 490.231 57.5446 493.572C68.8729 494.415 80.0809 494.165 91.2697 492.791Z" fill="url(#paint29_linear_1_678)"/>
<path d="M107.546 623.515C160.135 617.058 211.509 596.587 263.234 561.639C320.604 522.883 371.443 471.222 420.608 421.262C466.013 375.125 512.944 327.438 560.741 295.394C584.157 279.697 606.146 268.707 627.964 261.795C651.06 254.48 673.872 251.784 697.706 253.558C737.537 256.521 772.958 268.057 805.993 288.824C837.867 308.862 866.694 336.669 894.571 363.56C924.408 392.345 955.249 422.099 992.659 446.425C1019.3 463.746 1046.07 476.257 1074.5 484.673C1074.77 484.755 1075.06 484.781 1075.35 484.751C1075.64 484.721 1075.92 484.635 1076.17 484.497C1076.42 484.359 1076.65 484.173 1076.83 483.949C1077.01 483.725 1077.14 483.467 1077.23 483.191C1077.31 482.914 1077.33 482.625 1077.3 482.338C1077.27 482.051 1077.19 481.773 1077.05 481.52C1076.91 481.267 1076.73 481.043 1076.5 480.861C1076.28 480.68 1076.02 480.545 1075.74 480.463C1047.72 472.17 1021.33 459.833 995.052 442.745C957.994 418.648 927.305 389.042 897.628 360.411C869.581 333.355 840.588 305.388 808.329 285.108C774.673 263.951 738.595 252.199 698.032 249.181C673.631 247.365 650.278 250.123 626.639 257.61C604.419 264.65 582.064 275.816 558.297 291.749C510.129 324.04 463.038 371.89 417.498 418.166C368.466 467.99 317.783 519.491 260.777 558.003C190.501 605.483 120.931 625.931 48.0987 620.51C-18.4262 615.561 -75.763 597.116 -127.191 564.122C-170.989 536.023 -202.527 503.054 -233.027 471.171C-252.504 450.809 -270.891 431.586 -290.296 416.557C-290.524 416.378 -290.784 416.246 -291.063 416.168C-291.342 416.091 -291.634 416.069 -291.921 416.104C-292.208 416.14 -292.486 416.232 -292.737 416.375C-292.989 416.518 -293.21 416.71 -293.387 416.938C-293.564 417.167 -293.695 417.429 -293.77 417.708C-293.846 417.988 -293.866 418.279 -293.828 418.567C-293.791 418.854 -293.697 419.13 -293.552 419.381C-293.407 419.632 -293.214 419.851 -292.984 420.027C-273.837 434.856 -255.56 453.964 -236.209 474.193C-205.521 506.274 -173.799 539.435 -129.562 567.816C-77.5039 601.214 -19.4978 619.883 47.7725 624.888C67.9186 626.387 87.8216 625.937 107.546 623.515Z" fill="url(#paint30_linear_1_678)"/>
<path d="M92.9933 505.868C127.063 501.685 160.813 487.814 196.893 463.439C244.45 431.308 291.048 383.957 336.112 338.164C385.97 287.498 437.527 235.109 496.017 196.145C565.466 149.881 634.317 130.003 706.501 135.374C766.088 139.808 819.262 157.181 869.064 188.489C911.321 215.054 944.629 247.185 976.842 278.26C1003.58 304.055 1028.84 328.418 1056.54 346.545C1064.1 351.491 1071.74 355.881 1079.25 359.595C1079.51 359.723 1079.79 359.798 1080.08 359.818C1080.37 359.837 1080.66 359.799 1080.93 359.707C1081.2 359.614 1081.45 359.469 1081.67 359.28C1081.89 359.09 1082.07 358.859 1082.19 358.601C1082.32 358.342 1082.4 358.061 1082.42 357.774C1082.44 357.486 1082.4 357.198 1082.31 356.925C1082.21 356.652 1082.07 356.4 1081.88 356.183C1081.69 355.966 1081.46 355.788 1081.2 355.661C1073.85 352.024 1066.36 347.722 1058.95 342.871C1031.59 324.971 1006.48 300.748 979.892 275.103C947.517 243.872 914.041 211.58 871.4 184.772C820.977 153.075 767.145 135.485 706.827 130.996C633.632 125.548 563.878 145.665 493.583 192.492C434.716 231.706 382.999 284.261 332.983 335.086C288.071 380.724 241.631 427.917 194.436 459.802C146.443 492.224 102.74 505.736 56.8935 502.326C10.4871 498.873 -28.8878 486.382 -63.48 464.141C-95.3474 443.651 -121.816 415.982 -147.413 389.224C-174.679 360.72 -200.424 333.807 -234.095 310.971C-260.519 293.049 -287.806 280.619 -317.516 272.972C-318.08 272.827 -318.678 272.911 -319.179 273.207C-319.68 273.503 -320.043 273.986 -320.189 274.55C-320.334 275.113 -320.249 275.712 -319.953 276.213C-319.657 276.714 -319.174 277.077 -318.61 277.222C-289.398 284.742 -262.558 296.97 -236.558 314.604C-203.274 337.177 -177.686 363.927 -150.596 392.247C-124.811 419.201 -98.1597 447.062 -65.8539 467.833C-30.6304 490.48 9.4133 503.195 56.5672 506.703C68.8259 507.616 80.9311 507.349 92.9933 505.868Z" fill="url(#paint31_linear_1_678)"/>
<path d="M105.841 610.441C156.407 604.233 205.911 584.477 255.864 550.727C312.145 512.705 362.511 461.526 411.218 412.032C457.079 365.43 504.493 317.25 553.409 284.457C577.875 268.056 600.962 256.537 623.988 249.242C648.713 241.41 673.147 238.526 698.684 240.426C740.71 243.553 778.103 255.738 813.001 277.675C846.03 298.44 875.355 326.728 903.714 354.084C933.101 382.435 963.484 411.746 999.837 435.386C1006.46 439.693 1013.23 443.762 1020.14 447.585C1020.39 447.724 1020.67 447.812 1020.95 447.844C1021.24 447.877 1021.53 447.852 1021.81 447.772C1022.08 447.692 1022.34 447.559 1022.57 447.379C1022.79 447.199 1022.98 446.977 1023.12 446.724C1023.26 446.472 1023.35 446.195 1023.38 445.909C1023.41 445.622 1023.39 445.332 1023.31 445.055C1023.23 444.778 1023.09 444.52 1022.91 444.294C1022.73 444.069 1022.51 443.881 1022.26 443.742C1015.44 439.971 1008.76 435.956 1002.23 431.706C966.228 408.295 936 379.133 906.767 350.93C878.241 323.414 848.751 294.965 815.337 273.958C779.818 251.631 741.767 239.231 699.009 236.049C672.905 234.107 647.932 237.053 622.663 245.057C599.233 252.48 575.781 264.175 550.965 280.812C501.678 313.853 454.105 362.195 408.098 408.945C359.534 458.294 309.325 509.314 253.407 547.09C185.677 592.85 118.84 612.569 49.0756 607.379C-15.209 602.596 -70.5406 584.821 -120.08 553.039C-162.563 525.783 -193.552 493.387 -223.522 462.057C-246.808 437.712 -268.804 414.717 -293.225 398.155C-300.212 393.415 -307.384 389.247 -314.539 385.767C-315.063 385.512 -315.666 385.475 -316.216 385.665C-316.766 385.855 -317.218 386.256 -317.473 386.779C-317.728 387.303 -317.764 387.906 -317.574 388.456C-317.384 389.006 -316.983 389.459 -316.46 389.713C-309.492 393.103 -302.504 397.165 -295.689 401.788C-271.654 418.088 -249.815 440.919 -226.693 465.091C-196.546 496.607 -165.373 529.196 -122.451 556.734C-72.2808 588.92 -16.2806 606.918 48.75 611.756C67.9761 613.188 86.9853 612.756 105.841 610.441Z" fill="url(#paint32_linear_1_678)"/>
<path d="M94.7204 518.945C130.81 514.513 166.398 499.932 204.265 474.349C252.912 441.483 299.981 393.654 345.497 347.4C394.898 297.201 445.964 245.311 503.317 207.104C570.233 162.528 636.375 143.361 705.524 148.506C762.916 152.776 814.118 169.502 862.056 199.638C903.162 225.478 935.972 257.129 967.702 287.739C986.481 305.854 1004.21 322.963 1022.88 338.111C1032.08 345.573 1040.73 351.936 1049.33 357.563C1049.82 357.875 1050.41 357.982 1050.98 357.861C1051.54 357.739 1052.04 357.4 1052.35 356.916C1052.67 356.432 1052.78 355.843 1052.67 355.277C1052.55 354.71 1052.22 354.212 1051.74 353.891C1043.26 348.345 1034.73 342.069 1025.65 334.702C1007.13 319.672 989.459 302.628 970.753 284.584C938.859 253.816 905.882 222.004 864.393 195.921C815.833 165.395 763.973 148.453 705.85 144.128C635.689 138.907 568.644 158.312 500.884 203.451C443.153 241.909 391.926 293.964 342.385 344.304C297.002 390.422 250.092 438.091 201.808 470.713C151.23 504.882 104.871 519.1 55.9159 515.458C7.26541 511.838 -34.1179 498.675 -70.6017 475.218C-103.777 453.886 -130.794 425.646 -156.92 398.335C-183.691 370.349 -208.968 343.923 -241.486 321.869C-259.731 309.495 -279.02 299.613 -298.82 292.496C-299.368 292.299 -299.971 292.327 -300.498 292.575C-301.024 292.824 -301.431 293.271 -301.628 293.818C-301.825 294.366 -301.796 294.97 -301.548 295.496C-301.3 296.023 -300.853 296.429 -300.305 296.626C-280.85 303.62 -261.89 313.334 -243.95 325.502C-211.817 347.294 -186.697 373.557 -160.101 401.361C-133.789 428.865 -106.591 457.297 -72.9754 478.91C-35.8619 502.773 6.19229 516.16 55.5896 519.836C68.7812 520.818 81.7841 520.533 94.7204 518.945Z" fill="url(#paint33_linear_1_678)"/>
<path d="M104.138 597.367C152.683 591.408 200.313 572.368 248.493 539.816C303.684 502.531 353.577 451.83 401.827 402.8C448.152 355.727 496.046 307.06 546.076 273.519C571.592 256.414 595.775 244.367 620.012 236.689C646.366 228.34 672.419 225.268 699.661 227.295C743.882 230.585 783.249 243.419 820.009 266.528C854.195 288.018 884.017 316.789 912.86 344.611C941.798 372.528 971.721 401.394 1007.02 424.346C1036.62 443.594 1066.64 456.497 1098.79 463.791C1099.36 463.915 1099.95 463.81 1100.44 463.5C1100.93 463.189 1101.28 462.698 1101.4 462.133C1101.53 461.567 1101.43 460.975 1101.12 460.484C1100.82 459.992 1100.33 459.643 1099.76 459.51C1068.12 452.333 1038.57 439.627 1009.41 420.667C974.465 397.943 944.696 369.225 915.908 341.454C886.905 313.474 856.915 284.543 822.345 262.811C784.964 239.312 744.94 226.262 699.986 222.917C672.177 220.848 645.583 223.983 618.686 232.503C594.048 240.309 569.498 252.533 543.633 269.873C493.23 303.662 445.178 352.492 398.706 399.713C350.6 448.597 300.863 499.138 246.035 536.178C180.855 580.216 116.747 599.211 50.0531 594.247C-11.9957 589.63 -65.3207 572.526 -112.969 541.955C-154.133 515.546 -184.571 483.726 -214.006 452.954C-237.795 428.087 -260.263 404.599 -285.834 387.256C-291.066 383.708 -296.406 380.445 -301.706 377.559C-302.217 377.289 -302.813 377.231 -303.366 377.398C-303.919 377.564 -304.383 377.942 -304.659 378.449C-304.936 378.956 -305.001 379.552 -304.841 380.106C-304.681 380.661 -304.309 381.131 -303.805 381.413C-298.63 384.232 -293.413 387.42 -288.298 390.888C-263.112 407.969 -240.8 431.294 -217.178 455.988C-187.565 486.946 -156.943 518.958 -115.34 545.649C-67.0617 576.624 -13.0667 593.951 49.7268 598.624C68.0335 599.987 86.1539 599.573 104.138 597.366L104.138 597.367Z" fill="url(#paint34_linear_1_678)"/>
<path d="M96.4511 532.02C134.558 527.341 171.981 512.051 211.636 485.261C261.376 451.656 308.914 403.349 354.888 356.631C403.807 306.921 454.391 255.519 510.618 218.063C575.001 175.175 638.435 156.718 704.547 161.637C759.744 165.744 808.973 181.821 855.048 210.786C894.997 235.9 927.31 267.071 958.56 297.215C986.215 323.894 1012.34 349.094 1042.13 368.583C1057.92 378.919 1073.37 386.759 1089.35 392.552C1089.9 392.747 1090.5 392.718 1091.02 392.471C1091.55 392.223 1091.96 391.778 1092.15 391.233C1092.35 390.687 1092.32 390.086 1092.08 389.56C1091.83 389.034 1091.39 388.626 1090.85 388.426C1075.19 382.75 1060.04 375.058 1044.53 364.909C1015.09 345.648 989.11 320.587 961.607 294.056C930.197 263.756 897.719 232.426 857.385 207.07C810.688 177.714 760.8 161.422 704.872 157.259C637.749 152.266 573.411 170.958 508.184 214.41C451.58 252.117 400.835 303.684 351.759 353.553C305.937 400.116 258.555 448.265 209.179 481.624C156.017 517.54 107.006 532.464 54.9391 528.589C4.04599 524.802 -39.3487 510.967 -77.7232 486.294C-112.216 464.115 -139.779 435.303 -166.433 407.439C-192.706 379.974 -217.518 354.036 -248.878 332.766C-270.089 318.382 -291.823 307.969 -315.322 300.936C-315.599 300.849 -315.891 300.817 -316.18 300.844C-316.47 300.871 -316.751 300.955 -317.008 301.091C-317.265 301.227 -317.492 301.413 -317.676 301.638C-317.86 301.863 -317.998 302.122 -318.082 302.4C-318.165 302.679 -318.192 302.971 -318.162 303.26C-318.131 303.549 -318.043 303.829 -317.904 304.084C-317.764 304.339 -317.575 304.564 -317.348 304.745C-317.121 304.926 -316.86 305.061 -316.58 305.14C-293.516 312.044 -272.176 322.269 -251.341 336.399C-220.368 357.406 -195.713 383.181 -169.609 410.469C-142.773 438.522 -115.028 467.526 -80.0971 489.986C-41.0913 515.065 2.97214 529.124 54.6128 532.967C68.7379 534.018 82.6428 533.716 96.4512 532.021L96.4511 532.02Z" fill="url(#paint35_linear_1_678)"/>
<path d="M98.1867 545.098C138.307 540.172 177.566 524.17 219.007 496.172C269.837 461.831 317.845 413.047 364.274 365.868C461.802 266.763 562.649 164.286 703.569 174.768C756.572 178.712 803.829 194.141 848.04 221.934C886.834 246.322 918.648 277.011 949.416 306.692C981.911 338.039 1012.59 367.637 1049.83 388.698C1050.33 388.971 1050.92 389.034 1051.48 388.875C1052.03 388.715 1052.5 388.346 1052.78 387.846C1053.06 387.346 1053.14 386.755 1052.99 386.2C1052.84 385.645 1052.48 385.17 1051.99 384.877C1015.24 364.09 984.752 334.681 952.476 303.545C921.535 273.698 889.555 242.847 850.377 218.219C805.544 190.035 757.629 174.389 703.895 170.392C560.949 159.757 459.375 262.971 361.144 362.789C314.868 409.814 267.016 458.44 216.55 492.535C160.803 530.198 109.138 545.827 53.9616 541.721C-64.6421 532.896 -121.226 473.747 -175.946 416.545C-201.723 389.598 -226.065 364.149 -256.269 343.665C-266.699 336.591 -277.544 330.397 -288.5 325.255C-289.026 325.016 -289.624 324.993 -290.167 325.192C-290.709 325.392 -291.151 325.797 -291.396 326.32C-291.641 326.843 -291.671 327.441 -291.478 327.986C-291.285 328.53 -290.885 328.977 -290.364 329.228C-279.615 334.273 -268.974 340.353 -258.732 347.298C-228.916 367.52 -204.728 392.805 -179.121 419.575C-123.824 477.38 -66.6494 537.149 53.6353 546.099C68.6975 547.22 83.5019 546.901 98.1867 545.098Z" fill="url(#paint36_linear_1_678)"/>
<path d="M1114.72 358.994C1115.22 358.933 1115.69 358.7 1116.04 358.333C1116.39 357.967 1116.6 357.491 1116.64 356.985C1116.68 356.48 1116.54 355.976 1116.25 355.56C1115.96 355.144 1115.54 354.842 1115.05 354.704C1098.45 349.989 1082.45 342.514 1066.16 331.852C1042.12 316.124 1019.92 295.359 995.458 271.82C995.036 271.431 994.478 271.223 993.905 271.24C993.331 271.258 992.787 271.499 992.389 271.912C991.991 272.326 991.771 272.878 991.776 273.452C991.78 274.026 992.009 274.575 992.414 274.982C1017.03 298.678 1039.39 319.589 1063.75 335.526C1080.43 346.434 1096.81 354.088 1113.85 358.926C1114.14 359.008 1114.44 359.029 1114.72 358.994Z" fill="url(#paint37_linear_1_678)"/>
<path d="M99.4122 558.177C114.48 556.327 129.436 552.994 144.491 548.153C171.581 539.442 198.367 526.008 226.379 507.082C278.297 472.007 326.777 422.744 373.659 375.104C421.371 326.622 470.706 276.488 524.08 240.707C552.749 221.487 580.228 207.855 608.082 199.031C639.323 189.133 670.238 185.493 702.592 187.9C816.062 196.344 879.215 257.265 940.286 316.181C990.259 364.388 1037.46 409.921 1109.02 425.61C1109.31 425.675 1109.6 425.684 1109.88 425.635C1110.17 425.586 1110.44 425.481 1110.69 425.326C1110.93 425.171 1111.15 424.969 1111.31 424.731C1111.48 424.493 1111.6 424.225 1111.66 423.942C1111.72 423.658 1111.73 423.365 1111.68 423.08C1111.62 422.794 1111.52 422.522 1111.36 422.278C1111.2 422.035 1111 421.825 1110.76 421.661C1110.52 421.497 1110.25 421.382 1109.96 421.323C1039.61 405.9 992.846 360.785 943.334 313.021C881.701 253.565 817.969 192.085 702.917 183.523C669.996 181.072 638.541 184.777 606.756 194.846C578.5 203.797 550.656 217.606 521.635 237.061C467.891 273.091 418.396 323.386 370.531 372.025C323.799 419.512 275.477 468.615 223.921 503.445C196.259 522.135 169.836 535.392 143.147 543.974C113.259 553.585 83.7675 557.144 52.9841 554.853C-44.7646 547.58 -100.896 507.145 -146.992 464.533C-153.535 458.485 -156.952 455.193 -164.529 446.842C-207.49 399.495 -242.818 367.284 -272.533 348.368C-299.158 331.418 -319.352 326.187 -339.393 321.922C-339.959 321.809 -340.546 321.924 -341.028 322.241C-341.51 322.559 -341.848 323.053 -341.968 323.617C-342.088 324.182 -341.981 324.77 -341.67 325.257C-341.359 325.743 -340.87 326.087 -340.307 326.214C-305.221 333.682 -265.453 342.145 -167.78 449.792C-160.085 458.272 -156.614 461.615 -149.972 467.756C-130.218 486.016 -102.967 509.291 -67.264 527.347C-31.4445 545.461 7.78291 555.891 52.6578 559.23C68.5054 560.409 84.0175 560.067 99.4122 558.177Z" fill="url(#paint38_linear_1_678)"/>
<path d="M1075.39 484.747C1075.89 484.686 1076.35 484.454 1076.7 484.091C1077.06 483.727 1077.27 483.253 1077.31 482.75C1077.35 482.247 1077.22 481.744 1076.93 481.328C1076.65 480.911 1076.23 480.606 1075.74 480.463C1047.72 472.17 1021.33 459.833 995.052 442.746C957.994 418.648 927.306 389.042 897.628 360.412C869.581 333.356 840.588 305.388 808.329 285.108C792.95 275.44 776.773 267.617 760.246 261.853C759.974 261.757 759.685 261.715 759.396 261.731C759.108 261.746 758.825 261.819 758.564 261.944C758.304 262.069 758.071 262.244 757.878 262.46C757.685 262.676 757.537 262.927 757.442 263.2C757.347 263.473 757.307 263.762 757.324 264.051C757.341 264.339 757.414 264.622 757.541 264.882C757.667 265.142 757.844 265.374 758.06 265.566C758.277 265.757 758.529 265.904 758.802 265.998C775.016 271.652 790.893 279.332 805.992 288.823C837.867 308.863 866.694 336.669 894.571 363.561C924.408 392.345 955.249 422.099 992.659 446.425C1019.3 463.747 1046.07 476.257 1074.5 484.673C1074.8 484.761 1075.1 484.782 1075.39 484.747Z" fill="url(#paint39_linear_1_678)"/>
<path d="M1090.37 392.669C1090.86 392.61 1091.31 392.387 1091.66 392.037C1092.01 391.686 1092.23 391.229 1092.28 390.738C1092.34 390.248 1092.23 389.753 1091.97 389.333C1091.71 388.914 1091.31 388.595 1090.85 388.427C1075.19 382.75 1060.04 375.059 1044.53 364.91C1015.09 345.648 989.109 320.588 961.607 294.056C930.197 263.757 897.719 232.425 857.385 207.07C810.688 177.715 760.8 161.422 704.872 157.261C691.828 156.289 678.71 156.219 665.884 157.051C665.305 157.091 664.766 157.359 664.384 157.796C664.002 158.233 663.809 158.803 663.846 159.382C663.884 159.961 664.149 160.501 664.584 160.885C665.019 161.269 665.588 161.465 666.167 161.431C678.792 160.612 691.705 160.682 704.547 161.637C759.744 165.745 808.973 181.821 855.048 210.786C894.997 235.9 927.31 267.071 958.56 297.216C986.215 323.895 1012.34 349.094 1042.13 368.583C1057.92 378.919 1073.37 386.76 1089.35 392.553C1089.69 392.674 1090.03 392.71 1090.37 392.669Z" fill="url(#paint40_linear_1_678)"/>
<path d="M202.637 375.174C203.072 375.121 203.481 374.938 203.811 374.649C232.211 349.879 261.163 320.458 289.162 292.006C341.378 238.945 395.359 184.09 459.514 141.351C487.155 122.938 515.245 107.87 543.004 96.5656C543.273 96.4586 543.518 96.2993 543.726 96.0969C543.933 95.8946 544.098 95.6532 544.212 95.3866C544.325 95.12 544.385 94.8336 544.387 94.5439C544.39 94.2541 544.335 93.9668 544.225 93.6985C544.116 93.4301 543.955 93.1861 543.751 92.9804C543.547 92.7747 543.304 92.6115 543.036 92.5002C542.769 92.3888 542.482 92.3315 542.192 92.3317C541.902 92.3318 541.615 92.3893 541.348 92.5008C513.318 103.916 484.966 119.122 457.08 137.698C392.549 180.689 338.405 235.708 286.045 288.917C258.092 317.321 229.2 346.681 200.926 371.341C200.571 371.65 200.326 372.064 200.224 372.523C200.123 372.982 200.172 373.462 200.364 373.891C200.555 374.32 200.88 374.676 201.289 374.907C201.698 375.138 202.171 375.231 202.637 375.174Z" fill="url(#paint41_linear_1_678)"/>
<path d="M1090.37 392.669C1090.86 392.61 1091.31 392.387 1091.66 392.037C1092.01 391.686 1092.23 391.229 1092.28 390.738C1092.34 390.248 1092.23 389.753 1091.97 389.333C1091.71 388.914 1091.31 388.594 1090.85 388.427C1075.19 382.75 1060.04 375.059 1044.53 364.91C1015.09 345.648 989.109 320.588 961.607 294.056C930.197 263.757 897.719 232.425 857.385 207.07C810.688 177.715 760.8 161.421 704.872 157.26C637.749 152.266 573.411 170.959 508.184 214.41C451.581 252.117 400.835 303.684 351.759 353.553C305.937 400.116 258.555 448.265 209.179 481.624C199.444 488.2 189.728 494.142 180.299 499.284C180.046 499.422 179.823 499.608 179.642 499.833C179.461 500.057 179.326 500.315 179.245 500.591C179.163 500.868 179.137 501.158 179.168 501.444C179.199 501.731 179.285 502.009 179.424 502.262C179.562 502.515 179.748 502.738 179.972 502.919C180.197 503.1 180.455 503.235 180.731 503.316C181.008 503.398 181.297 503.424 181.584 503.393C181.871 503.362 182.148 503.276 182.401 503.138C191.95 497.929 201.787 491.915 211.636 485.261C261.376 451.656 308.914 403.349 354.889 356.632C403.807 306.922 454.391 255.519 510.618 218.063C575.001 175.175 638.435 156.718 704.547 161.637C759.744 165.745 808.973 181.821 855.048 210.786C894.997 235.9 927.31 267.071 958.56 297.216C986.215 323.895 1012.34 349.094 1042.13 368.583C1057.92 378.919 1073.37 386.76 1089.35 392.553C1089.69 392.674 1090.03 392.71 1090.37 392.669Z" fill="url(#paint42_linear_1_678)"/>
<path d="M818.4 364.78C817.298 363.971 817.061 362.422 817.871 361.32C818.68 360.219 820.229 359.982 821.33 360.791C822.432 361.6 822.669 363.149 821.86 364.25C821.05 365.352 819.502 365.589 818.4 364.78Z" fill="#C8D2E6"/>
<path d="M770.654 344.702C769.552 343.893 769.315 342.344 770.124 341.242C770.934 340.141 772.482 339.904 773.584 340.713C774.686 341.522 774.923 343.071 774.113 344.172C773.304 345.274 771.755 345.511 770.654 344.702Z" fill="#C8D2E6"/>
<path d="M757.346 265.869C756.245 265.06 756.008 263.511 756.817 262.41C757.626 261.308 759.175 261.071 760.276 261.88C761.378 262.689 761.615 264.238 760.806 265.34C759.997 266.441 758.448 266.678 757.346 265.869Z" fill="#C8D2E6"/>
<path d="M959.071 370.284C957.97 369.475 957.733 367.926 958.542 366.824C959.351 365.723 960.9 365.486 962.001 366.295C963.103 367.104 963.34 368.653 962.531 369.754C961.722 370.856 960.173 371.093 959.071 370.284Z" fill="#C8D2E6"/>
<path d="M992.47 275.394C991.369 274.585 991.132 273.036 991.941 271.935C992.75 270.833 994.299 270.596 995.4 271.405C996.502 272.214 996.739 273.763 995.93 274.865C995.121 275.966 993.572 276.203 992.47 275.394Z" fill="#C8D2E6"/>
<path d="M940.95 192.335C939.849 191.526 939.612 189.977 940.421 188.875C941.23 187.774 942.779 187.537 943.881 188.346C944.982 189.155 945.219 190.704 944.41 191.806C943.601 192.907 942.052 193.144 940.95 192.335Z" fill="#C8D2E6"/>
<path d="M592.556 93.085C591.455 92.2758 591.218 90.727 592.027 89.6254C592.836 88.5239 594.385 88.2869 595.486 89.096C596.588 89.9051 596.825 91.454 596.016 92.5555C595.207 93.657 593.658 93.8941 592.556 93.085Z" fill="#C8D2E6"/>
<path d="M501.512 375.553C500.411 374.744 500.174 373.195 500.983 372.093C501.792 370.992 503.341 370.755 504.443 371.564C505.544 372.373 505.781 373.922 504.972 375.023C504.163 376.125 502.614 376.362 501.512 375.553Z" fill="#C8D2E6"/>
<path d="M360.749 423.002C359.647 422.193 359.41 420.644 360.219 419.542C361.028 418.441 362.577 418.204 363.679 419.013C364.78 419.822 365.017 421.371 364.208 422.473C363.399 423.574 361.85 423.811 360.749 423.002Z" fill="#C8D2E6"/>
<path d="M200.249 375.449C199.148 374.64 198.911 373.091 199.72 371.99C200.529 370.888 202.078 370.651 203.179 371.46C204.281 372.269 204.518 373.818 203.709 374.92C202.9 376.021 201.351 376.258 200.249 375.449Z" fill="#C8D2E6"/>
<path d="M179.883 503.202C178.781 502.393 178.544 500.844 179.353 499.743C180.162 498.641 181.711 498.404 182.813 499.213C183.914 500.022 184.151 501.571 183.342 502.673C182.533 503.774 180.984 504.011 179.883 503.202Z" fill="#C8D2E6"/>
<path d="M14.0503 460.018C12.9487 459.208 12.7117 457.66 13.5208 456.558C14.3299 455.457 15.8788 455.22 16.9803 456.029C18.0819 456.838 18.3189 458.387 17.5098 459.488C16.7006 460.59 15.1518 460.827 14.0503 460.018Z" fill="#C8D2E6"/>
<path d="M359.568 386.796C358.467 385.987 358.229 384.438 359.039 383.337C359.848 382.235 361.397 381.998 362.498 382.807C363.6 383.617 363.837 385.165 363.028 386.267C362.218 387.368 360.67 387.606 359.568 386.796Z" fill="#C8D2E6"/>
<path d="M484.679 447.454C483.578 446.645 483.341 445.096 484.15 443.995C484.959 442.893 486.508 442.656 487.609 443.465C488.711 444.274 488.948 445.823 488.139 446.925C487.33 448.026 485.781 448.263 484.679 447.454Z" fill="#C8D2E6"/>
<path d="M529.188 251.374C528.086 250.565 527.849 249.016 528.658 247.914C529.467 246.813 531.016 246.576 532.118 247.385C533.219 248.194 533.456 249.743 532.647 250.845C531.838 251.946 530.289 252.183 529.188 251.374Z" fill="#C8D2E6"/>
<path d="M664.561 161.228C663.459 160.418 663.222 158.87 664.031 157.768C664.841 156.666 666.389 156.429 667.491 157.239C668.593 158.048 668.83 159.597 668.02 160.698C667.211 161.8 665.662 162.037 664.561 161.228Z" fill="#C8D2E6"/>
<path d="M829.007 81.3779C827.905 80.5688 827.668 79.0199 828.477 77.9184C829.286 76.8169 830.835 76.5798 831.937 77.389C833.038 78.1981 833.275 79.747 832.466 80.8485C831.657 81.95 830.108 82.1871 829.007 81.3779Z" fill="#C8D2E6"/>
<path d="M662.237 68.9673C661.135 68.1582 660.898 66.6093 661.707 65.5078C662.516 64.4062 664.065 64.1692 665.167 64.9783C666.268 65.7874 666.505 67.3363 665.696 68.4378C664.887 69.5394 663.338 69.7764 662.237 68.9673Z" fill="#C8D2E6"/>
<path d="M806.935 259.107C805.834 258.298 805.597 256.749 806.406 255.648C807.215 254.546 808.764 254.309 809.865 255.118C810.967 255.928 811.204 257.476 810.395 258.578C809.586 259.68 808.037 259.917 806.935 259.107Z" fill="#C8D2E6"/>
<path d="M349.757 211.11C348.655 210.301 348.418 208.752 349.227 207.65C350.036 206.549 351.585 206.312 352.687 207.121C353.788 207.93 354.025 209.479 353.216 210.58C352.407 211.682 350.858 211.919 349.757 211.11Z" fill="#C8D2E6"/>
</g>
<defs>
<linearGradient id="paint0_linear_1_678" x1="1064.55" y1="313.415" x2="-317.658" y2="483.129" gradientUnits="userSpaceOnUse">
<stop stop-color="#F0F5FA" stop-opacity="0"/>
<stop offset="1" stop-color="#F0F5FA" stop-opacity="0.76"/>
</linearGradient>
<linearGradient id="paint1_linear_1_678" x1="1063.33" y1="303.463" x2="356.229" y2="390.283" gradientUnits="userSpaceOnUse">
<stop stop-color="#F0F5FA" stop-opacity="0"/>
<stop offset="1" stop-color="#F0F5FA" stop-opacity="0.76"/>
</linearGradient>
<linearGradient id="paint2_linear_1_678" x1="1125.96" y1="292.745" x2="-356.673" y2="474.789" gradientUnits="userSpaceOnUse">
<stop stop-color="#F0F5FA" stop-opacity="0"/>
<stop offset="1" stop-color="#F0F5FA" stop-opacity="0.76"/>
</linearGradient>
<linearGradient id="paint3_linear_1_678" x1="1086.93" y1="343.041" x2="820.76" y2="375.722" gradientUnits="userSpaceOnUse">
<stop stop-color="#F0F5FA" stop-opacity="0"/>
<stop offset="1" stop-color="#F0F5FA" stop-opacity="0.76"/>
</linearGradient>
<linearGradient id="paint4_linear_1_678" x1="1125.96" y1="292.744" x2="542.051" y2="364.439" gradientUnits="userSpaceOnUse">
<stop stop-color="#F0F5FA" stop-opacity="0"/>
<stop offset="1" stop-color="#F0F5FA" stop-opacity="0.76"/>
</linearGradient>
<linearGradient id="paint5_linear_1_678" x1="1093.97" y1="279.049" x2="356.945" y2="369.545" gradientUnits="userSpaceOnUse">
<stop stop-color="#F0F5FA" stop-opacity="0"/>
<stop offset="1" stop-color="#F0F5FA" stop-opacity="0.76"/>
</linearGradient>
<linearGradient id="paint6_linear_1_678" x1="1034.02" y1="354.368" x2="267.408" y2="448.497" gradientUnits="userSpaceOnUse">
<stop stop-color="#F0F5FA" stop-opacity="0"/>
<stop offset="1" stop-color="#F0F5FA" stop-opacity="0.76"/>
</linearGradient>
<linearGradient id="paint7_linear_1_678" x1="1074.98" y1="398.387" x2="963.616" y2="412.061" gradientUnits="userSpaceOnUse">
<stop stop-color="#F0F5FA" stop-opacity="0"/>
<stop offset="1" stop-color="#F0F5FA" stop-opacity="0.76"/>
</linearGradient>
<linearGradient id="paint8_linear_1_678" x1="415.063" y1="540.349" x2="-142.273" y2="608.781" gradientUnits="userSpaceOnUse">
<stop stop-color="#F0F5FA" stop-opacity="0"/>
<stop offset="1" stop-color="#F0F5FA" stop-opacity="0.76"/>
</linearGradient>
<linearGradient id="paint9_linear_1_678" x1="1035.95" y1="370.037" x2="-153.798" y2="516.119" gradientUnits="userSpaceOnUse">
<stop stop-color="#F0F5FA" stop-opacity="0"/>
<stop offset="1" stop-color="#F0F5FA" stop-opacity="0.76"/>
</linearGradient>
<linearGradient id="paint10_linear_1_678" x1="1035.82" y1="369.033" x2="123.631" y2="481.036" gradientUnits="userSpaceOnUse">
<stop stop-color="#F0F5FA" stop-opacity="0"/>
<stop offset="1" stop-color="#F0F5FA" stop-opacity="0.76"/>
</linearGradient>
<linearGradient id="paint11_linear_1_678" x1="1064.55" y1="313.415" x2="-164.413" y2="464.313" gradientUnits="userSpaceOnUse">
<stop stop-color="#F0F5FA" stop-opacity="0"/>
<stop offset="1" stop-color="#F0F5FA" stop-opacity="0.76"/>
</linearGradient>
<linearGradient id="paint12_linear_1_678" x1="1125.96" y1="292.744" x2="-20.1987" y2="433.475" gradientUnits="userSpaceOnUse">
<stop stop-color="#F0F5FA" stop-opacity="0"/>
<stop offset="1" stop-color="#F0F5FA" stop-opacity="0.76"/>
</linearGradient>
<linearGradient id="paint13_linear_1_678" x1="936.105" y1="101.941" x2="832.59" y2="114.651" gradientUnits="userSpaceOnUse">
<stop stop-color="#F0F5FA" stop-opacity="0"/>
<stop offset="1" stop-color="#F0F5FA" stop-opacity="0.76"/>
</linearGradient>
<linearGradient id="paint14_linear_1_678" x1="579.838" y1="125.105" x2="342.277" y2="154.273" gradientUnits="userSpaceOnUse">
<stop stop-color="#F0F5FA" stop-opacity="0"/>
<stop offset="1" stop-color="#F0F5FA" stop-opacity="0.76"/>
</linearGradient>
<linearGradient id="paint15_linear_1_678" x1="126.532" y1="400.558" x2="-21.7875" y2="418.769" gradientUnits="userSpaceOnUse">
<stop stop-color="#F0F5FA" stop-opacity="0"/>
<stop offset="1" stop-color="#F0F5FA" stop-opacity="0.76"/>
</linearGradient>
<linearGradient id="paint16_linear_1_678" x1="655.604" y1="373.045" x2="477.724" y2="394.886" gradientUnits="userSpaceOnUse">
<stop stop-color="#F0F5FA" stop-opacity="0"/>
<stop offset="1" stop-color="#F0F5FA" stop-opacity="0.76"/>
</linearGradient>
<linearGradient id="paint17_linear_1_678" x1="979.231" y1="418.377" x2="782.17" y2="442.573" gradientUnits="userSpaceOnUse">
<stop stop-color="#F0F5FA" stop-opacity="0"/>
<stop offset="1" stop-color="#F0F5FA" stop-opacity="0.76"/>
</linearGradient>
<linearGradient id="paint18_linear_1_678" x1="968.904" y1="107.436" x2="670.951" y2="144.02" gradientUnits="userSpaceOnUse">
<stop stop-color="#F0F5FA" stop-opacity="0"/>
<stop offset="1" stop-color="#F0F5FA" stop-opacity="0.76"/>
</linearGradient>
<linearGradient id="paint19_linear_1_678" x1="561.745" y1="235.902" x2="-223.387" y2="332.304" gradientUnits="userSpaceOnUse">
<stop stop-color="#F0F5FA" stop-opacity="0"/>
<stop offset="1" stop-color="#F0F5FA" stop-opacity="0.76"/>
</linearGradient>
<linearGradient id="paint20_linear_1_678" x1="712.912" y1="440.233" x2="205.53" y2="502.532" gradientUnits="userSpaceOnUse">
<stop stop-color="#F0F5FA" stop-opacity="0"/>
<stop offset="1" stop-color="#F0F5FA" stop-opacity="0.76"/>
</linearGradient>
<linearGradient id="paint21_linear_1_678" x1="1043.35" y1="433.735" x2="829.588" y2="459.982" gradientUnits="userSpaceOnUse">
<stop stop-color="#F0F5FA" stop-opacity="0"/>
<stop offset="1" stop-color="#F0F5FA" stop-opacity="0.76"/>
</linearGradient>
<linearGradient id="paint22_linear_1_678" x1="1029.36" y1="149.83" x2="605.411" y2="201.884" gradientUnits="userSpaceOnUse">
<stop stop-color="#F0F5FA" stop-opacity="0"/>
<stop offset="1" stop-color="#F0F5FA" stop-opacity="0.76"/>
</linearGradient>
<linearGradient id="paint23_linear_1_678" x1="541.099" y1="255.563" x2="-217.161" y2="348.665" gradientUnits="userSpaceOnUse">
<stop stop-color="#F0F5FA" stop-opacity="0"/>
<stop offset="1" stop-color="#F0F5FA" stop-opacity="0.76"/>
</linearGradient>
<linearGradient id="paint24_linear_1_678" x1="942.686" y1="408.044" x2="-289.99" y2="559.397" gradientUnits="userSpaceOnUse">
<stop stop-color="#F0F5FA" stop-opacity="0"/>
<stop offset="1" stop-color="#F0F5FA" stop-opacity="0.76"/>
</linearGradient>
<linearGradient id="paint25_linear_1_678" x1="1004" y1="215.625" x2="944.21" y2="222.967" gradientUnits="userSpaceOnUse">
<stop stop-color="#F0F5FA" stop-opacity="0"/>
<stop offset="1" stop-color="#F0F5FA" stop-opacity="0.76"/>
</linearGradient>
<linearGradient id="paint26_linear_1_678" x1="860.724" y1="218.996" x2="-3.03947" y2="325.052" gradientUnits="userSpaceOnUse">
<stop stop-color="#F0F5FA" stop-opacity="0"/>
<stop offset="1" stop-color="#F0F5FA" stop-opacity="0.76"/>
</linearGradient>
<linearGradient id="paint27_linear_1_678" x1="1000.15" y1="362.417" x2="506.798" y2="422.993" gradientUnits="userSpaceOnUse">
<stop stop-color="#F0F5FA" stop-opacity="0"/>
<stop offset="1" stop-color="#F0F5FA" stop-opacity="0.76"/>
</linearGradient>
<linearGradient id="paint28_linear_1_678" x1="1037.51" y1="210.574" x2="-268.398" y2="370.919" gradientUnits="userSpaceOnUse">
<stop stop-color="#F0F5FA" stop-opacity="0"/>
<stop offset="1" stop-color="#F0F5FA" stop-opacity="0.76"/>
</linearGradient>
<linearGradient id="paint29_linear_1_678" x1="1099.41" y1="216.259" x2="-253.92" y2="382.427" gradientUnits="userSpaceOnUse">
<stop stop-color="#F0F5FA" stop-opacity="0"/>
<stop offset="1" stop-color="#F0F5FA" stop-opacity="0.76"/>
</linearGradient>
<linearGradient id="paint30_linear_1_678" x1="1061.5" y1="353.622" x2="-281.544" y2="518.527" gradientUnits="userSpaceOnUse">
<stop stop-color="#F0F5FA" stop-opacity="0"/>
<stop offset="1" stop-color="#F0F5FA" stop-opacity="0.76"/>
</linearGradient>
<linearGradient id="paint31_linear_1_678" x1="1067.2" y1="233.5" x2="-304.7" y2="401.948" gradientUnits="userSpaceOnUse">
<stop stop-color="#F0F5FA" stop-opacity="0"/>
<stop offset="1" stop-color="#F0F5FA" stop-opacity="0.76"/>
</linearGradient>
<linearGradient id="paint32_linear_1_678" x1="1011.24" y1="346.516" x2="-302.959" y2="507.879" gradientUnits="userSpaceOnUse">
<stop stop-color="#F0F5FA" stop-opacity="0"/>
<stop offset="1" stop-color="#F0F5FA" stop-opacity="0.76"/>
</linearGradient>
<linearGradient id="paint33_linear_1_678" x1="1039.78" y1="250.152" x2="-287.22" y2="413.088" gradientUnits="userSpaceOnUse">
<stop stop-color="#F0F5FA" stop-opacity="0"/>
<stop offset="1" stop-color="#F0F5FA" stop-opacity="0.76"/>
</linearGradient>
<linearGradient id="paint34_linear_1_678" x1="1084.62" y1="324.229" x2="-291.013" y2="493.135" gradientUnits="userSpaceOnUse">
<stop stop-color="#F0F5FA" stop-opacity="0"/>
<stop offset="1" stop-color="#F0F5FA" stop-opacity="0.76"/>
</linearGradient>
<linearGradient id="paint35_linear_1_678" x1="1076.16" y1="258.971" x2="-302.784" y2="428.285" gradientUnits="userSpaceOnUse">
<stop stop-color="#F0F5FA" stop-opacity="0"/>
<stop offset="1" stop-color="#F0F5FA" stop-opacity="0.76"/>
</linearGradient>
<linearGradient id="paint36_linear_1_678" x1="1039.6" y1="276.722" x2="-277.982" y2="438.501" gradientUnits="userSpaceOnUse">
<stop stop-color="#F0F5FA" stop-opacity="0"/>
<stop offset="1" stop-color="#F0F5FA" stop-opacity="0.76"/>
</linearGradient>
<linearGradient id="paint37_linear_1_678" x1="1110.69" y1="308.171" x2="997.698" y2="322.045" gradientUnits="userSpaceOnUse">
<stop stop-color="#F0F5FA" stop-opacity="0"/>
<stop offset="1" stop-color="#F0F5FA" stop-opacity="0.76"/>
</linearGradient>
<linearGradient id="paint38_linear_1_678" x1="1094.48" y1="283.225" x2="-325.666" y2="457.598" gradientUnits="userSpaceOnUse">
<stop stop-color="#F0F5FA" stop-opacity="0"/>
<stop offset="1" stop-color="#F0F5FA" stop-opacity="0.76"/>
</linearGradient>
<linearGradient id="paint39_linear_1_678" x1="1061.73" y1="355.516" x2="772.913" y2="390.978" gradientUnits="userSpaceOnUse">
<stop stop-color="#F0F5FA" stop-opacity="0"/>
<stop offset="1" stop-color="#F0F5FA" stop-opacity="0.76"/>
</linearGradient>
<linearGradient id="paint40_linear_1_678" x1="1075.14" y1="250.667" x2="680.982" y2="299.064" gradientUnits="userSpaceOnUse">
<stop stop-color="#F0F5FA" stop-opacity="0"/>
<stop offset="1" stop-color="#F0F5FA" stop-opacity="0.76"/>
</linearGradient>
<linearGradient id="paint41_linear_1_678" x1="558.673" y1="210.877" x2="185.871" y2="256.651" gradientUnits="userSpaceOnUse">
<stop stop-color="#F0F5FA" stop-opacity="0"/>
<stop offset="1" stop-color="#F0F5FA" stop-opacity="0.76"/>
</linearGradient>
<linearGradient id="paint42_linear_1_678" x1="1075.12" y1="250.443" x2="162.113" y2="362.546" gradientUnits="userSpaceOnUse">
<stop stop-color="#F0F5FA" stop-opacity="0"/>
<stop offset="1" stop-color="#F0F5FA" stop-opacity="0.76"/>
</linearGradient>
<clipPath id="clip0_1_678">
<rect width="1525.6" height="544" fill="white" transform="matrix(-0.992546 0.121869 0.121869 0.992546 1106.14 0.719727)"/>
</clipPath>
</defs>
</svg>
