<svg width="82" height="42" viewBox="0 0 82 42" fill="none" xmlns="http://www.w3.org/2000/svg">
<path d="M1.31 37.5389C1.496 39.0459 1.683 40.5519 1.869 40.5519C2.056 40.5519 2.242 40.3439 2.429 40.3439C2.615 40.3439 2.802 40.4149 2.988 40.4659C3.175 40.5169 3.361 40.6479 3.548 40.6479C3.734 40.6479 3.921 40.5489 4.107 40.3509C4.294 40.1529 4.48 37.6139 4.667 37.6139C4.853 37.6139 5.04 40.5039 5.226 40.5039C5.413 40.5039 5.599 40.3369 5.786 40.3369C5.972 40.3369 6.158 40.7409 6.345 40.9199C6.531 41.0989 6.718 41.4099 6.904 41.4099C7.091 41.4099 7.277 41.3469 7.464 41.2219C7.65 41.0969 7.837 7.84591 8.023 7.84591C8.21 7.84591 8.396 16.7199 8.583 20.2189C8.769 23.7189 8.956 26.3069 9.142 28.8419C9.329 31.3779 9.515 33.7149 9.702 35.4309C9.888 37.1469 10.075 39.1379 10.261 39.1379C10.448 39.1379 10.634 39.1379 10.82 39.1379C11.007 39.1379 11.193 19.1559 11.38 19.1559C11.566 19.1559 11.753 32.6539 11.939 32.6539C12.126 32.6539 12.312 32.6539 12.499 32.6539C12.685 32.6539 12.872 36.7559 13.058 38.0009C13.245 39.2449 13.431 40.1199 13.618 40.1199C13.804 40.1199 13.991 40.1199 14.177 40.1199C14.364 40.1199 14.55 27.4669 14.737 27.4669C14.923 27.4669 15.11 33.9609 15.296 34.7269C15.482 35.4929 15.669 35.1589 15.855 35.8759C16.042 36.5939 16.228 38.2369 16.415 39.0329C16.601 39.8279 16.788 40.6489 16.974 40.6489C17.161 40.6489 17.347 40.6369 17.534 40.6129C17.72 40.5899 17.907 19.7599 18.093 19.7599C18.28 19.7599 18.466 32.7189 18.653 32.7189C18.839 32.7189 19.026 32.7189 19.212 32.7189C19.399 32.7189 19.585 36.2129 19.772 37.4159C19.958 38.6189 20.144 39.9389 20.331 39.9389C20.517 39.9389 20.704 39.9389 20.89 39.9389C21.077 39.9389 21.263 19.1299 21.45 19.1299C21.636 19.1299 21.823 30.4589 22.009 30.4589C22.196 30.4589 22.382 30.4589 22.569 30.4589C22.755 30.4589 22.942 35.5679 23.128 37.1009C23.315 38.6349 23.501 39.6599 23.688 39.6599C23.874 39.6599 24.061 39.6599 24.247 39.6599C24.434 39.6599 24.62 25.8089 24.807 25.8089C24.993 25.8089 25.179 32.5729 25.366 33.8779C25.552 35.1829 25.739 34.9799 25.925 35.8349C26.112 36.6909 26.298 38.2169 26.485 39.0119C26.671 39.8069 26.858 40.6049 27.044 40.6049C27.231 40.6049 27.417 40.6049 27.604 40.6049C27.79 40.6049 27.977 24.4279 28.163 24.4279C28.35 24.4279 28.536 30.4489 28.723 30.4489C28.909 30.4489 29.096 30.4489 29.282 30.4489C29.469 30.4489 29.655 35.5629 29.841 37.0969C30.028 38.6319 30.214 39.6579 30.401 39.6579C30.587 39.6579 30.774 39.6579 30.96 39.6579C31.147 39.6579 31.333 28.5139 31.52 28.5139C31.706 28.5139 31.893 35.2629 32.079 35.2629C32.266 35.2629 32.452 35.2629 32.639 35.2629C32.825 35.2629 33.012 38.3359 33.198 39.2519C33.385 40.1679 33.571 40.7609 33.758 40.7609C33.944 40.7609 34.131 40.7419 34.317 40.7029C34.503 40.6649 34.69 19.9539 34.876 19.9539C35.063 19.9539 35.249 19.9539 35.436 19.9539C35.622 19.9539 35.809 22.2839 35.995 24.0569C36.182 25.8309 36.368 28.2459 36.555 30.5949C36.741 32.9439 36.928 38.1509 37.114 38.1509C37.301 38.1509 37.487 38.1509 37.674 38.1509C37.86 38.1509 38.047 23.4229 38.233 23.4229C38.42 23.4229 38.606 34.4019 38.793 34.4019C38.979 34.4019 39.165 34.4019 39.352 34.4019C39.538 34.4019 39.725 36.3459 39.911 36.9709C40.098 37.5949 40.284 38.1499 40.471 38.1499C40.657 38.1499 40.844 38.1499 41.03 38.1499C41.217 38.1499 41.403 9.80991 41.59 9.80991C41.776 9.80991 41.963 13.5739 42.149 16.4219C42.336 19.2689 42.522 24.7689 42.709 26.8979C42.895 29.0269 43.082 29.1329 43.268 30.0919C43.455 31.0499 43.641 31.9599 43.827 32.6469C44.014 33.3329 44.2 34.2119 44.387 34.2119C44.573 34.2119 44.76 10.3629 44.946 10.3629C45.133 10.3629 45.319 16.3849 45.506 16.3849C45.692 16.3849 45.879 16.3849 46.065 16.3849C46.252 16.3849 46.438 19.5909 46.625 21.6809C46.811 23.7709 46.998 28.9249 47.184 28.9249C47.371 28.9249 47.557 28.9249 47.744 28.9249C47.93 28.9249 48.117 22.0629 48.303 22.0629C48.489 22.0629 48.676 26.2239 48.862 26.2239C49.049 26.2239 49.235 26.2239 49.422 26.2239C49.608 26.2239 49.795 31.8319 49.981 31.8319C50.168 31.8319 50.354 31.8319 50.541 31.8319C50.727 31.8319 50.914 33.5599 51.1 33.5599C51.287 33.5599 51.473 9.94591 51.66 9.94591C51.846 9.94591 52.033 14.6349 52.219 16.5299C52.406 18.4259 52.592 19.8019 52.779 21.3189C52.965 22.8349 53.151 23.5579 53.338 25.6279C53.524 27.6979 53.711 33.7379 53.897 33.7379C54.084 33.7379 54.27 33.7379 54.457 33.7379C54.643 33.7379 54.83 10.0599 55.016 10.0599C55.203 10.0599 55.389 21.4869 55.576 21.4869C55.762 21.4869 55.949 21.4869 56.135 21.4869C56.322 21.4869 56.508 24.0649 56.695 25.2839C56.881 26.5029 57.068 28.8009 57.254 28.8009C57.441 28.8009 57.627 28.8009 57.813 28.8009C58 28.8009 58.186 13.6619 58.373 13.6619C58.559 13.6619 58.746 17.0339 58.932 19.5029C59.119 21.9719 59.305 28.4759 59.492 28.4759C59.678 28.4759 59.865 28.4759 60.051 28.4759C60.238 28.4759 60.424 30.5699 60.611 31.3539C60.797 32.1369 60.984 33.1769 61.17 33.1769C61.357 33.1769 61.543 1.40991 61.73 1.40991C61.916 1.40991 62.103 15.9029 62.289 15.9029C62.476 15.9029 62.662 15.9029 62.848 15.9029C63.035 15.9029 63.221 15.9029 63.408 15.9029C63.594 15.9029 63.781 25.2269 63.967 25.2269C64.154 25.2269 64.34 25.2269 64.527 25.2269C64.713 25.2269 64.9 19.1259 65.086 19.1259C65.273 19.1259 65.459 23.8739 65.646 23.8739C65.832 23.8739 66.019 23.8739 66.205 23.8739C66.392 23.8739 66.578 28.7519 66.765 30.2329C66.951 31.7129 67.138 32.0809 67.324 32.7589C67.51 33.4379 67.697 34.3019 67.883 34.3019C68.07 34.3019 68.256 7.04991 68.443 7.04991C68.629 7.04991 68.816 12.1449 69.002 14.2139C69.189 16.2829 69.375 17.8099 69.562 19.4649C69.748 21.1209 69.935 21.8869 70.121 24.1459C70.308 26.4039 70.494 33.0149 70.681 33.0149C70.867 33.0149 71.054 33.0149 71.24 33.0149C71.427 33.0149 71.613 9.59691 71.8 9.59691C71.986 9.59691 72.172 21.1909 72.359 21.1909C72.545 21.1909 72.732 21.1909 72.918 21.1909C73.105 21.1909 73.291 26.8159 73.478 28.5149C73.664 30.2139 73.851 31.3859 74.037 31.3859C74.224 31.3859 74.41 31.3859 74.597 31.3859C74.783 31.3859 74.97 8.07591 75.156 8.07591C75.343 8.07591 75.529 12.0149 75.716 15.0339C75.902 18.0519 76.089 23.9629 76.275 26.1869C76.462 28.4109 76.648 28.5219 76.834 29.5229C77.021 30.5239 77.207 31.4709 77.394 32.1919C77.58 32.9129 77.767 33.8479 77.953 33.8479C78.14 33.8479 78.326 6.75991 78.513 6.75991C78.699 6.75991 78.886 13.9809 79.072 13.9809C79.259 13.9809 79.445 13.9809 79.632 13.9809C79.818 13.9809 80.005 18.0249 80.191 19.7579C80.378 21.4909 80.564 24.3799 80.751 24.3799C80.937 24.3799 81.124 24.3799 81.31 24.3799" stroke="#1E8723"/>
</svg>
