<svg width="82" height="42" viewBox="0 0 82 42" fill="none" xmlns="http://www.w3.org/2000/svg">
<path d="M1.31 10.7109C1.496 16.9809 1.683 23.2519 1.869 23.2519C2.056 23.2519 2.242 23.2519 2.429 23.2519C2.615 23.2519 2.802 18.8619 2.988 18.8619C3.175 18.8619 3.361 21.4959 3.548 21.4959C3.734 21.4959 3.921 21.4959 4.107 21.4959C4.294 21.4959 4.48 19.1569 4.667 18.1769C4.853 17.1969 5.04 15.6139 5.226 15.6139C5.413 15.6139 5.599 15.6139 5.786 15.6139C5.972 15.6139 6.158 25.7629 6.345 25.7629C6.531 25.7629 6.718 20.4689 6.904 20.4689C7.091 20.4689 7.277 30.9589 7.464 30.9589C7.65 30.9589 7.837 8.36891 8.023 8.36891C8.21 8.36891 8.396 8.62691 8.583 9.14491C8.769 9.66191 8.956 22.3919 9.142 22.3919C9.329 22.3919 9.515 18.1189 9.702 18.1189C9.888 18.1189 10.075 26.8919 10.261 26.8919C10.448 26.8919 10.634 26.8919 10.82 26.8919C11.007 26.8919 11.193 7.06191 11.38 7.06191C11.566 7.06191 11.753 16.7379 11.939 16.7379C12.126 16.7379 12.312 16.7379 12.499 16.7379C12.685 16.7379 12.872 26.1849 13.058 26.1849C13.245 26.1849 13.431 20.5469 13.618 20.5469C13.804 20.5469 13.991 20.5469 14.177 20.5469C14.364 20.5469 14.55 19.6419 14.737 18.8609C14.923 18.0799 15.11 15.8599 15.296 15.8599C15.482 15.8599 15.669 27.2709 15.855 27.2709C16.042 27.2709 16.228 22.8899 16.415 21.2419C16.601 19.5939 16.788 17.3839 16.974 17.3839C17.161 17.3839 17.347 28.4909 17.534 28.4909C17.72 28.4909 17.907 6.31491 18.093 6.31491C18.28 6.31491 18.466 20.8479 18.653 20.8479C18.839 20.8479 19.026 20.8479 19.212 20.8479C19.399 20.8479 19.585 17.1319 19.772 17.1319C19.958 17.1319 20.144 20.7369 20.331 20.7369C20.517 20.7369 20.704 20.7369 20.89 20.7369C21.077 20.7369 21.263 16.8559 21.45 15.7069C21.636 14.5579 21.823 13.8409 22.009 13.8409C22.196 13.8409 22.382 13.8409 22.569 13.8409C22.755 13.8409 22.942 24.7009 23.128 24.7009C23.315 24.7009 23.501 19.5969 23.688 19.5969C23.874 19.5969 24.061 19.5969 24.247 19.5969C24.434 19.5969 24.62 10.8299 24.807 10.7709C24.993 10.7119 25.179 10.6819 25.366 10.6819C25.552 10.6819 25.739 23.1789 25.925 23.1789C26.112 23.1789 26.298 18.6229 26.485 18.6229C26.671 18.6229 26.858 27.1499 27.044 27.1499C27.231 27.1499 27.417 27.1499 27.604 27.1499C27.79 27.1499 27.977 7.19491 28.163 7.19491C28.35 7.19491 28.536 17.5219 28.723 17.5219C28.909 17.5219 29.096 17.5219 29.282 17.5219C29.469 17.5219 29.655 26.5859 29.841 26.5859C30.028 26.5859 30.214 20.8039 30.401 20.8039C30.587 20.8039 30.774 20.8039 30.96 20.8039C31.147 20.8039 31.333 19.7449 31.52 18.9279C31.706 18.1109 31.893 15.9029 32.079 15.9029C32.266 15.9029 32.452 15.9029 32.639 15.9029C32.825 15.9029 33.012 21.2639 33.198 21.2639C33.385 21.2639 33.571 17.3979 33.758 17.3979C33.944 17.3979 34.131 28.5019 34.317 28.5019C34.503 28.5019 34.69 7.88691 34.876 7.88691C35.063 7.88691 35.249 7.88691 35.436 7.88691C35.622 7.88691 35.809 20.8929 35.995 20.8929C36.182 20.8929 36.368 17.1599 36.555 17.1599C36.741 17.1599 36.928 20.7459 37.114 20.7459C37.301 20.7459 37.487 20.7459 37.674 20.7459C37.86 20.7459 38.047 1.40991 38.233 1.40991C38.42 1.40991 38.606 13.8199 38.793 13.8199C38.979 13.8199 39.165 13.8199 39.352 13.8199C39.538 13.8199 39.725 25.6399 39.911 25.6399C40.098 25.6399 40.284 25.6399 40.471 25.6399C40.657 25.6399 40.844 25.6399 41.03 25.6399C41.217 25.6399 41.403 14.7759 41.59 14.7759C41.776 14.7759 41.963 14.7759 42.149 14.7759C42.336 14.7759 42.522 25.2749 42.709 25.2749C42.895 25.2749 43.082 25.2749 43.268 25.2749C43.455 25.2749 43.641 25.2749 43.827 25.2749C44.014 25.2749 44.2 34.8039 44.387 34.8039C44.573 34.8039 44.76 11.4449 44.946 11.4449C45.133 11.4449 45.319 23.7389 45.506 23.7389C45.692 23.7389 45.879 23.7389 46.065 23.7389C46.252 23.7389 46.438 23.7389 46.625 23.7389C46.811 23.7389 46.998 33.5749 47.184 33.5749C47.371 33.5749 47.557 33.5749 47.744 33.5749C47.93 33.5749 48.117 23.0659 48.303 23.0659C48.489 23.0659 48.676 23.0659 48.862 23.0659C49.049 23.0659 49.235 23.0659 49.422 23.0659C49.608 23.0659 49.795 33.0369 49.981 33.0369C50.168 33.0369 50.354 33.0369 50.541 33.0369C50.727 33.0369 50.914 41.0129 51.1 41.0129C51.287 41.0129 51.473 16.4119 51.66 16.4119C51.846 16.4119 52.033 16.4119 52.219 16.4119C52.406 16.4119 52.592 27.7129 52.779 27.7129C52.965 27.7129 53.151 27.7129 53.338 27.7129C53.524 27.7129 53.711 31.8989 53.897 31.8989C54.084 31.8989 54.27 31.8989 54.457 31.8989C54.643 31.8989 54.83 9.12091 55.016 9.12091C55.203 9.12091 55.389 21.8799 55.576 21.8799C55.762 21.8799 55.949 21.8799 56.135 21.8799C56.322 21.8799 56.508 32.0879 56.695 32.0879C56.881 32.0879 57.068 32.0879 57.254 32.0879C57.441 32.0879 57.627 32.0879 57.813 32.0879C58 32.0879 58.186 22.0009 58.373 22.0009C58.559 22.0009 58.746 22.0009 58.932 22.0009C59.119 22.0009 59.305 28.9739 59.492 28.9739C59.678 28.9739 59.865 28.9739 60.051 28.9739C60.238 28.9739 60.424 28.9739 60.611 28.9739C60.797 28.9739 60.984 37.7629 61.17 37.7629C61.357 37.7629 61.543 13.8119 61.73 13.8119C61.916 13.8119 62.103 25.6329 62.289 25.6329C62.476 25.6329 62.662 25.6329 62.848 25.6329C63.035 25.6329 63.221 25.6329 63.408 25.6329C63.594 25.6329 63.781 35.0899 63.967 35.0899C64.154 35.0899 64.34 35.0899 64.527 35.0899C64.713 35.0899 64.9 23.6869 65.086 23.6869C65.273 23.6869 65.459 23.6869 65.646 23.6869C65.832 23.6869 66.019 23.6869 66.205 23.6869C66.392 23.6869 66.578 33.5329 66.765 33.5329C66.951 33.5329 67.138 33.5329 67.324 33.5329C67.51 33.5329 67.697 41.4099 67.883 41.4099C68.07 41.4099 68.256 16.7299 68.443 16.7299C68.629 16.7299 68.816 16.7299 69.002 16.7299C69.189 16.7299 69.375 27.9669 69.562 27.9669C69.748 27.9669 69.935 27.9669 70.121 27.9669C70.308 27.9669 70.494 32.0289 70.681 32.0289C70.867 32.0289 71.054 32.0289 71.24 32.0289C71.427 32.0289 71.613 9.22491 71.8 9.22491C71.986 9.22491 72.172 21.9639 72.359 21.9639C72.545 21.9639 72.732 21.9639 72.918 21.9639C73.105 21.9639 73.291 32.1539 73.478 32.1539C73.664 32.1539 73.851 32.1539 74.037 32.1539C74.224 32.1539 74.41 32.1539 74.597 32.1539C74.783 32.1539 74.97 22.0439 75.156 22.0439C75.343 22.0439 75.529 22.0439 75.716 22.0439C75.902 22.0439 76.089 28.9959 76.275 28.9959C76.462 28.9959 76.648 28.9959 76.834 28.9959C77.021 28.9959 77.207 28.9959 77.394 28.9959C77.58 28.9959 77.767 37.7809 77.953 37.7809C78.14 37.7809 78.326 13.8259 78.513 13.8259C78.699 13.8259 78.886 13.8259 79.072 13.8259C79.259 13.8259 79.445 13.8259 79.632 13.8259C79.818 13.8259 80.005 13.8259 80.191 13.8259C80.378 13.8259 80.564 13.8259 80.751 13.8259C80.937 13.8259 81.124 13.8259 81.31 13.8259" stroke="#B30021"/>
</svg>
