<svg width="141" height="35" viewBox="0 0 141 35" fill="none" xmlns="http://www.w3.org/2000/svg">
<g clip-path="url(#clip0_1_829)">
<path fill-rule="evenodd" clip-rule="evenodd" d="M1.10222 1.75855C0.734161 2.15394 0.522614 2.7625 0.522614 3.55329V31.6811C0.522614 32.4719 0.734161 33.0805 1.11598 33.4621L1.21573 33.5463L16.9837 17.7857V17.4315L1.20197 1.67432L1.10222 1.75855Z" fill="url(#paint0_linear_1_829)"/>
<path fill-rule="evenodd" clip-rule="evenodd" d="M22.2294 23.0596L16.97 17.8009V17.433L22.2311 12.1743L22.3446 12.2448L28.5672 15.7793C30.349 16.7832 30.349 18.437 28.5672 19.4547L22.3446 22.9891C22.3429 22.9891 22.2294 23.0596 22.2294 23.0596Z" fill="url(#paint1_linear_1_829)"/>
<path fill-rule="evenodd" clip-rule="evenodd" d="M22.3429 22.9894L16.97 17.6172L1.10222 33.4776C1.68182 34.0999 2.657 34.1704 3.74742 33.5618L22.3429 22.9894Z" fill="url(#paint2_linear_1_829)"/>
<path fill-rule="evenodd" clip-rule="evenodd" d="M22.3429 12.2467L3.74742 1.68798C2.65872 1.06567 1.68182 1.1499 1.10222 1.77221L16.9683 17.6171L22.3429 12.2467Z" fill="url(#paint3_linear_1_829)"/>
<path opacity="0.2" fill-rule="evenodd" clip-rule="evenodd" d="M22.2294 22.8755L3.76118 33.3637C2.72924 33.9568 1.8091 33.9155 1.21574 33.3774L1.11598 33.4771L1.21574 33.5614C1.8091 34.0977 2.72924 34.1407 3.76118 33.5476L22.3567 22.9889L22.2294 22.8755Z" fill="black"/>
<path opacity="0.12" fill-rule="evenodd" clip-rule="evenodd" d="M28.5655 19.271L22.2157 22.8759L22.3292 22.9894L28.5517 19.4549C29.4427 18.946 29.8812 18.2825 29.8812 17.6172C29.8245 18.2257 29.3721 18.8051 28.5655 19.271Z" fill="black"/>
<path opacity="0.25" fill-rule="evenodd" clip-rule="evenodd" d="M3.74742 1.87164L28.5655 15.9648C29.3721 16.4169 29.8245 17.01 29.895 17.6186C29.895 16.955 29.4564 16.2897 28.5655 15.7808L3.74742 1.6877C1.96561 0.669994 0.522614 1.51751 0.522614 3.55292V3.73686C0.522614 1.70145 1.96561 0.86769 3.74742 1.87164Z" fill="white"/>
<path fill-rule="evenodd" clip-rule="evenodd" d="M35.9525 16.7246C35.9525 12.2188 39.7414 8.55029 44.2492 8.55029C46.7414 8.55029 48.5146 9.52846 49.8527 10.8023L48.2772 12.377C47.321 11.4796 46.0242 10.7834 44.2475 10.7834C40.9556 10.7834 38.3827 13.4325 38.3827 16.7229C38.3827 20.0132 40.9556 22.6658 44.2458 22.6658C46.3802 22.6658 47.5944 21.8097 48.3735 21.0292C49.0116 20.3914 49.4296 19.4751 49.5912 18.2185H44.2492V15.9905H51.7686C51.8477 16.3894 51.889 16.8673 51.889 17.3847C51.889 19.0574 51.4298 21.1323 49.9524 22.609C48.5146 24.1047 46.6812 24.9023 44.2475 24.9023C39.7379 24.9023 35.949 21.2372 35.949 16.728L35.9525 16.7246ZM57.9671 14.3729C55.0553 14.3729 52.6784 16.5871 52.6784 19.635C52.6784 22.6675 55.0536 24.8972 57.9671 24.8972C60.8806 24.8972 63.2524 22.6641 63.2524 19.6333C63.2524 16.5853 60.8789 14.3711 57.9671 14.3729ZM57.9671 22.8274C56.3728 22.8274 54.9951 21.5123 54.9951 19.6367C54.9951 17.7423 56.3711 16.4461 57.9671 16.4461C59.5615 16.4461 60.9374 17.7406 60.9374 19.6367C60.9374 21.5105 59.5632 22.8274 57.9671 22.8274ZM69.499 14.3729C66.5872 14.3729 64.2138 16.5871 64.2138 19.635C64.2138 22.6675 66.5872 24.8972 69.499 24.8972C72.4108 24.8972 74.7843 22.6641 74.7843 19.6333C74.7843 16.5853 72.4125 14.3711 69.499 14.3729ZM69.499 22.8274C67.9047 22.8274 66.527 21.5123 66.527 19.6367C66.527 17.7423 67.903 16.4461 69.499 16.4461C71.0934 16.4461 72.471 17.7406 72.471 19.6367C72.471 21.5105 71.0934 22.8274 69.499 22.8274ZM83.652 14.6926V15.5487H83.5729C83.0552 14.9281 82.0577 14.3711 80.8022 14.3711C78.169 14.3711 75.7526 16.6851 75.7526 19.6574C75.7526 22.6056 78.1673 24.9006 80.8022 24.9006C82.0577 24.9006 83.0552 24.3436 83.5729 23.7058H83.652V24.4622C83.652 26.4753 82.5754 27.5532 80.84 27.5532C79.4228 27.5532 78.5457 26.5355 78.1862 25.6811L76.1705 26.5183C76.7484 27.9125 78.286 29.6281 80.8383 29.6281C83.5488 29.6281 85.8432 28.0311 85.8432 24.1442V14.6909L83.652 14.6926ZM81 22.8274C79.4056 22.8274 78.0658 21.4899 78.0658 19.6574C78.0658 17.8042 79.4039 16.4478 81 16.4478C82.5754 16.4478 83.812 17.8025 83.812 19.6574C83.8137 21.4899 82.5771 22.8274 81 22.8274ZM87.441 9.109H89.7559V24.5809H87.441V9.109ZM96.1006 22.8274C94.9242 22.8274 94.0849 22.2876 93.55 21.2338L100.591 18.3199L100.349 17.7217C99.9119 16.5475 98.5739 14.3729 95.8409 14.3729C93.1287 14.3729 90.8739 16.5063 90.8739 19.6367C90.8739 22.585 93.108 24.8989 96.1006 24.8989C98.5154 24.8989 99.9119 23.4256 100.49 22.5661L98.6942 21.3713C98.094 22.2498 97.2753 22.8291 96.1006 22.8274ZM95.9201 16.4066C96.8368 16.4066 97.6141 16.8656 97.8738 17.5222L93.1648 19.4769C93.1063 17.4432 94.7419 16.4066 95.9201 16.4066ZM110.749 9.109H105.214V24.5809H107.524V18.7205H110.751C113.312 18.7205 115.83 16.8673 115.83 13.9139C115.83 10.9656 113.313 9.11072 110.754 9.11072L110.749 9.109ZM110.809 16.5664H107.524V11.2613H110.809C112.536 11.2613 113.52 12.6933 113.52 13.9139C113.52 15.1138 112.536 16.5664 110.809 16.5664ZM119.412 24.5809V9.109H117.102V24.5809H119.412ZM129.788 24.5533V18.6225C129.788 15.8754 127.735 14.3436 125.084 14.3436C123.414 14.3436 121.682 15.0811 120.965 16.7126L123.015 17.5669C123.454 16.7126 124.269 16.4323 125.127 16.4323C126.321 16.4323 127.535 17.1492 127.554 18.4248V18.5847C127.136 18.3457 126.242 17.9864 125.145 17.9864C122.934 17.9864 120.685 19.2001 120.685 21.4693C120.685 23.5408 122.498 24.8731 124.529 24.8731C126.084 24.8731 126.938 24.1769 127.475 23.362H127.554V24.5568H129.787L129.788 24.5533ZM124.809 22.8239C124.052 22.8239 122.996 22.4457 122.996 21.5123C122.996 20.3175 124.312 19.8568 125.447 19.8568C126.464 19.8568 126.94 20.0751 127.559 20.3742C127.382 21.7633 126.207 22.8067 124.809 22.8239ZM137.911 14.6823L135.263 21.3885H135.184L132.435 14.6823H129.946L134.067 24.0582L131.716 29.2723H134.126L140.477 14.6823H137.911Z" fill="#808285"/>
</g>
<defs>
<linearGradient id="paint0_linear_1_829" x1="15.5678" y1="3.25094" x2="-9.68822" y2="9.98357" gradientUnits="userSpaceOnUse">
<stop stop-color="#00A0FF"/>
<stop offset="0.007" stop-color="#00A1FF"/>
<stop offset="0.26" stop-color="#00BEFF"/>
<stop offset="0.512" stop-color="#00D2FF"/>
<stop offset="0.76" stop-color="#00DFFF"/>
<stop offset="1" stop-color="#00E3FF"/>
</linearGradient>
<linearGradient id="paint1_linear_1_829" x1="30.8858" y1="17.6177" x2="0.0895585" y2="17.6177" gradientUnits="userSpaceOnUse">
<stop stop-color="#FFE000"/>
<stop offset="0.409" stop-color="#FFBD00"/>
<stop offset="0.775" stop-color="#FFA500"/>
<stop offset="1" stop-color="#FF9C00"/>
</linearGradient>
<linearGradient id="paint2_linear_1_829" x1="19.4213" y1="20.5397" x2="-0.841689" y2="54.6594" gradientUnits="userSpaceOnUse">
<stop stop-color="#FF3A44"/>
<stop offset="1" stop-color="#C31162"/>
</linearGradient>
<linearGradient id="paint3_linear_1_829" x1="-2.89209" y1="-7.59824" x2="6.14783" y2="7.64019" gradientUnits="userSpaceOnUse">
<stop stop-color="#32A071"/>
<stop offset="0.069" stop-color="#2DA771"/>
<stop offset="0.476" stop-color="#15CF74"/>
<stop offset="0.801" stop-color="#06E775"/>
<stop offset="1" stop-color="#00F076"/>
</linearGradient>
<clipPath id="clip0_1_829">
<rect width="140" height="33.5" fill="white" transform="translate(0.5 0.669922)"/>
</clipPath>
</defs>
</svg>
