<svg width="35" height="36" viewBox="0 0 35 36" fill="none" xmlns="http://www.w3.org/2000/svg">
<path fill-rule="evenodd" clip-rule="evenodd" d="M23.2375 25.8899L16.25 18.9024V7.13989H18.75V17.8649L25 24.1274L23.2375 25.8899ZM17.5 0.889893C12.79 0.890559 8.2808 2.79793 5 6.17739V0.889893H2.5V10.8899H12.5V8.38989H6.35C11.1887 3.01293 19.1757 1.85519 25.342 5.63694C31.5083 9.41869 34.0973 17.0626 31.4983 23.8131C28.8993 30.5637 21.8528 34.4979 14.7425 33.1681C7.63215 31.8384 2.48367 25.6236 2.5 18.3899H0C0 28.0549 7.83502 35.8899 17.5 35.8899C27.165 35.8899 35 28.0549 35 18.3899C35 8.72491 27.165 0.889893 17.5 0.889893Z" fill="#0A146E"/>
</svg>
