<svg width="33" height="33" viewBox="0 0 33 33" fill="none" xmlns="http://www.w3.org/2000/svg">
<g clip-path="url(#clip0_1_1012)">
<path d="M27.3336 6.81008C27.2241 6.81008 27.1157 6.78852 27.0146 6.74663C26.9135 6.70473 26.8216 6.64333 26.7442 6.56593C26.6668 6.48852 26.6054 6.39662 26.5635 6.29549C26.5216 6.19435 26.5 6.08595 26.5 5.97648C26.5 5.86701 26.5216 5.75861 26.5635 5.65748C26.6054 5.55634 26.6668 5.46444 26.7442 5.38704C26.8216 5.30963 26.9135 5.24823 27.0146 5.20634C27.1157 5.16444 27.2241 5.14288 27.3336 5.14288C27.5547 5.14288 27.7667 5.23071 27.923 5.38704C28.0794 5.54337 28.1672 5.7554 28.1672 5.97648C28.1672 6.19757 28.0794 6.4096 27.923 6.56593C27.7667 6.72226 27.5547 6.81008 27.3336 6.81008ZM29.5936 7.61968C31.4903 10.3085 32.5059 13.5196 32.5 16.8101C32.5 25.6325 25.3224 32.8101 16.5 32.8101C7.6776 32.8101 0.5 25.6325 0.5 16.8101C0.5 7.98768 7.6776 0.810081 16.5 0.810081C19.7905 0.804566 23.0017 1.82035 25.6904 3.71728C25.8315 3.82034 25.9265 3.97471 25.9549 4.14713C25.9833 4.31954 25.9429 4.49622 25.8423 4.6391C25.7417 4.78198 25.589 4.87963 25.4171 4.91101C25.2451 4.94239 25.0678 4.905 24.9232 4.80688C22.4587 3.0689 19.5157 2.13839 16.5 2.14368C8.412 2.14368 1.8336 8.72288 1.8336 16.8101C1.8336 24.8981 8.412 31.4773 16.5 31.4773C24.588 31.4773 31.1664 24.8973 31.1664 16.8101C31.1718 13.794 30.241 10.8506 28.5024 8.38608C28.4008 8.24138 28.3608 8.06223 28.3912 7.88805C28.4217 7.71386 28.5201 7.55891 28.6648 7.45728C28.8095 7.35565 28.9887 7.31566 29.1628 7.34612C29.337 7.37658 29.492 7.47498 29.5936 7.61968Z" fill="white"/>
<path d="M20.6584 18.0924L21.1144 14.5404H17.596V12.2724C17.596 11.2444 17.8784 10.5412 19.3544 10.5412H21.244V7.36196C20.3283 7.26073 19.4077 7.20999 18.4864 7.20996C15.776 7.20996 13.9208 8.86516 13.9208 11.906V14.5276H10.9V18.0796H13.9344V27.21H17.6032V18.0924H20.6584Z" fill="white"/>
</g>
<defs>
<clipPath id="clip0_1_1012">
<rect width="32" height="32" fill="white" transform="translate(0.5 0.810059)"/>
</clipPath>
</defs>
</svg>
