<svg width="16" height="17" viewBox="0 0 16 17" fill="none" xmlns="http://www.w3.org/2000/svg">
<g clip-path="url(#clip0_1_310)">
<path fill-rule="evenodd" clip-rule="evenodd" d="M8.571 11.929V6.786H6.286V7.929H7.429V11.929H5.714V13.071H10.286V11.93H8.57L8.571 11.929ZM8 3.357C7.88746 3.357 7.77602 3.37917 7.67204 3.42224C7.56806 3.4653 7.47359 3.52843 7.39401 3.60801C7.31443 3.68759 7.2513 3.78206 7.20824 3.88604C7.16517 3.99002 7.143 4.10146 7.143 4.214C7.143 4.32654 7.16517 4.43798 7.20824 4.54196C7.2513 4.64594 7.31443 4.74041 7.39401 4.81999C7.47359 4.89957 7.56806 4.9627 7.67204 5.00576C7.77602 5.04883 7.88746 5.071 8 5.071C8.22729 5.071 8.44527 4.98071 8.60599 4.81999C8.76671 4.65927 8.857 4.44129 8.857 4.214C8.857 3.98671 8.76671 3.76873 8.60599 3.60801C8.44527 3.44729 8.22729 3.357 8 3.357ZM8 16.5C5.87827 16.5 3.84344 15.6571 2.34315 14.1569C0.842855 12.6566 0 10.6217 0 8.5C0 6.37827 0.842855 4.34344 2.34315 2.84315C3.84344 1.34285 5.87827 0.5 8 0.5C10.1217 0.5 12.1566 1.34285 13.6569 2.84315C15.1571 4.34344 16 6.37827 16 8.5C16 10.6217 15.1571 12.6566 13.6569 14.1569C12.1566 15.6571 10.1217 16.5 8 16.5ZM8 1.643C6.18141 1.643 4.43731 2.36543 3.15137 3.65137C1.86543 4.93731 1.143 6.68141 1.143 8.5C1.143 10.3186 1.86543 12.0627 3.15137 13.3486C4.43731 14.6346 6.18141 15.357 8 15.357C9.81859 15.357 11.5627 14.6346 12.8486 13.3486C14.1346 12.0627 14.857 10.3186 14.857 8.5C14.857 6.68141 14.1346 4.93731 12.8486 3.65137C11.5627 2.36543 9.81859 1.643 8 1.643Z" fill="#5C667B"/>
</g>
<defs>
<clipPath id="clip0_1_310">
<rect width="16" height="16" fill="white" transform="translate(0 0.5)"/>
</clipPath>
</defs>
</svg>
