<svg width="81" height="81" viewBox="0 0 81 81" fill="none" xmlns="http://www.w3.org/2000/svg">
<g clip-path="url(#clip0_1_320)">
<path d="M41.4867 75.5166C61.0007 75.5166 76.82 59.6974 76.82 40.1833C76.82 20.6692 61.0007 4.84998 41.4867 4.84998C21.9726 4.84998 6.15332 20.6692 6.15332 40.1833C6.15332 59.6974 21.9726 75.5166 41.4867 75.5166Z" stroke="#0A146E" stroke-width="0.238" stroke-miterlimit="10" stroke-dasharray="1.43 1.43"/>
<path d="M19.38 2.37H4.26001V13.7033H19.38V2.37Z" fill="#C8D2E6"/>
<path d="M17.4867 5.38336H6.15332V6.13003H17.4867V5.38336Z" fill="white"/>
<path d="M17.4867 7.65002H6.15332V8.39669H17.4867V7.65002Z" fill="white"/>
<path d="M17.4867 9.91669H6.15332V10.6634H17.4867V9.91669Z" fill="white"/>
<path d="M25.8067 8.23669H10.6867V19.57H25.8067V8.23669Z" fill="#003CBE"/>
<path d="M23.9133 11.25H12.58V11.9967H23.9133V11.25Z" fill="white"/>
<path d="M23.9133 13.5167H12.58V14.2633H23.9133V13.5167Z" fill="white"/>
<path d="M23.9133 15.7833H12.58V16.53H23.9133V15.7833Z" fill="white"/>
<path d="M18.2333 60.5833H3.11334V71.9166H18.2333V60.5833Z" fill="#C8D2E6"/>
<path d="M16.34 63.6234H5.00665V64.37H16.34V63.6234Z" fill="white"/>
<path d="M16.34 65.89H5.00665V66.6367H16.34V65.89Z" fill="white"/>
<path d="M16.34 68.1567H5.00665V68.9033H16.34V68.1567Z" fill="white"/>
<path d="M77.8867 63.33H56.2333V79.57H77.8867V63.33Z" fill="#003CBE"/>
<path d="M75.1667 67.65H58.9267V68.7434H75.1667V67.65Z" fill="white"/>
<path d="M75.1667 70.9033H58.9267V71.9967H75.1667V70.9033Z" fill="white"/>
<path d="M75.1667 74.1567H58.9267V75.25H75.1667V74.1567Z" fill="white"/>
<path d="M61.78 55.6234H20.5533V24.7433H61.78V55.6234ZM20.98 25.17V55.1967H61.3533V25.17H20.98Z" fill="#E6E6E6"/>
<path d="M41.1576 48.0852C45.4875 48.0852 48.9976 44.5751 48.9976 40.2452C48.9976 35.9153 45.4875 32.4052 41.1576 32.4052C36.8277 32.4052 33.3176 35.9153 33.3176 40.2452C33.3176 44.5751 36.8277 48.0852 41.1576 48.0852Z" fill="#0A146E"/>
<path d="M44.4109 39.5785H41.7443V36.9119C41.7443 36.5652 41.4509 36.2719 41.1043 36.2719C40.7576 36.2719 40.4643 36.5652 40.4643 36.9119V39.5785H37.7976C37.4509 39.5785 37.1576 39.8719 37.1576 40.2185C37.1576 40.5652 37.4509 40.8585 37.7976 40.8585H40.4643V43.5252C40.4643 43.8719 40.7576 44.1652 41.1043 44.1652C41.4509 44.1652 41.7443 43.8719 41.7443 43.5252V40.8585H44.4109C44.7576 40.8585 45.0509 40.5652 45.0509 40.2185C45.0509 39.8719 44.7576 39.5785 44.4109 39.5785Z" fill="white"/>
</g>
<defs>
<clipPath id="clip0_1_320">
<rect width="80" height="80" fill="white" transform="translate(0.5 0.690002)"/>
</clipPath>
</defs>
</svg>
