<svg width="81" height="81" viewBox="0 0 81 81" fill="none" xmlns="http://www.w3.org/2000/svg">
<path d="M42.4692 73.7977C60.7541 73.7977 75.5769 58.9749 75.5769 40.69C75.5769 22.4052 60.7541 7.58234 42.4692 7.58234C24.1844 7.58234 9.36154 22.4052 9.36154 40.69C9.36154 58.9749 24.1844 73.7977 42.4692 73.7977Z" stroke="#0A146E" stroke-width="0.222892" stroke-miterlimit="10" stroke-dasharray="1.34 1.34"/>
<path d="M22.4077 2.22845H62.5923C63.5154 2.22845 64.2538 2.96692 64.2538 3.82845V77.6131C64.2538 78.5361 63.5154 79.2131 62.5923 79.2131H22.4077C21.4846 79.2131 20.7462 78.4746 20.7462 77.6131V3.82845C20.7462 2.90538 21.4846 2.22845 22.4077 2.22845Z" fill="#E6EBF5"/>
<path d="M24.1923 3.58234H60.8077C61.7923 3.58234 62.5308 4.38234 62.5308 5.36695V75.09C62.5308 76.0746 61.7308 76.8746 60.8077 76.8746H24.1923C23.2077 76.8746 22.4692 76.0746 22.4692 75.09V5.36695C22.4077 4.38234 23.2077 3.58234 24.1923 3.58234Z" fill="white"/>
<path d="M52.5615 6.22845C52.3154 7.82845 50.9615 8.99769 49.3615 8.99769H35.5154C33.9154 8.99769 32.5615 7.82845 32.3154 6.22845H24.9308C24.0692 6.22845 23.3923 6.90538 23.3923 7.76692V74.1669C23.3923 75.0285 24.0692 75.7054 24.9308 75.7054H60.0077C60.8692 75.7054 61.5462 75.0285 61.5462 74.1669V7.76692C61.5462 6.90538 60.8692 6.22845 60.0077 6.22845H52.5615Z" fill="#0A146E"/>
<path d="M38.2846 6.47461H46.7154C46.8385 6.47461 46.9615 6.59769 46.9615 6.72076V6.7823C46.9615 6.90538 46.8385 7.02846 46.7154 7.02846H38.2846C38.1615 7.02846 38.0385 6.90538 38.0385 6.7823V6.72076C38.0385 6.59769 38.1 6.47461 38.2846 6.47461Z" fill="#0A146E"/>
<path d="M42.4692 7.02847C42.6392 7.02847 42.7769 6.89071 42.7769 6.72078C42.7769 6.55084 42.6392 6.41309 42.4692 6.41309C42.2993 6.41309 42.1615 6.55084 42.1615 6.72078C42.1615 6.89071 42.2993 7.02847 42.4692 7.02847Z" fill="#0A146E"/>
<path d="M55.2077 46.8438H30.4077C29.7923 46.8438 29.3615 46.7208 29.3615 46.5362V41.2438C29.3615 41.0592 29.8538 40.9362 30.4077 40.9362H55.2692C55.8846 40.9362 56.3154 41.0592 56.3154 41.2438V46.5362C56.3154 46.7208 55.8231 46.8438 55.2077 46.8438Z" fill="#E6EBF5"/>
<path d="M55.2077 56.2593H30.4077C29.7923 56.2593 29.3615 56.1362 29.3615 55.9516V50.6593C29.3615 50.4746 29.8538 50.3516 30.4077 50.3516H55.2692C55.8846 50.3516 56.3154 50.4746 56.3154 50.6593V55.9516C56.3154 56.0746 55.8231 56.2593 55.2077 56.2593Z" fill="#E6EBF5"/>
<path d="M55.2077 65.3054H30.4077C29.7923 65.3054 29.3615 65.1823 29.3615 64.9977V59.7054C29.3615 59.5208 29.8538 59.3977 30.4077 59.3977H55.2692C55.8846 59.3977 56.3154 59.5208 56.3154 59.7054V64.9977C56.3154 65.1823 55.8231 65.3054 55.2077 65.3054Z" fill="#E6EBF5"/>
<path d="M42.8385 19.5823C46.5923 19.5823 49.6077 22.7208 49.6077 26.5977C49.6077 30.4746 46.5923 33.6131 42.8385 33.6131C39.0846 33.6131 36.0692 30.4746 36.0692 26.5977C36.0692 22.7208 39.0846 19.5823 42.8385 19.5823ZM41.7923 30.7208L47.1462 23.3977C47.3308 23.1516 47.2692 22.7823 47.0231 22.5977C46.7769 22.4131 46.4077 22.4746 46.2231 22.7208L41.2385 29.49L39.1462 27.09C38.9616 26.8439 38.5923 26.8439 38.3462 27.0285C38.1 27.2131 38.1 27.5823 38.2846 27.8285L40.8077 30.7208C40.9308 30.8439 41.0539 30.9054 41.2385 30.9054H41.3C41.5462 30.9054 41.6692 30.8439 41.7923 30.7208Z" fill="white"/>
</svg>
