<svg width="90" height="91" viewBox="0 0 90 91" fill="none" xmlns="http://www.w3.org/2000/svg">
<path d="M51.9414 12.9428L51.9999 12.7673C52.4574 11.3972 53.9382 10.6573 55.3083 11.1149C56.6775 11.5722 57.4176 13.0515 56.962 14.4234L56.9039 14.5974C64.9863 18.6306 69.0798 28.0981 66.1407 36.9141L63.9205 43.5748C61.1208 51.974 60.3148 60.9102 61.5673 69.6726L62.1008 73.4069C62.2382 74.3692 61.315 75.1397 60.3928 74.8323L30.4945 64.8648C29.8094 64.6365 29.4392 63.896 29.6676 63.2109C29.8959 62.5258 30.6364 62.1556 31.3215 62.384L59.2127 71.6823L58.9785 70.0425C57.6685 60.8783 58.5115 51.5322 61.4396 42.7478L63.6599 36.0871C66.4206 27.8062 61.9506 18.8553 53.6753 16.0836C53.6681 16.0813 53.6609 16.0789 53.6537 16.0765C45.3647 13.3119 36.4048 17.7893 33.6404 26.0777L31.4189 32.7369C28.49 41.5211 23.5557 49.5022 17.0075 56.0478L15.8354 57.2193L19.0085 58.2773C19.6936 58.5057 20.0638 59.2462 19.8354 59.9312C19.6069 60.6163 18.8664 60.9865 18.1814 60.7581L13.0009 59.0308C12.0787 58.7233 11.8025 57.5528 12.4901 56.8656L15.1588 54.1982C21.4198 47.9398 26.1376 40.3087 28.9382 31.9095L31.1597 25.2503C34.1001 16.4341 43.0559 11.3181 51.9414 12.9428ZM40.4175 72.3079C40.6459 71.6228 41.3864 71.2526 42.0715 71.481C42.7565 71.7093 43.1268 72.4498 42.8984 73.1349C42.4416 74.5054 43.1816 75.9865 44.5513 76.4433C45.9215 76.9009 47.4025 76.1611 47.8603 74.7903C48.0891 74.1053 48.8298 73.7355 49.5147 73.9642C50.1997 74.193 50.5695 74.9337 50.3408 75.6186C49.4255 78.3591 46.4632 79.8389 43.7234 78.9239C40.9841 78.0102 39.5041 75.0482 40.4175 72.3079ZM24.094 17.7255C24.7142 17.3555 25.5169 17.5583 25.8869 18.1785C26.2568 18.7986 26.054 19.6013 25.4339 19.9713C21.6059 22.255 18.7048 25.8165 17.2647 30.1355C15.8263 34.4497 16.009 39.0372 17.6972 43.1596C17.9709 43.8279 17.651 44.5915 16.9827 44.8652C16.3144 45.1388 15.5508 44.819 15.2772 44.1507C13.3539 39.4544 13.1455 34.222 14.7839 29.3084C16.424 24.3895 19.7329 20.3272 24.094 17.7255ZM26.227 22.6122C26.8342 22.2215 27.6433 22.397 28.0341 23.0043C28.4248 23.6116 28.2493 24.4206 27.642 24.8114C25.1112 26.4398 23.1996 28.8719 22.2269 31.7887C21.2543 34.7077 21.3247 37.8005 22.373 40.6234C22.6244 41.3004 22.2794 42.053 21.6025 42.3044C20.9255 42.5558 20.1729 42.2108 19.9215 41.5338C18.6675 38.1571 18.5832 34.4516 19.746 30.9617C20.909 27.4741 23.1993 24.5603 26.227 22.6122ZM73.8889 36.1274C73.615 35.4592 73.9347 34.6955 74.6029 34.4217C75.2711 34.1478 76.0347 34.4674 76.3086 35.1356C78.2348 39.8349 78.4443 45.0714 76.8046 49.9891C75.1648 54.9028 71.8593 58.9611 67.503 61.5634C66.8831 61.9338 66.0803 61.7314 65.7099 61.1115C65.3396 60.4915 65.5419 59.6888 66.1619 59.3184C69.986 57.034 72.8842 53.4758 74.3238 49.1616C75.7634 44.844 75.5798 40.2527 73.8889 36.1274ZM69.218 38.6739C68.9668 37.9968 69.3121 37.2444 69.9892 36.9932C70.6662 36.7421 71.4187 37.0874 71.6698 37.7644C72.9227 41.1422 73.0063 44.8463 71.8426 48.3333C70.6794 51.8227 68.3874 54.7369 65.3568 56.6835C64.7492 57.0738 63.9403 56.8976 63.55 56.2901C63.1597 55.6825 63.3359 54.8735 63.9435 54.4832C66.4763 52.8563 68.3889 50.4245 69.3618 47.5059C70.3352 44.5892 70.2655 41.4979 69.218 38.6739Z" fill="#0A146E"/>
<path fill-rule="evenodd" clip-rule="evenodd" d="M25.3261 61.7636C24.9835 62.7913 23.8721 63.347 22.8457 63.0045C21.8179 62.6606 21.2622 61.5505 21.6048 60.5227C21.9474 59.495 23.0588 58.9406 24.0852 59.2832C25.1129 59.6258 25.6687 60.7359 25.3261 61.7636Z" fill="#0A146E"/>
</svg>
