<svg width="76" height="76" viewBox="0 0 76 76" fill="none" xmlns="http://www.w3.org/2000/svg">
<rect width="76" height="76" fill="white"/>
<path fill-rule="evenodd" clip-rule="evenodd" d="M33.1209 9.62066C34.4926 8.53993 36.1506 8 37.8106 8C39.4706 8 41.1313 8.53993 42.503 9.62066L61.8324 24.8527C62.1695 25.1187 62.4154 25.4831 62.536 25.8953C62.6565 26.3075 62.6458 26.747 62.5052 27.1527C62.3646 27.5585 62.1012 27.9105 61.7514 28.1597C61.4017 28.4089 60.9831 28.5431 60.5536 28.5436H15.0675C14.6381 28.5431 14.2195 28.4089 13.8697 28.1597C13.52 27.9105 13.2566 27.5585 13.116 27.1528C12.9754 26.747 12.9647 26.3075 13.0852 25.8953C13.2058 25.4831 13.4517 25.1187 13.7888 24.8527L33.1209 9.62066ZM40.5673 18.895C40.5673 17.3719 39.3337 16.1383 37.8106 16.1383C36.2875 16.1383 35.0539 17.3719 35.0539 18.895C35.0539 20.4181 36.2875 21.6517 37.8106 21.6517C39.3337 21.6517 40.5673 20.4181 40.5673 18.895ZM17.8243 51.9758V31.3003H21.9594V51.9758H26.7837V31.3003H30.9188V51.9758H35.743V31.3003H39.8781V51.9758H44.7024V31.3003H48.8375V51.9758H51.022C51.3932 52.6468 51.859 53.2687 52.4109 53.8206C52.8034 54.2131 53.2314 54.5621 53.6872 54.8645H52.0562C48.6303 54.8645 45.8535 57.6413 45.8535 61.0671V61.6244H17.8243C15.164 61.6244 13 59.4603 13 56.8001C13 54.1398 15.164 51.9758 17.8243 51.9758ZM55.7294 56.932V61.6244H47.9211V61.0671C47.9211 58.7832 49.7722 56.932 52.0562 56.932H55.7294ZM57.7969 39.7153V31.3003H53.6618V41.0977C54.8859 40.2793 56.313 39.7983 57.7969 39.7153ZM53.6618 43.8085C53.7302 43.733 53.8005 43.659 53.8729 43.5867C54.9267 42.5328 56.3208 41.8974 57.7969 41.7872V47.9726H53.6618V43.8085ZM53.5209 51.9758H55.7294V53.6361C55.0442 53.3301 54.4137 52.8994 53.8729 52.3586C53.7498 52.2355 53.6324 52.1078 53.5209 51.9758Z" fill="url(#paint0_linear_1995_18840)"/>
<path d="M58.2596 41.7695C56.6146 41.7695 55.0369 42.423 53.8737 43.5862C52.7105 44.7495 52.057 46.3271 52.057 47.9722C52.057 49.6172 52.7105 51.1949 53.8737 52.3581C55.0369 53.5213 56.6146 54.1748 58.2596 54.1748C59.9047 54.1748 61.4823 53.5213 62.6456 52.3581C63.8088 51.1949 64.4623 49.6172 64.4623 47.9722C64.4623 46.3271 63.8088 44.7495 62.6456 43.5862C61.4823 42.423 59.9047 41.7695 58.2596 41.7695ZM52.057 56.9316C49.773 56.9316 47.9219 58.7827 47.9219 61.0667V63.8234C47.9219 67.6291 52.5504 70.7152 58.2596 70.7152C63.9688 70.7152 68.5974 67.6291 68.5974 63.8234V61.0667C68.5974 58.7827 66.7462 56.9316 64.4623 56.9316H52.057Z" fill="url(#paint1_linear_1995_18840)"/>
<defs>
<linearGradient id="paint0_linear_1995_18840" x1="9.51388" y1="23.3213" x2="60.4627" y2="23.1484" gradientUnits="userSpaceOnUse">
<stop stop-color="#438FFE"/>
<stop offset="0.117896" stop-color="#438FFE"/>
<stop offset="0.213837" stop-color="#428EFE"/>
<stop offset="0.2912" stop-color="#428CFE"/>
<stop offset="0.353363" stop-color="#418AFE"/>
<stop offset="0.403704" stop-color="#4088FE"/>
<stop offset="0.4456" stop-color="#3E85FE"/>
<stop offset="0.48243" stop-color="#3D82FE"/>
<stop offset="0.51757" stop-color="#3B7FFE"/>
<stop offset="0.5544" stop-color="#3A7BFE"/>
<stop offset="0.596296" stop-color="#3878FF"/>
<stop offset="0.646637" stop-color="#3674FF"/>
<stop offset="0.7088" stop-color="#3571FF"/>
<stop offset="0.786163" stop-color="#336DFF"/>
<stop offset="0.882104" stop-color="#316AFF"/>
<stop offset="1" stop-color="#3067FF"/>
</linearGradient>
<linearGradient id="paint1_linear_1995_18840" x1="46.4693" y1="50.0397" x2="67.6989" y2="49.9841" gradientUnits="userSpaceOnUse">
<stop stop-color="#438FFE"/>
<stop offset="0.117896" stop-color="#438FFE"/>
<stop offset="0.213837" stop-color="#428EFE"/>
<stop offset="0.2912" stop-color="#428CFE"/>
<stop offset="0.353363" stop-color="#418AFE"/>
<stop offset="0.403704" stop-color="#4088FE"/>
<stop offset="0.4456" stop-color="#3E85FE"/>
<stop offset="0.48243" stop-color="#3D82FE"/>
<stop offset="0.51757" stop-color="#3B7FFE"/>
<stop offset="0.5544" stop-color="#3A7BFE"/>
<stop offset="0.596296" stop-color="#3878FF"/>
<stop offset="0.646637" stop-color="#3674FF"/>
<stop offset="0.7088" stop-color="#3571FF"/>
<stop offset="0.786163" stop-color="#336DFF"/>
<stop offset="0.882104" stop-color="#316AFF"/>
<stop offset="1" stop-color="#3067FF"/>
</linearGradient>
</defs>
</svg>
