<svg width="207" height="55" viewBox="0 0 207 55" fill="none" xmlns="http://www.w3.org/2000/svg">
<rect y="0.52002" width="206.11" height="54" rx="8" fill="white" fill-opacity="0.1"/>
<rect x="0.5" y="1.02002" width="205.11" height="53" rx="7.5" stroke="white" stroke-opacity="0.5"/>
<g clip-path="url(#clip0_1_1320)">
<path d="M25.078 24.3189L22.3 18.5206L19.4013 24.3189L13 25.2852L17.5896 29.8756L16.5026 36.5194L22.3 33.3787L28.0975 36.5194L26.8897 29.8756L31.4793 25.2852L25.078 24.3189ZM47.1806 24.3189L44.4027 18.5206L41.504 24.3189L35.1027 25.2852L39.6923 29.8756L38.4845 36.5194L44.4027 33.3787L50.2001 36.5194L48.9923 29.8756L53.582 25.2852L47.1806 24.3189ZM69.2833 24.3189L66.3846 18.5206L63.6067 24.3189L57.2054 25.2852L61.795 29.8756L60.5872 36.5194L66.3846 33.3787L72.3028 36.5194L71.095 29.8756L75.6846 25.2852L69.2833 24.3189ZM91.386 24.3189L88.4873 18.5206L85.7094 24.3189L79.308 25.2852L83.8977 29.8756L82.6899 36.5194L88.4873 33.3787L94.2847 36.5194L93.1977 29.8756L97.7873 25.2852L91.386 24.3189ZM119.89 25.2852L113.489 24.3189L110.59 18.5206L107.691 24.3189L101.411 25.2852L106 29.8756L104.793 36.5194L110.59 33.3787L116.387 36.5194L115.3 29.8756L119.89 25.2852Z" fill="url(#paint0_linear_1_1320)"/>
</g>
<path d="M128.663 22.6337V21.3837H137.39V22.6337H133.731V33.02H132.322V22.6337H128.663ZM138.477 33.02V24.2927H139.772V25.6109H139.863C140.022 25.1791 140.31 24.8287 140.727 24.5598C141.143 24.2909 141.613 24.1564 142.136 24.1564C142.234 24.1564 142.357 24.1583 142.505 24.1621C142.653 24.1659 142.765 24.1715 142.84 24.1791V25.5427C142.795 25.5314 142.691 25.5143 142.528 25.4916C142.369 25.4651 142.2 25.4518 142.022 25.4518C141.598 25.4518 141.219 25.5409 140.886 25.7189C140.556 25.8931 140.295 26.1355 140.102 26.4462C139.912 26.753 139.818 27.1034 139.818 27.4973V33.02H138.477ZM149.93 29.4518V24.2927H151.271V33.02H149.93V31.5427H149.839C149.634 31.9859 149.316 32.3628 148.884 32.6734C148.453 32.9802 147.907 33.1337 147.248 33.1337C146.703 33.1337 146.218 33.0143 145.794 32.7757C145.369 32.5333 145.036 32.1696 144.794 31.6848C144.551 31.1962 144.43 30.5806 144.43 29.8382V24.2927H145.771V29.7473C145.771 30.3837 145.949 30.8912 146.305 31.27C146.665 31.6488 147.123 31.8382 147.68 31.8382C148.013 31.8382 148.352 31.753 148.697 31.5825C149.045 31.4121 149.337 31.1507 149.572 30.7984C149.811 30.4462 149.93 29.9973 149.93 29.4518ZM159.909 26.2473L158.704 26.5882C158.628 26.3874 158.517 26.1924 158.369 26.003C158.225 25.8098 158.028 25.6507 157.778 25.5257C157.528 25.4007 157.208 25.3382 156.818 25.3382C156.284 25.3382 155.839 25.4613 155.482 25.7075C155.13 25.9499 154.954 26.2587 154.954 26.6337C154.954 26.967 155.075 27.2302 155.318 27.4234C155.56 27.6166 155.939 27.7776 156.454 27.9064L157.75 28.2246C158.53 28.414 159.111 28.7037 159.494 29.0939C159.876 29.4802 160.068 29.9784 160.068 30.5882C160.068 31.0882 159.924 31.5352 159.636 31.9291C159.352 32.323 158.954 32.6337 158.443 32.8609C157.931 33.0882 157.337 33.2018 156.659 33.2018C155.768 33.2018 155.032 33.0087 154.448 32.6223C153.865 32.2359 153.496 31.6715 153.34 30.9291L154.613 30.6109C154.734 31.0806 154.964 31.4329 155.301 31.6677C155.642 31.9026 156.087 32.02 156.636 32.02C157.261 32.02 157.757 31.8874 158.125 31.6223C158.496 31.3534 158.681 31.0314 158.681 30.6564C158.681 30.3534 158.575 30.0996 158.363 29.895C158.151 29.6867 157.825 29.5314 157.386 29.4291L155.931 29.0882C155.132 28.8988 154.545 28.6052 154.17 28.2075C153.799 27.806 153.613 27.3041 153.613 26.7018C153.613 26.2094 153.751 25.7738 154.028 25.395C154.308 25.0162 154.689 24.7189 155.17 24.503C155.655 24.2871 156.204 24.1791 156.818 24.1791C157.681 24.1791 158.359 24.3685 158.852 24.7473C159.348 25.1261 159.7 25.6261 159.909 26.2473ZM165.882 24.2927V25.4291H161.359V24.2927H165.882ZM162.677 22.2018H164.018V30.52C164.018 30.8988 164.073 31.1829 164.183 31.3723C164.296 31.5579 164.44 31.6829 164.615 31.7473C164.793 31.8079 164.98 31.8382 165.177 31.8382C165.325 31.8382 165.446 31.8306 165.541 31.8155C165.635 31.7965 165.711 31.7814 165.768 31.77L166.041 32.9746C165.95 33.0087 165.823 33.0427 165.66 33.0768C165.497 33.1147 165.291 33.1337 165.041 33.1337C164.662 33.1337 164.291 33.0522 163.927 32.8893C163.567 32.7265 163.268 32.4784 163.029 32.145C162.794 31.8117 162.677 31.3912 162.677 30.8837V22.2018ZM167.899 36.2927V24.2927H169.194V25.6791H169.353C169.452 25.5276 169.588 25.3344 169.762 25.0996C169.94 24.8609 170.194 24.6488 170.524 24.4632C170.857 24.2738 171.308 24.1791 171.876 24.1791C172.611 24.1791 173.259 24.3628 173.819 24.7302C174.38 25.0977 174.817 25.6185 175.132 26.2927C175.446 26.967 175.603 27.7624 175.603 28.6791C175.603 29.6034 175.446 30.4045 175.132 31.0825C174.817 31.7568 174.382 32.2795 173.825 32.6507C173.268 33.0181 172.626 33.2018 171.899 33.2018C171.338 33.2018 170.889 33.109 170.552 32.9234C170.215 32.734 169.955 32.52 169.774 32.2814C169.592 32.039 169.452 31.8382 169.353 31.6791H169.24V36.2927H167.899ZM169.217 28.6564C169.217 29.3155 169.313 29.8969 169.507 30.4007C169.7 30.9007 169.982 31.2927 170.353 31.5768C170.724 31.8571 171.179 31.9973 171.717 31.9973C172.277 31.9973 172.745 31.8496 173.12 31.5541C173.499 31.2549 173.783 30.8534 173.973 30.3496C174.166 29.842 174.262 29.2776 174.262 28.6564C174.262 28.0427 174.168 27.4897 173.978 26.9973C173.793 26.5011 173.51 26.109 173.132 25.8212C172.757 25.5295 172.285 25.3837 171.717 25.3837C171.171 25.3837 170.713 25.5219 170.342 25.7984C169.971 26.0712 169.69 26.4537 169.501 26.9462C169.312 27.4348 169.217 28.0049 169.217 28.6564ZM177.649 33.02V24.2927H178.99V33.02H177.649ZM178.33 22.8382C178.069 22.8382 177.844 22.7492 177.654 22.5712C177.469 22.3931 177.376 22.1791 177.376 21.9291C177.376 21.6791 177.469 21.4651 177.654 21.2871C177.844 21.109 178.069 21.02 178.33 21.02C178.592 21.02 178.815 21.109 179.001 21.2871C179.19 21.4651 179.285 21.6791 179.285 21.9291C179.285 22.1791 179.19 22.3931 179.001 22.5712C178.815 22.7492 178.592 22.8382 178.33 22.8382ZM182.786 21.3837V33.02H181.446V21.3837H182.786ZM188.788 33.2018C188 33.2018 187.309 33.0143 186.714 32.6393C186.123 32.2643 185.661 31.7397 185.328 31.0655C184.998 30.3912 184.833 29.6034 184.833 28.7018C184.833 27.7927 184.998 26.9992 185.328 26.3212C185.661 25.6431 186.123 25.1166 186.714 24.7416C187.309 24.3666 188 24.1791 188.788 24.1791C189.576 24.1791 190.265 24.3666 190.856 24.7416C191.451 25.1166 191.913 25.6431 192.242 26.3212C192.576 26.9992 192.742 27.7927 192.742 28.7018C192.742 29.6034 192.576 30.3912 192.242 31.0655C191.913 31.7397 191.451 32.2643 190.856 32.6393C190.265 33.0143 189.576 33.2018 188.788 33.2018ZM188.788 31.9973C189.386 31.9973 189.879 31.8439 190.265 31.5371C190.652 31.2302 190.937 30.8268 191.123 30.3268C191.309 29.8268 191.402 29.2852 191.402 28.7018C191.402 28.1185 191.309 27.5749 191.123 27.0712C190.937 26.5674 190.652 26.1602 190.265 25.8496C189.879 25.539 189.386 25.3837 188.788 25.3837C188.189 25.3837 187.697 25.539 187.311 25.8496C186.924 26.1602 186.638 26.5674 186.453 27.0712C186.267 27.5749 186.174 28.1185 186.174 28.7018C186.174 29.2852 186.267 29.8268 186.453 30.3268C186.638 30.8268 186.924 31.2302 187.311 31.5371C187.697 31.8439 188.189 31.9973 188.788 31.9973ZM198.585 24.2927V25.4291H194.062V24.2927H198.585ZM195.38 22.2018H196.721V30.52C196.721 30.8988 196.776 31.1829 196.886 31.3723C197 31.5579 197.143 31.6829 197.318 31.7473C197.496 31.8079 197.683 31.8382 197.88 31.8382C198.028 31.8382 198.149 31.8306 198.244 31.8155C198.339 31.7965 198.414 31.7814 198.471 31.77L198.744 32.9746C198.653 33.0087 198.526 33.0427 198.363 33.0768C198.2 33.1147 197.994 33.1337 197.744 33.1337C197.365 33.1337 196.994 33.0522 196.63 32.8893C196.27 32.7265 195.971 32.4784 195.732 32.145C195.498 31.8117 195.38 31.3912 195.38 30.8837V22.2018Z" fill="white"/>
<defs>
<linearGradient id="paint0_linear_1_1320" x1="13" y1="18.5206" x2="10702" y2="18.5206" gradientUnits="userSpaceOnUse">
<stop stop-color="white"/>
<stop offset="0.9" stop-color="white" stop-opacity="0.5"/>
</linearGradient>
<clipPath id="clip0_1_1320">
<rect width="106.89" height="18" fill="white" transform="translate(13 18.52)"/>
</clipPath>
</defs>
</svg>
