<svg width="174" height="55" viewBox="0 0 174 55" fill="none" xmlns="http://www.w3.org/2000/svg">
<rect x="0.109863" y="0.52002" width="173.83" height="54" rx="8" fill="white" fill-opacity="0.1"/>
<rect x="0.609863" y="1.02002" width="172.83" height="53" rx="7.5" stroke="white" stroke-opacity="0.5"/>
<path d="M22.1086 19.27C21.9636 19.2655 21.8224 19.3172 21.7146 19.4143C21.7146 19.4143 18.8992 21.895 15.5278 21.895C15.3787 21.895 15.2356 21.9543 15.1301 22.0598C15.0246 22.1652 14.9653 22.3083 14.9653 22.4575V27.0549C14.9653 29.5592 16.1239 33.6799 21.8721 36.1011C21.9412 36.1301 22.0154 36.1451 22.0903 36.1451C22.1653 36.1451 22.2395 36.1301 22.3086 36.1011C28.0568 33.6799 29.2153 29.5592 29.2153 27.0549V22.4575C29.2153 22.3083 29.156 22.1652 29.0506 22.0598C28.9451 21.9543 28.802 21.895 28.6528 21.895C25.2815 21.895 22.4661 19.4143 22.4661 19.4143C22.3676 19.3256 22.241 19.2745 22.1086 19.27ZM24.9021 25.27C25.046 25.27 25.1899 25.3249 25.2998 25.4348C25.5196 25.6542 25.5196 26.0108 25.2998 26.2302L21.5498 29.9802C21.4407 30.09 21.2968 30.145 21.1528 30.145C21.0088 30.145 20.865 30.09 20.7551 29.9802L18.8801 28.1052C18.6604 27.8858 18.6604 27.5291 18.8801 27.3098C19.0999 27.09 19.4558 27.09 19.6755 27.3098L21.1521 28.7871L24.5044 25.4348C24.6143 25.3249 24.7582 25.27 24.9021 25.27Z" fill="white"/>
<path d="M46.8626 24.2927C46.7944 23.717 46.5179 23.27 46.033 22.9518C45.5482 22.6337 44.9535 22.4746 44.2489 22.4746C43.7338 22.4746 43.283 22.5579 42.8967 22.7246C42.5141 22.8912 42.2148 23.1204 41.9989 23.4121C41.7868 23.7037 41.6808 24.0352 41.6808 24.4064C41.6808 24.717 41.7546 24.984 41.9023 25.2075C42.0539 25.4272 42.247 25.6109 42.4819 25.7587C42.7167 25.9026 42.9629 26.0219 43.2205 26.1166C43.4781 26.2075 43.7148 26.2814 43.9308 26.3382L45.1126 26.6564C45.4156 26.7359 45.7527 26.8458 46.1239 26.9859C46.4989 27.1261 46.8569 27.3174 47.1978 27.5598C47.5425 27.7984 47.8266 28.1052 48.0501 28.4802C48.2736 28.8552 48.3853 29.3155 48.3853 29.8609C48.3853 30.4897 48.2205 31.0579 47.891 31.5655C47.5652 32.073 47.0879 32.4765 46.4592 32.7757C45.8342 33.0749 45.0747 33.2246 44.1808 33.2246C43.3474 33.2246 42.6258 33.0901 42.016 32.8212C41.4099 32.5522 40.9326 32.1772 40.5842 31.6962C40.2395 31.2151 40.0444 30.6564 39.9989 30.02H41.4535C41.4914 30.4594 41.6391 30.823 41.8967 31.1109C42.158 31.395 42.4876 31.6071 42.8853 31.7473C43.2868 31.8837 43.7186 31.9518 44.1808 31.9518C44.7186 31.9518 45.2016 31.8647 45.6296 31.6905C46.0576 31.5124 46.3967 31.2662 46.6467 30.9518C46.8967 30.6337 47.0217 30.2624 47.0217 29.8382C47.0217 29.4518 46.9137 29.1374 46.6978 28.895C46.4819 28.6526 46.1978 28.4556 45.8455 28.3041C45.4933 28.1526 45.1126 28.02 44.7035 27.9064L43.2717 27.4973C42.3626 27.2359 41.6429 26.8628 41.1126 26.378C40.5823 25.8931 40.3171 25.2587 40.3171 24.4746C40.3171 23.823 40.4933 23.2549 40.8455 22.77C41.2016 22.2814 41.6789 21.9026 42.2773 21.6337C42.8796 21.3609 43.552 21.2246 44.2944 21.2246C45.0444 21.2246 45.7111 21.359 46.2944 21.628C46.8777 21.8931 47.3398 22.2568 47.6808 22.7189C48.0255 23.181 48.2073 23.7056 48.2262 24.2927H46.8626ZM54.1793 33.2018C53.3384 33.2018 52.613 33.0162 52.0032 32.645C51.3971 32.27 50.9293 31.7473 50.5998 31.0768C50.274 30.4026 50.1112 29.6185 50.1112 28.7246C50.1112 27.8306 50.274 27.0427 50.5998 26.3609C50.9293 25.6753 51.3877 25.1412 51.9748 24.7587C52.5657 24.3723 53.2551 24.1791 54.043 24.1791C54.4975 24.1791 54.9464 24.2549 55.3896 24.4064C55.8327 24.5579 56.2362 24.8041 56.5998 25.145C56.9634 25.4821 57.2532 25.9291 57.4691 26.4859C57.685 27.0427 57.793 27.7284 57.793 28.5427V29.1109H51.0657V27.9518H56.4293C56.4293 27.4594 56.3308 27.02 56.1339 26.6337C55.9407 26.2473 55.6642 25.9424 55.3043 25.7189C54.9483 25.4954 54.5278 25.3837 54.043 25.3837C53.5089 25.3837 53.0468 25.5162 52.6566 25.7814C52.2702 26.0427 51.9729 26.3837 51.7646 26.8041C51.5562 27.2246 51.4521 27.6753 51.4521 28.1564V28.9291C51.4521 29.5882 51.5657 30.1469 51.793 30.6052C52.024 31.0598 52.3441 31.4064 52.7532 31.645C53.1623 31.8799 53.6377 31.9973 54.1793 31.9973C54.5316 31.9973 54.8498 31.948 55.1339 31.8496C55.4218 31.7473 55.6699 31.5958 55.8782 31.395C56.0865 31.1905 56.2475 30.9367 56.3612 30.6337L57.6566 30.9973C57.5202 31.4367 57.2911 31.823 56.9691 32.1564C56.6471 32.4859 56.2494 32.7435 55.7759 32.9291C55.3024 33.1109 54.7702 33.2018 54.1793 33.2018ZM63.3782 33.2018C62.56 33.2018 61.8555 33.0087 61.2646 32.6223C60.6737 32.2359 60.2191 31.7037 59.9009 31.0257C59.5827 30.3477 59.4237 29.573 59.4237 28.7018C59.4237 27.8155 59.5865 27.0333 59.9123 26.3552C60.2418 25.6734 60.7002 25.1412 61.2873 24.7587C61.8782 24.3723 62.5676 24.1791 63.3555 24.1791C63.9691 24.1791 64.5221 24.2927 65.0146 24.52C65.507 24.7473 65.9104 25.0655 66.2248 25.4746C66.5392 25.8837 66.7343 26.3609 66.81 26.9064H65.4691C65.3668 26.5087 65.1396 26.1564 64.7873 25.8496C64.4388 25.539 63.9691 25.3837 63.3782 25.3837C62.8555 25.3837 62.3971 25.52 62.0032 25.7927C61.613 26.0617 61.3081 26.4424 61.0884 26.9348C60.8725 27.4234 60.7646 27.9973 60.7646 28.6564C60.7646 29.3306 60.8706 29.9177 61.0827 30.4177C61.2987 30.9177 61.6017 31.306 61.9918 31.5825C62.3858 31.859 62.8479 31.9973 63.3782 31.9973C63.7267 31.9973 64.043 31.9367 64.3271 31.8155C64.6112 31.6943 64.8517 31.52 65.0487 31.2927C65.2456 31.0655 65.3858 30.7927 65.4691 30.4746H66.81C66.7343 30.9897 66.5468 31.4537 66.2475 31.8666C65.9521 32.2757 65.56 32.6015 65.0714 32.8439C64.5865 33.0825 64.0221 33.2018 63.3782 33.2018ZM74.2702 29.4518V24.2927H75.6112V33.02H74.2702V31.5427H74.1793C73.9748 31.9859 73.6566 32.3628 73.2248 32.6734C72.793 32.9802 72.2475 33.1337 71.5884 33.1337C71.043 33.1337 70.5581 33.0143 70.1339 32.7757C69.7096 32.5333 69.3763 32.1696 69.1339 31.6848C68.8915 31.1962 68.7702 30.5806 68.7702 29.8382V24.2927H70.1112V29.7473C70.1112 30.3837 70.2892 30.8912 70.6452 31.27C71.0051 31.6488 71.4634 31.8382 72.0202 31.8382C72.3536 31.8382 72.6926 31.753 73.0373 31.5825C73.3858 31.4121 73.6774 31.1507 73.9123 30.7984C74.1509 30.4462 74.2702 29.9973 74.2702 29.4518ZM78.0671 33.02V24.2927H79.3626V25.6109H79.4535C79.6126 25.1791 79.9004 24.8287 80.3171 24.5598C80.7338 24.2909 81.2035 24.1564 81.7262 24.1564C81.8247 24.1564 81.9478 24.1583 82.0955 24.1621C82.2433 24.1659 82.355 24.1715 82.4308 24.1791V25.5427C82.3853 25.5314 82.2811 25.5143 82.1183 25.4916C81.9592 25.4651 81.7906 25.4518 81.6126 25.4518C81.1883 25.4518 80.8095 25.5409 80.4762 25.7189C80.1467 25.8931 79.8853 26.1355 79.6921 26.4462C79.5027 26.753 79.408 27.1034 79.408 27.4973V33.02H78.0671ZM87.4137 33.2018C86.5728 33.2018 85.8474 33.0162 85.2376 32.645C84.6315 32.27 84.1637 31.7473 83.8342 31.0768C83.5084 30.4026 83.3455 29.6185 83.3455 28.7246C83.3455 27.8306 83.5084 27.0427 83.8342 26.3609C84.1637 25.6753 84.622 25.1412 85.2092 24.7587C85.8001 24.3723 86.4895 24.1791 87.2773 24.1791C87.7319 24.1791 88.1808 24.2549 88.6239 24.4064C89.0671 24.5579 89.4705 24.8041 89.8342 25.145C90.1978 25.4821 90.4876 25.9291 90.7035 26.4859C90.9194 27.0427 91.0273 27.7284 91.0273 28.5427V29.1109H84.3001V27.9518H89.6637C89.6637 27.4594 89.5652 27.02 89.3683 26.6337C89.1751 26.2473 88.8986 25.9424 88.5387 25.7189C88.1826 25.4954 87.7622 25.3837 87.2773 25.3837C86.7433 25.3837 86.2811 25.5162 85.891 25.7814C85.5046 26.0427 85.2073 26.3837 84.9989 26.8041C84.7906 27.2246 84.6864 27.6753 84.6864 28.1564V28.9291C84.6864 29.5882 84.8001 30.1469 85.0273 30.6052C85.2584 31.0598 85.5785 31.4064 85.9876 31.645C86.3967 31.8799 86.872 31.9973 87.4137 31.9973C87.766 31.9973 88.0842 31.948 88.3683 31.8496C88.6561 31.7473 88.9042 31.5958 89.1126 31.395C89.3209 31.1905 89.4819 30.9367 89.5955 30.6337L90.891 30.9973C90.7546 31.4367 90.5254 31.823 90.2035 32.1564C89.8815 32.4859 89.4838 32.7435 89.0103 32.9291C88.5368 33.1109 88.0046 33.2018 87.4137 33.2018ZM97.1126 22.6337V21.3837H105.84V22.6337H102.181V33.02H100.772V22.6337H97.1126ZM106.926 33.02V24.2927H108.222V25.6109H108.313C108.472 25.1791 108.76 24.8287 109.176 24.5598C109.593 24.2909 110.063 24.1564 110.586 24.1564C110.684 24.1564 110.807 24.1583 110.955 24.1621C111.103 24.1659 111.214 24.1715 111.29 24.1791V25.5427C111.245 25.5314 111.141 25.5143 110.978 25.4916C110.819 25.4651 110.65 25.4518 110.472 25.4518C110.048 25.4518 109.669 25.5409 109.336 25.7189C109.006 25.8931 108.745 26.1355 108.551 26.4462C108.362 26.753 108.267 27.1034 108.267 27.4973V33.02H106.926ZM115.448 33.2246C114.895 33.2246 114.393 33.1204 113.942 32.9121C113.491 32.6999 113.133 32.395 112.868 31.9973C112.603 31.5958 112.471 31.1109 112.471 30.5427C112.471 30.0427 112.569 29.6374 112.766 29.3268C112.963 29.0124 113.226 28.7662 113.556 28.5882C113.885 28.4102 114.249 28.2776 114.647 28.1905C115.048 28.0996 115.452 28.0276 115.857 27.9746C116.387 27.9064 116.817 27.8552 117.147 27.8212C117.48 27.7833 117.722 27.7208 117.874 27.6337C118.029 27.5465 118.107 27.395 118.107 27.1791V27.1337C118.107 26.573 117.953 26.1374 117.647 25.8268C117.344 25.5162 116.883 25.3609 116.266 25.3609C115.626 25.3609 115.124 25.5011 114.76 25.7814C114.397 26.0617 114.141 26.3609 113.993 26.6791L112.721 26.2246C112.948 25.6943 113.251 25.2814 113.63 24.9859C114.012 24.6867 114.429 24.4784 114.88 24.3609C115.334 24.2397 115.781 24.1791 116.221 24.1791C116.501 24.1791 116.823 24.2132 117.186 24.2814C117.554 24.3458 117.908 24.4802 118.249 24.6848C118.594 24.8893 118.88 25.198 119.107 25.6109C119.334 26.0238 119.448 26.5768 119.448 27.27V33.02H118.107V31.8382H118.039C117.948 32.0276 117.796 32.2302 117.584 32.4462C117.372 32.6621 117.09 32.8458 116.738 32.9973C116.385 33.1488 115.955 33.2246 115.448 33.2246ZM115.652 32.02C116.183 32.02 116.63 31.9159 116.993 31.7075C117.361 31.4992 117.637 31.2302 117.823 30.9007C118.012 30.5712 118.107 30.2246 118.107 29.8609V28.6337C118.05 28.7018 117.925 28.7643 117.732 28.8212C117.542 28.8742 117.323 28.9215 117.073 28.9632C116.827 29.0011 116.586 29.0352 116.351 29.0655C116.12 29.092 115.933 29.1147 115.789 29.1337C115.44 29.1791 115.114 29.253 114.811 29.3552C114.512 29.4537 114.27 29.6034 114.084 29.8041C113.902 30.0011 113.811 30.27 113.811 30.6109C113.811 31.0768 113.984 31.4291 114.328 31.6677C114.677 31.9026 115.118 32.02 115.652 32.02ZM123.236 27.77V33.02H121.895V24.2927H123.191V25.6564H123.304C123.509 25.2132 123.819 24.8571 124.236 24.5882C124.653 24.3155 125.191 24.1791 125.85 24.1791C126.441 24.1791 126.958 24.3003 127.401 24.5427C127.844 24.7814 128.189 25.145 128.435 25.6337C128.681 26.1185 128.804 26.7321 128.804 27.4746V33.02H127.463V27.5655C127.463 26.8799 127.285 26.3458 126.929 25.9632C126.573 25.5768 126.085 25.3837 125.463 25.3837C125.035 25.3837 124.653 25.4765 124.316 25.6621C123.982 25.8477 123.719 26.1185 123.526 26.4746C123.333 26.8306 123.236 27.2624 123.236 27.77ZM137.436 26.2473L136.232 26.5882C136.156 26.3874 136.044 26.1924 135.897 26.003C135.753 25.8098 135.556 25.6507 135.306 25.5257C135.056 25.4007 134.736 25.3382 134.346 25.3382C133.811 25.3382 133.366 25.4613 133.01 25.7075C132.658 25.9499 132.482 26.2587 132.482 26.6337C132.482 26.967 132.603 27.2302 132.846 27.4234C133.088 27.6166 133.467 27.7776 133.982 27.9064L135.277 28.2246C136.058 28.414 136.639 28.7037 137.022 29.0939C137.404 29.4802 137.596 29.9784 137.596 30.5882C137.596 31.0882 137.452 31.5352 137.164 31.9291C136.88 32.323 136.482 32.6337 135.971 32.8609C135.459 33.0882 134.864 33.2018 134.186 33.2018C133.296 33.2018 132.56 33.0087 131.976 32.6223C131.393 32.2359 131.024 31.6715 130.868 30.9291L132.141 30.6109C132.262 31.0806 132.491 31.4329 132.828 31.6677C133.169 31.9026 133.614 32.02 134.164 32.02C134.789 32.02 135.285 31.8874 135.652 31.6223C136.024 31.3534 136.209 31.0314 136.209 30.6564C136.209 30.3534 136.103 30.0996 135.891 29.895C135.679 29.6867 135.353 29.5314 134.914 29.4291L133.459 29.0882C132.66 28.8988 132.073 28.6052 131.698 28.2075C131.327 27.806 131.141 27.3041 131.141 26.7018C131.141 26.2094 131.279 25.7738 131.556 25.395C131.836 25.0162 132.217 24.7189 132.698 24.503C133.183 24.2871 133.732 24.1791 134.346 24.1791C135.209 24.1791 135.887 24.3685 136.38 24.7473C136.876 25.1261 137.228 25.6261 137.436 26.2473ZM143.5 24.2927V25.4291H138.796V24.2927H143.5ZM140.205 33.02V23.0882C140.205 22.5882 140.322 22.1715 140.557 21.8382C140.792 21.5049 141.097 21.2549 141.472 21.0882C141.847 20.9215 142.243 20.8382 142.659 20.8382C142.989 20.8382 143.258 20.8647 143.466 20.9177C143.675 20.9708 143.83 21.02 143.932 21.0655L143.546 22.2246C143.478 22.2018 143.383 22.1734 143.262 22.1393C143.144 22.1052 142.989 22.0882 142.796 22.0882C142.353 22.0882 142.033 22.1999 141.836 22.4234C141.642 22.6469 141.546 22.9746 141.546 23.4064V33.02H140.205ZM148.679 33.2018C147.838 33.2018 147.113 33.0162 146.503 32.645C145.897 32.27 145.429 31.7473 145.1 31.0768C144.774 30.4026 144.611 29.6185 144.611 28.7246C144.611 27.8306 144.774 27.0427 145.1 26.3609C145.429 25.6753 145.888 25.1412 146.475 24.7587C147.066 24.3723 147.755 24.1791 148.543 24.1791C148.998 24.1791 149.446 24.2549 149.89 24.4064C150.333 24.5579 150.736 24.8041 151.1 25.145C151.463 25.4821 151.753 25.9291 151.969 26.4859C152.185 27.0427 152.293 27.7284 152.293 28.5427V29.1109H145.566V27.9518H150.929C150.929 27.4594 150.831 27.02 150.634 26.6337C150.441 26.2473 150.164 25.9424 149.804 25.7189C149.448 25.4954 149.028 25.3837 148.543 25.3837C148.009 25.3837 147.547 25.5162 147.157 25.7814C146.77 26.0427 146.473 26.3837 146.265 26.8041C146.056 27.2246 145.952 27.6753 145.952 28.1564V28.9291C145.952 29.5882 146.066 30.1469 146.293 30.6052C146.524 31.0598 146.844 31.4064 147.253 31.645C147.662 31.8799 148.138 31.9973 148.679 31.9973C149.032 31.9973 149.35 31.948 149.634 31.8496C149.922 31.7473 150.17 31.5958 150.378 31.395C150.587 31.1905 150.748 30.9367 150.861 30.6337L152.157 30.9973C152.02 31.4367 151.791 31.823 151.469 32.1564C151.147 32.4859 150.749 32.7435 150.276 32.9291C149.802 33.1109 149.27 33.2018 148.679 33.2018ZM154.333 33.02V24.2927H155.628V25.6109H155.719C155.878 25.1791 156.166 24.8287 156.583 24.5598C156.999 24.2909 157.469 24.1564 157.992 24.1564C158.09 24.1564 158.213 24.1583 158.361 24.1621C158.509 24.1659 158.621 24.1715 158.696 24.1791V25.5427C158.651 25.5314 158.547 25.5143 158.384 25.4916C158.225 25.4651 158.056 25.4518 157.878 25.4518C157.454 25.4518 157.075 25.5409 156.742 25.7189C156.412 25.8931 156.151 26.1355 155.958 26.4462C155.768 26.753 155.674 27.1034 155.674 27.4973V33.02H154.333ZM166.468 26.2473L165.263 26.5882C165.187 26.3874 165.076 26.1924 164.928 26.003C164.784 25.8098 164.587 25.6507 164.337 25.5257C164.087 25.4007 163.767 25.3382 163.377 25.3382C162.843 25.3382 162.398 25.4613 162.042 25.7075C161.689 25.9499 161.513 26.2587 161.513 26.6337C161.513 26.967 161.634 27.2302 161.877 27.4234C162.119 27.6166 162.498 27.7776 163.013 27.9064L164.309 28.2246C165.089 28.414 165.67 28.7037 166.053 29.0939C166.435 29.4802 166.627 29.9784 166.627 30.5882C166.627 31.0882 166.483 31.5352 166.195 31.9291C165.911 32.323 165.513 32.6337 165.002 32.8609C164.49 33.0882 163.896 33.2018 163.218 33.2018C162.328 33.2018 161.591 33.0087 161.007 32.6223C160.424 32.2359 160.055 31.6715 159.9 30.9291L161.172 30.6109C161.293 31.0806 161.523 31.4329 161.86 31.6677C162.201 31.9026 162.646 32.02 163.195 32.02C163.82 32.02 164.316 31.8874 164.684 31.6223C165.055 31.3534 165.24 31.0314 165.24 30.6564C165.24 30.3534 165.134 30.0996 164.922 29.895C164.71 29.6867 164.384 29.5314 163.945 29.4291L162.49 29.0882C161.691 28.8988 161.104 28.6052 160.729 28.2075C160.358 27.806 160.172 27.3041 160.172 26.7018C160.172 26.2094 160.31 25.7738 160.587 25.395C160.867 25.0162 161.248 24.7189 161.729 24.503C162.214 24.2871 162.763 24.1791 163.377 24.1791C164.24 24.1791 164.918 24.3685 165.411 24.7473C165.907 25.1261 166.259 25.6261 166.468 26.2473Z" fill="white"/>
</svg>
