<svg width="76" height="76" viewBox="0 0 76 76" fill="none" xmlns="http://www.w3.org/2000/svg">
<rect width="76" height="76" fill="white"/>
<path d="M40.4756 11C38.4224 11 36.7561 12.68 36.7561 14.75V15.5V37.6104L41.2195 34.7305V20C43.6848 20 45.6829 17.9855 45.6829 15.5H59.0732C59.0732 17.9855 61.0713 20 63.5366 20V56C61.0713 56 59.0732 58.0145 59.0732 60.5H45.6829C45.6829 58.37 44.2237 56.6001 42.2598 56.1201L41.2195 57.2451L36.9653 61.8359V61.8389L36.8317 61.9854C37.1738 63.7104 38.6754 65 40.4756 65H41.2195H63.5366H64.2805C66.3337 65 68 63.32 68 61.25V60.5V15.5V14.75C68 12.68 66.3337 11 64.2805 11H63.5366H41.2195H40.4756ZM52.378 20C51.5889 20 50.832 20.3161 50.274 20.8787C49.7159 21.4413 49.4024 22.2044 49.4024 23C49.4024 23.7956 49.7159 24.5587 50.274 25.1213C50.832 25.6839 51.5889 26 52.378 26C53.1672 26 53.9241 25.6839 54.4821 25.1213C55.0402 24.5587 55.3537 23.7956 55.3537 23C55.3537 22.2044 55.0402 21.4413 54.4821 20.8787C53.9241 20.3161 53.1672 20 52.378 20ZM33.7805 24.3213L23.8715 27.3945C22.101 27.9495 20.5243 29.0586 19.3935 30.5586L7.61023 46.1914C7.20853 46.7164 7 47.3599 7 48.0049V62C7 63.65 8.33902 65 9.97561 65L24.8246 64.9854C28.1275 64.9854 31.2666 63.6038 33.5131 61.1738L48.8213 44.6445C49.6991 43.7145 50.1318 42.5161 50.1318 41.3311C50.1318 40.0261 49.6099 38.7194 48.5685 37.7744C47.0063 36.3344 44.6703 36.1104 42.87 37.2354L35.3438 42.0811V42.0957L30.8194 45.1396C30.6111 45.2746 30.3742 45.3788 30.1511 45.4238L30.061 45.4854L30.1046 45.4414C29.9409 45.4864 29.7771 45.5 29.6135 45.5C28.8844 45.5 28.1558 45.1408 27.7392 44.4658C27.0697 43.4158 27.369 42.0204 28.4104 41.3604L33.7805 37.8945V24.3213ZM52.378 30.6641C49.7298 30.6641 47.3647 31.7889 45.9067 33.5439C47.6474 33.6639 49.282 34.3687 50.5764 35.5537C52.1832 37.0087 53.1074 39.1261 53.1074 41.3311C53.1074 42.7561 52.7348 44.1213 52.0206 45.3213C52.1397 45.3363 52.259 45.3359 52.378 45.3359C56.901 45.3359 60.561 42.05 60.561 38C60.561 33.95 56.901 30.6641 52.378 30.6641ZM52.378 50C51.5889 50 50.832 50.3161 50.274 50.8787C49.7159 51.4413 49.4024 52.2044 49.4024 53C49.4024 53.7956 49.7159 54.5587 50.274 55.1213C50.832 55.6839 51.5889 56 52.378 56C53.1672 56 53.9241 55.6839 54.4821 55.1213C55.0402 54.5587 55.3537 53.7956 55.3537 53C55.3537 52.2044 55.0402 51.4413 54.4821 50.8787C53.9241 50.3161 53.1672 50 52.378 50Z" fill="url(#paint0_linear_1995_18847)"/>
<defs>
<linearGradient id="paint0_linear_1995_18847" x1="2.71429" y1="26.4286" x2="65.3486" y2="26.1691" gradientUnits="userSpaceOnUse">
<stop stop-color="#438FFE"/>
<stop offset="0.117896" stop-color="#438FFE"/>
<stop offset="0.213837" stop-color="#428EFE"/>
<stop offset="0.2912" stop-color="#428CFE"/>
<stop offset="0.353363" stop-color="#418AFE"/>
<stop offset="0.403704" stop-color="#4088FE"/>
<stop offset="0.4456" stop-color="#3E85FE"/>
<stop offset="0.48243" stop-color="#3D82FE"/>
<stop offset="0.51757" stop-color="#3B7FFE"/>
<stop offset="0.5544" stop-color="#3A7BFE"/>
<stop offset="0.596296" stop-color="#3878FF"/>
<stop offset="0.646637" stop-color="#3674FF"/>
<stop offset="0.7088" stop-color="#3571FF"/>
<stop offset="0.786163" stop-color="#336DFF"/>
<stop offset="0.882104" stop-color="#316AFF"/>
<stop offset="1" stop-color="#3067FF"/>
</linearGradient>
</defs>
</svg>
