<svg width="41" height="41" viewBox="0 0 41 41" fill="none" xmlns="http://www.w3.org/2000/svg">
<path d="M32.2263 15.6257C32.0305 15.1649 31.578 14.8665 31.0771 14.8665H25.2388L30.4888 5.9157C30.7155 5.52903 30.718 5.0507 30.4955 4.66236C30.2721 4.2732 29.8588 4.0332 29.4105 4.0332H19.4105C18.9546 4.0332 18.5346 4.28153 18.3155 4.6807L9.14877 21.3474C8.93627 21.734 8.94293 22.2057 9.16793 22.5857C9.39293 22.9665 9.8021 23.1999 10.2438 23.1999H15.8896L10.7546 35.6399C10.5254 36.1957 10.7238 36.8357 11.2271 37.164C11.4371 37.2999 11.6738 37.3665 11.9105 37.3665C12.2413 37.3665 12.5705 37.2349 12.813 36.9815L31.9796 16.9815C32.3263 16.6199 32.4238 16.0865 32.2263 15.6257Z" fill="#0A146E"/>
</svg>
