<svg width="41" height="41" viewBox="0 0 41 41" fill="none" xmlns="http://www.w3.org/2000/svg">
<path d="M21.022 2.36682C20.6997 2.35677 20.3859 2.47165 20.1463 2.68746C20.1463 2.68746 13.8898 8.20016 6.39795 8.20016C6.06644 8.20019 5.74852 8.3319 5.5141 8.56631C5.27969 8.80072 5.14798 9.11865 5.14795 9.45016V19.6666C5.14795 25.2317 7.72246 34.3888 20.4963 39.7692C20.6498 39.8338 20.8147 39.8671 20.9813 39.8671C21.1479 39.8671 21.3128 39.8338 21.4663 39.7692C34.2401 34.3888 36.8146 25.2317 36.8146 19.6666V9.45016C36.8146 9.11865 36.6829 8.80072 36.4485 8.56631C36.2141 8.3319 35.8961 8.20019 35.5646 8.20016C28.0728 8.20016 21.8163 2.68746 21.8163 2.68746C21.5975 2.49039 21.3162 2.37684 21.022 2.36682ZM27.2297 15.7002C27.5495 15.7002 27.8693 15.8222 28.1135 16.0664C28.6018 16.5539 28.6018 17.3464 28.1135 17.8339L19.7801 26.1673C19.5376 26.4114 19.218 26.5335 18.898 26.5335C18.578 26.5335 18.2583 26.4114 18.0142 26.1673L13.8475 22.0006C13.3592 21.5131 13.3592 20.7205 13.8475 20.233C14.3358 19.7447 15.1268 19.7447 15.6151 20.233L18.8963 23.5159L26.3459 16.0664C26.5901 15.8222 26.9099 15.7002 27.2297 15.7002Z" fill="#0A146E"/>
</svg>
