<svg width="41" height="41" viewBox="0 0 41 41" fill="none" xmlns="http://www.w3.org/2000/svg">
<path d="M32.8301 4.03369H23.6635C22.3376 4.03369 21.066 4.56035 20.1285 5.49785L5.12844 20.4979C3.17594 22.4504 3.17594 25.6162 5.12844 27.5687L13.4618 35.902C14.4376 36.8787 15.7176 37.367 16.9968 37.367C18.276 37.367 19.556 36.8787 20.5318 35.9029L35.5318 20.9029C36.4701 19.9645 36.9968 18.6929 36.9968 17.3662V8.20035C36.9968 5.89952 35.131 4.03369 32.8301 4.03369ZM28.6635 14.867C27.2826 14.867 26.1635 13.7479 26.1635 12.367C26.1635 10.9862 27.2826 9.86702 28.6635 9.86702C30.0443 9.86702 31.1635 10.9862 31.1635 12.367C31.1635 13.7479 30.0443 14.867 28.6635 14.867Z" fill="#0A146E"/>
</svg>
