<svg width="76" height="76" viewBox="0 0 76 76" fill="none" xmlns="http://www.w3.org/2000/svg">
<rect width="76" height="76" fill="white"/>
<path fill-rule="evenodd" clip-rule="evenodd" d="M33.1213 9.62069C34.493 8.53994 36.151 8 37.811 8C39.4711 8 41.1318 8.53994 42.5035 9.62069L61.8333 24.853C62.1704 25.119 62.4163 25.4834 62.5368 25.8956C62.6574 26.3078 62.6466 26.7473 62.5061 27.1531C62.3655 27.5589 62.102 27.9108 61.7523 28.1601C61.4026 28.4093 60.9839 28.5435 60.5545 28.5439H15.0676C14.6381 28.5435 14.2195 28.4093 13.8698 28.1601C13.52 27.9108 13.2566 27.5589 13.116 27.1531C12.9754 26.7473 12.9647 26.3078 13.0852 25.8956C13.2058 25.4834 13.4517 25.119 13.7888 24.853L33.1213 9.62069ZM40.5678 18.8952C40.5678 17.3721 39.3342 16.1384 37.811 16.1384C36.2879 16.1384 35.0542 17.3721 35.0542 18.8952C35.0542 20.4183 36.2879 21.652 37.811 21.652C39.3342 21.652 40.5678 20.4183 40.5678 18.8952ZM17.8244 51.9766V31.3007H21.9595V51.9766H26.7839V31.3007H30.9191V51.9766H35.7434V31.3007H39.8786V51.9766H42.7293C42.898 52.1778 43.0925 52.3581 43.3088 52.5123C43.6962 52.7883 44.1397 52.9707 44.6045 53.0483V61.6253H17.8244C15.1641 61.6253 13 59.4612 13 56.8009C13 54.1407 15.1641 51.9766 17.8244 51.9766ZM57.7977 38.0133V31.3007H53.6625V39.2745C54.7606 38.4232 56.0801 38 57.3944 38C57.5288 38 57.6633 38.0044 57.7977 38.0133ZM48.8382 43.0755V31.3007H44.703V46.3336L48.8382 43.0755ZM46.6045 53.355V61.6253H48.8369V53.355V52.5791H46.6045V53.355ZM51.4413 61.6253H53.6737V53.355V52.5791H53.6625H51.4413V61.6253ZM56.2782 53.355V52.5791H57.7977V53.355V61.6253H56.2782V53.355Z" fill="url(#paint0_linear_1995_18851)"/>
<path fill-rule="evenodd" clip-rule="evenodd" d="M57.3939 40C57.3937 40 57.3935 40 57.3933 40C56.4971 40 55.6006 40.2915 54.86 40.8749L44.4247 49.0982C44.2427 49.2418 44.11 49.4386 44.0449 49.6611C43.9798 49.8836 43.9856 50.1209 44.0615 50.3399C44.1374 50.559 44.2796 50.749 44.4684 50.8835C44.6572 51.0181 44.8832 51.0905 45.1151 51.0908H45.1162H69.6715H69.6726C69.9045 51.0905 70.1305 51.0181 70.3193 50.8835C70.5081 50.749 70.6503 50.559 70.7262 50.3399C70.8021 50.1209 70.8079 49.8836 70.7428 49.6611C70.6777 49.4386 70.545 49.2418 70.363 49.0982L59.9277 40.8749C59.1871 40.2915 58.2906 40 57.3944 40C57.3942 40 57.394 40 57.3939 40ZM44 66.3455C44 64.9097 45.1677 63.7417 46.6034 63.7411V52.5791H46.6045H48.8358H48.8369V63.7411H51.4402V52.5791H51.4413H53.6726H53.6737V63.7411H56.2771V52.5791H56.2782H58.5095H58.5106V63.7411H61.114V52.5791H61.1151H63.3464H63.3475V63.7411H65.9508V52.5791H65.9519H68.1832H68.1843V63.7411C69.62 63.7417 70.7877 64.9097 70.7877 66.3455C70.7877 67.7813 69.62 68.9494 68.1843 68.95C68.184 68.95 68.1836 68.95 68.1832 68.95H46.6045M44 66.3455C44 67.7813 45.1677 68.9494 46.6034 68.95Z" fill="url(#paint1_linear_1995_18851)"/>
<path d="M59 46.5C59 47.3284 58.3284 48 57.5 48C56.6716 48 56 47.3284 56 46.5C56 45.6716 56.6716 45 57.5 45C58.3284 45 59 45.6716 59 46.5Z" fill="white"/>
<defs>
<linearGradient id="paint0_linear_1995_18851" x1="9.51382" y1="23.3215" x2="60.4635" y2="23.1486" gradientUnits="userSpaceOnUse">
<stop stop-color="#438FFE"/>
<stop offset="0.117896" stop-color="#438FFE"/>
<stop offset="0.213837" stop-color="#428EFE"/>
<stop offset="0.2912" stop-color="#428CFE"/>
<stop offset="0.353363" stop-color="#418AFE"/>
<stop offset="0.403704" stop-color="#4088FE"/>
<stop offset="0.4456" stop-color="#3E85FE"/>
<stop offset="0.48243" stop-color="#3D82FE"/>
<stop offset="0.51757" stop-color="#3B7FFE"/>
<stop offset="0.5544" stop-color="#3A7BFE"/>
<stop offset="0.596296" stop-color="#3878FF"/>
<stop offset="0.646637" stop-color="#3674FF"/>
<stop offset="0.7088" stop-color="#3571FF"/>
<stop offset="0.786163" stop-color="#336DFF"/>
<stop offset="0.882104" stop-color="#316AFF"/>
<stop offset="1" stop-color="#3067FF"/>
</linearGradient>
<linearGradient id="paint1_linear_1995_18851" x1="42.118" y1="48.2714" x2="69.6235" y2="48.1781" gradientUnits="userSpaceOnUse">
<stop stop-color="#438FFE"/>
<stop offset="0.117896" stop-color="#438FFE"/>
<stop offset="0.213837" stop-color="#428EFE"/>
<stop offset="0.2912" stop-color="#428CFE"/>
<stop offset="0.353363" stop-color="#418AFE"/>
<stop offset="0.403704" stop-color="#4088FE"/>
<stop offset="0.4456" stop-color="#3E85FE"/>
<stop offset="0.48243" stop-color="#3D82FE"/>
<stop offset="0.51757" stop-color="#3B7FFE"/>
<stop offset="0.5544" stop-color="#3A7BFE"/>
<stop offset="0.596296" stop-color="#3878FF"/>
<stop offset="0.646637" stop-color="#3674FF"/>
<stop offset="0.7088" stop-color="#3571FF"/>
<stop offset="0.786163" stop-color="#336DFF"/>
<stop offset="0.882104" stop-color="#316AFF"/>
<stop offset="1" stop-color="#3067FF"/>
</linearGradient>
</defs>
</svg>
