<svg width="51" height="41" viewBox="0 0 51 41" fill="none" xmlns="http://www.w3.org/2000/svg">
<path d="M19.5722 30.5955H13.956C13.9213 30.5954 13.8873 30.5866 13.857 30.5697C13.8267 30.5528 13.8012 30.5286 13.7829 30.4991L10.1537 24.6381L6.52301 30.4991C6.50494 30.5286 6.47961 30.5529 6.44943 30.5698C6.41926 30.5867 6.38526 30.5955 6.35069 30.5955H0.735175C0.698221 30.5956 0.661944 30.5856 0.630243 30.5666C0.598543 30.5476 0.572619 30.5203 0.555259 30.4877C0.537899 30.4551 0.529761 30.4183 0.531719 30.3814C0.533677 30.3445 0.545657 30.3089 0.566371 30.2783L7.30865 20.257L0.649366 10.5825C0.628336 10.552 0.616048 10.5163 0.613831 10.4793C0.611615 10.4423 0.619554 10.4054 0.636791 10.3726C0.654028 10.3398 0.679906 10.3123 0.711626 10.2931C0.743347 10.274 0.779703 10.2638 0.816763 10.2639H6.46674C6.50111 10.2639 6.5349 10.2727 6.56492 10.2895C6.59495 10.3062 6.62022 10.3303 6.63836 10.3595L10.1551 15.9518L13.6486 10.3954C13.6731 10.3559 13.7073 10.3234 13.748 10.3009C13.7886 10.2784 13.8343 10.2666 13.8807 10.2667H19.4913C19.5284 10.2667 19.5647 10.2768 19.5964 10.2959C19.6282 10.3151 19.654 10.3426 19.6713 10.3754C19.6885 10.4082 19.6965 10.4451 19.6942 10.4821C19.692 10.5191 19.6797 10.5548 19.6587 10.5853L12.9973 20.257L19.741 30.2783C19.7615 30.3089 19.7732 30.3445 19.7751 30.3814C19.7769 30.4182 19.7687 30.4548 19.7514 30.4873C19.7341 30.5199 19.7083 30.5471 19.6767 30.5661C19.6452 30.5852 19.609 30.5953 19.5722 30.5955ZM30.3988 0.500703C27.6508 0.49715 24.9319 1.06348 22.4138 2.16392C19.8958 3.26436 17.6333 4.875 15.7692 6.89412C15.756 6.90893 15.7473 6.92724 15.7441 6.94686C15.741 6.96648 15.7436 6.98658 15.7516 7.00476C15.7597 7.02294 15.7727 7.03842 15.7893 7.04936C15.8059 7.0603 15.8253 7.06623 15.8452 7.06644H16.7293C16.7777 7.06617 16.8244 7.04844 16.8608 7.0165C20.1544 4.15044 24.3757 2.57608 28.7417 2.58542C38.692 2.58542 46.7572 10.5754 46.7572 20.4314C46.7572 30.2874 38.6948 38.276 28.7445 38.276C24.3785 38.2852 20.1573 36.7109 16.8636 33.8449C16.8272 33.813 16.7805 33.7953 16.7321 33.795H15.848C15.8281 33.7952 15.8087 33.8011 15.7921 33.8121C15.7756 33.823 15.7625 33.8385 15.7545 33.8567C15.7464 33.8749 15.7438 33.895 15.747 33.9146C15.7501 33.9342 15.7588 33.9525 15.772 33.9673C17.6361 35.9864 19.8986 37.5971 22.4166 38.6975C24.9347 39.798 27.6536 40.3643 30.4016 40.3607C41.4055 40.3593 50.3281 31.436 50.3281 20.4293C50.3281 9.42265 41.4055 0.500703 30.3988 0.500703ZM38.3009 22.2397H23.2823C23.4139 24.5172 25.424 26.4816 28.3394 26.4816C30.5845 26.4816 32.0151 25.5884 32.883 24.2168C32.9098 24.1732 32.9521 24.1413 33.0013 24.1275C33.0506 24.1137 33.1033 24.1189 33.1489 24.1423L36.947 26.1116C36.9723 26.1247 36.9946 26.143 37.0125 26.1652C37.0303 26.1875 37.0433 26.2132 37.0506 26.2408C37.0579 26.2683 37.0593 26.2971 37.0548 26.3253C37.0503 26.3534 37.0399 26.3803 37.0243 26.4042C35.216 29.136 32.1114 30.9408 28.3134 30.9408H28.2852C22.2681 30.9408 18.1479 26.5379 18.1479 20.4293C18.1479 14.3208 22.2646 9.91851 28.2817 9.91851C34.2989 9.91851 38.6329 14.6246 38.6329 20.4293C38.635 20.9602 38.5962 21.4904 38.5168 22.0154C38.4971 22.1209 38.4233 22.2397 38.3009 22.2397ZM33.5814 18.1252C33.267 16.8324 31.7527 14.3763 28.5237 14.3763C25.4219 14.3763 23.8274 16.3168 23.449 18.1252H33.5814Z" fill="white"/>
</svg>
