<svg width="141" height="31" viewBox="0 0 141 31" fill="none" xmlns="http://www.w3.org/2000/svg">
<g clip-path="url(#clip0_1_821)">
<path d="M21.2009 16.3971C21.2161 15.2312 21.526 14.0881 22.1017 13.0741C22.6774 12.0602 23.5003 11.2083 24.4937 10.5978C23.8627 9.69655 23.0301 8.95486 22.0622 8.43165C21.0943 7.90844 20.0178 7.61814 18.918 7.5838C16.5719 7.33679 14.2975 8.98677 13.1014 8.98677C11.8845 8.98677 10.0433 7.60814 8.06105 7.64829C6.77902 7.68974 5.52959 8.06257 4.43451 8.73046C3.33943 9.39834 2.43605 10.3385 1.81239 11.4593C-0.889072 16.1367 1.12608 23.0104 3.71437 26.791C5.00913 28.643 6.52292 30.7115 8.50278 30.6373C10.44 30.557 11.1641 29.4022 13.5029 29.4022C15.8199 29.4022 16.4989 30.6373 18.5201 30.5911C20.5985 30.557 21.9091 28.7318 23.1576 26.8628C24.0884 25.5438 24.8046 24.0859 25.2799 22.5431C24.0718 22.0324 23.0408 21.1773 22.3154 20.0846C21.5901 18.9919 21.2025 17.7086 21.2009 16.3971ZM17.386 5.09544C18.5199 3.73479 19.0786 1.98572 18.9436 0.219727C17.2113 0.401331 15.6111 1.22899 14.4618 2.53773C13.8999 3.17722 13.4695 3.9212 13.1954 4.72712C12.9212 5.53305 12.8086 6.38511 12.8641 7.23458C13.7305 7.24343 14.5877 7.05551 15.371 6.68496C16.1543 6.31442 16.8433 5.77093 17.386 5.09544ZM45.6954 20.0353H39.0829L37.4949 24.7236H34.6948L40.9581 7.37694H43.8664L50.1309 24.7236H47.2822L45.6954 20.0353ZM39.768 17.8718H45.0091L42.4269 10.262H42.3538L39.768 17.8718ZM63.6565 18.4012C63.6565 22.3314 61.5525 24.8563 58.3789 24.8563C57.5747 24.8983 56.7749 24.713 56.0711 24.3215C55.3674 23.9301 54.7881 23.3483 54.3997 22.6429H54.3389V28.907H51.742V12.0762H54.2561V14.1813H54.3036C54.71 13.4792 55.2992 12.9004 56.0085 12.5066C56.7178 12.1128 57.5206 11.9186 58.3314 11.9448C61.5403 11.9448 63.6565 14.4818 63.6565 18.4012ZM60.9879 18.4012C60.9879 15.841 59.6651 14.157 57.6451 14.157C55.6616 14.157 54.3279 15.8763 54.3279 18.4012C54.3279 20.9491 55.6616 22.6563 57.6451 22.6563C59.6651 22.6563 60.9879 20.9844 60.9879 18.4012ZM77.5775 18.4012C77.5775 22.3314 75.4736 24.8563 72.2987 24.8563C71.4945 24.8983 70.6947 24.713 69.991 24.3215C69.2872 23.9301 68.708 23.3483 68.3195 22.6429H68.2587V28.907H65.6631V12.0762H68.1759V14.1813H68.2246C68.6311 13.4792 69.2203 12.9004 69.9296 12.5066C70.6388 12.1128 71.4416 11.9186 72.2525 11.9448C75.4614 11.9448 77.5775 14.4818 77.5775 18.4012ZM74.9089 18.4012C74.9089 15.841 73.5862 14.157 71.5662 14.157C69.5827 14.157 68.249 15.8763 68.249 18.4012C68.249 20.9491 69.5827 22.6563 71.5662 22.6563C73.5862 22.6563 74.9089 20.9844 74.9089 18.4012ZM86.7795 19.8905C86.9718 21.6099 88.6426 22.739 90.9267 22.739C93.1146 22.739 94.6892 21.6099 94.6892 20.0584C94.6892 18.7127 93.7401 17.9059 91.4913 17.3535L89.2437 16.812C86.0579 16.043 84.5782 14.5536 84.5782 12.1358C84.5782 9.14252 87.1872 7.08735 90.8914 7.08735C94.5566 7.08735 97.0695 9.14374 97.1546 12.1371H94.5335C94.3765 10.4056 92.9455 9.36033 90.8537 9.36033C88.7631 9.36033 87.332 10.4177 87.332 11.9558C87.332 13.1823 88.2447 13.9039 90.4813 14.4563L92.393 14.926C95.9524 15.7668 97.4309 17.1965 97.4309 19.7348C97.4309 22.98 94.8462 25.012 90.7344 25.012C86.8866 25.012 84.2898 23.0274 84.1219 19.8893L86.7795 19.8905ZM103.032 9.0829V12.0762H105.437V14.1326H103.032V21.1049C103.032 22.1878 103.514 22.6916 104.57 22.6916C104.856 22.6867 105.142 22.6673 105.425 22.6307V24.675C104.95 24.7638 104.467 24.804 103.983 24.7954C101.422 24.7954 100.423 23.8342 100.423 21.3811V14.1314H98.5857V12.075H100.423V9.08411L103.032 9.0829ZM106.831 18.3987C106.831 14.4198 109.175 11.9193 112.83 11.9193C116.497 11.9193 118.83 14.4198 118.83 18.3987C118.83 22.3898 116.509 24.8794 112.83 24.8794C109.152 24.8794 106.831 22.3898 106.831 18.3987ZM116.184 18.3987C116.184 15.6694 114.933 14.0584 112.829 14.0584C110.726 14.0584 109.477 15.6816 109.477 18.3987C109.477 21.1402 110.726 22.739 112.829 22.739C114.934 22.739 116.184 21.1402 116.184 18.3987ZM120.97 12.0762H123.445V14.23H123.506C123.674 13.5576 124.067 12.9634 124.621 12.5473C125.175 12.1311 125.856 11.9184 126.548 11.9448C126.848 11.9436 127.146 11.9752 127.438 12.0422V14.4697C127.06 14.3538 126.666 14.3004 126.271 14.3115C125.894 14.296 125.517 14.3624 125.168 14.5062C124.819 14.6499 124.505 14.8675 124.248 15.1441C123.991 15.4206 123.797 15.7496 123.679 16.1083C123.561 16.467 123.523 16.847 123.566 17.2221V24.7236H120.97V12.0762ZM139.407 21.0075C139.058 23.3036 136.822 24.8794 133.961 24.8794C130.282 24.8794 127.998 22.4142 127.998 18.4596C127.998 14.4928 130.294 11.9193 133.852 11.9193C137.352 11.9193 139.552 14.3237 139.552 18.1578V19.0461H130.619V19.2042C130.578 19.6696 130.636 20.1383 130.791 20.5793C130.945 21.0203 131.191 21.4236 131.512 21.7623C131.834 22.101 132.224 22.3675 132.657 22.5441C133.089 22.7207 133.554 22.8033 134.021 22.7865C134.635 22.8442 135.25 22.7022 135.777 22.3816C136.303 22.0611 136.711 21.5791 136.942 21.0075H139.407ZM130.631 17.233H136.954C136.977 16.8145 136.914 16.3956 136.768 16.0027C136.622 15.6097 136.396 15.2513 136.105 14.9498C135.814 14.6484 135.463 14.4104 135.075 14.2509C134.688 14.0914 134.271 14.0139 133.852 14.0231C133.429 14.0204 133.01 14.1014 132.619 14.2617C132.227 14.4219 131.872 14.658 131.572 14.9565C131.273 15.255 131.035 15.6098 130.874 16.0006C130.712 16.3913 130.63 16.8102 130.631 17.233Z" fill="black"/>
</g>
<defs>
<clipPath id="clip0_1_821">
<rect width="140" height="30.42" fill="white" transform="translate(0.5 0.219727)"/>
</clipPath>
</defs>
</svg>
