<svg width="31" height="36" viewBox="0 0 31 36" fill="none" xmlns="http://www.w3.org/2000/svg">
<path fill-rule="evenodd" clip-rule="evenodd" d="M28 3.38989V33.3899H3V3.38989H28ZM28 0.889893H3C1.61928 0.889893 0.5 2.00918 0.5 3.38989V33.3899C0.5 34.7706 1.61928 35.8899 3 35.8899H28C29.3807 35.8899 30.5 34.7706 30.5 33.3899V3.38989C30.5 2.00918 29.3807 0.889893 28 0.889893ZM6.75 27.1399H9.25V29.6399H6.75V27.1399ZM21.75 27.1399H24.25V29.6399H21.75V27.1399ZM6.75 20.8899H9.25V23.3899H6.75V20.8899ZM21.75 20.8899H24.25V23.3899H21.75V20.8899ZM6.75 14.6399H9.25V17.1399H6.75V14.6399ZM14.25 27.1399H16.75V29.6399H14.25V27.1399ZM14.25 20.8899H16.75V23.3899H14.25V20.8899ZM14.25 14.6399H16.75V17.1399H14.25V14.6399ZM21.75 14.6399H24.25V17.1399H21.75V14.6399ZM6.75 7.13989H24.25V10.8899H6.75V7.13989Z" fill="#0A146E"/>
</svg>
