<svg width="136" height="41" viewBox="0 0 136 41" fill="none" xmlns="http://www.w3.org/2000/svg">
<g clip-path="url(#clip0_1_805)">
<path d="M130.16 0.72998H5.16C2.39858 0.72998 0.160004 2.96856 0.160004 5.72998V35.73C0.160004 38.4914 2.39858 40.73 5.16 40.73H130.16C132.921 40.73 135.16 38.4914 135.16 35.73V5.72998C135.16 2.96856 132.921 0.72998 130.16 0.72998Z" fill="black"/>
<path d="M130.16 1.52998C131.274 1.52998 132.342 1.97248 133.13 2.76013C133.918 3.54778 134.36 4.61607 134.36 5.72998V35.73C134.36 36.8439 133.918 37.9122 133.13 38.6998C132.342 39.4875 131.274 39.93 130.16 39.93H5.16C4.04609 39.93 2.97781 39.4875 2.19016 38.6998C1.4025 37.9122 0.960004 36.8439 0.960004 35.73V5.72998C0.960004 4.61607 1.4025 3.54778 2.19016 2.76013C2.97781 1.97248 4.04609 1.52998 5.16 1.52998H130.16ZM130.16 0.72998H5.16C3.83392 0.72998 2.56215 1.25676 1.62447 2.19445C0.686788 3.13213 0.160004 4.4039 0.160004 5.72998V35.73C0.160004 37.0561 0.686788 38.3278 1.62447 39.2655C2.56215 40.2032 3.83392 40.73 5.16 40.73H130.16C131.486 40.73 132.758 40.2032 133.696 39.2655C134.633 38.3278 135.16 37.0561 135.16 35.73V5.72998C135.16 4.4039 134.633 3.13213 133.696 2.19445C132.758 1.25676 131.486 0.72998 130.16 0.72998Z" fill="#A6A6A6"/>
<path d="M47.58 10.97C47.597 11.3367 47.5393 11.7032 47.4103 12.047C47.2814 12.3908 47.084 12.7048 46.83 12.97C46.5464 13.2645 46.2039 13.4961 45.8248 13.6494C45.4458 13.8028 45.0386 13.8745 44.63 13.86C44.01 13.8551 43.4052 13.6674 42.8914 13.3203C42.3776 12.9732 41.9776 12.4822 41.7417 11.9089C41.5057 11.3355 41.4442 10.7052 41.5649 10.097C41.6855 9.48886 41.983 8.92981 42.42 8.48995C42.7072 8.19674 43.0515 7.96557 43.4317 7.81077C43.8118 7.65596 44.2196 7.58081 44.63 7.58995C45.0527 7.58854 45.4713 7.67362 45.86 7.83995C46.2218 7.98591 46.544 8.21551 46.8 8.50995L46.27 9.03995C46.0704 8.80255 45.8183 8.61481 45.5337 8.49159C45.2491 8.36837 44.9397 8.31303 44.63 8.32995C44.3176 8.32842 44.0082 8.38998 43.7202 8.51094C43.4322 8.6319 43.1716 8.80977 42.954 9.03389C42.7364 9.25801 42.5664 9.52375 42.454 9.8152C42.3416 10.1066 42.2892 10.4178 42.3 10.73C42.2934 11.1961 42.4251 11.6537 42.6783 12.0451C42.9316 12.4365 43.295 12.7442 43.7229 12.9292C44.1508 13.1143 44.6239 13.1685 45.0825 13.0849C45.5412 13.0014 45.9648 12.784 46.3 12.46C46.6077 12.1265 46.7852 11.6935 46.8 11.24H44.63V10.52H47.54C47.5667 10.6685 47.58 10.8191 47.58 10.97ZM52.16 8.46995H49.46V10.37H51.92V11.09H49.46V12.99H52.16V13.73H48.66V7.72995H52.16V8.46995ZM55.44 13.73H54.67V8.46995H52.99V7.72995H57.16V8.46995H55.44V13.73ZM60.1 13.73V7.72995H60.87V13.73H60.1ZM64.29 13.73H63.52V8.46995H61.84V7.72995H65.96V8.46995H64.29V13.73ZM73.77 12.95C73.1854 13.5313 72.3944 13.8576 71.57 13.8576C70.7455 13.8576 69.9546 13.5313 69.37 12.95C68.8018 12.3485 68.4852 11.5524 68.4852 10.725C68.4852 9.89751 68.8018 9.10143 69.37 8.49995C69.6581 8.2097 70.0009 7.97933 70.3785 7.82212C70.756 7.66492 71.161 7.58398 71.57 7.58398C71.979 7.58398 72.3839 7.66492 72.7615 7.82212C73.1391 7.97933 73.4818 8.2097 73.77 8.49995C74.3405 9.10028 74.6586 9.8968 74.6586 10.725C74.6586 11.5531 74.3405 12.3496 73.77 12.95ZM69.94 12.45C70.3729 12.8811 70.959 13.1231 71.57 13.1231C72.181 13.1231 72.7671 12.8811 73.2 12.45C73.6272 11.979 73.8639 11.3658 73.8639 10.73C73.8639 10.0941 73.6272 9.48093 73.2 9.00995C72.7671 8.57883 72.181 8.33678 71.57 8.33678C70.959 8.33678 70.3729 8.57883 69.94 9.00995C69.5127 9.48093 69.2761 10.0941 69.2761 10.73C69.2761 11.3658 69.5127 11.979 69.94 12.45ZM75.74 13.73V7.72995H76.68L79.6 12.4V7.72995H80.37V13.73H79.57L76.52 8.83995V13.73H75.74Z" fill="white" stroke="white" stroke-width="0.2" stroke-miterlimit="10"/>
<path d="M68.3 22.4801C67.4603 22.484 66.6406 22.7367 65.9443 23.2061C65.248 23.6754 64.7064 24.3406 64.3878 25.1175C64.0692 25.8944 63.9879 26.7483 64.1541 27.5714C64.3204 28.3945 64.7267 29.1499 65.3219 29.7423C65.917 30.3347 66.6743 30.7375 67.4982 30.8998C68.3221 31.0622 69.1756 30.9769 69.951 30.6546C70.7264 30.3324 71.389 29.7876 71.8551 29.0892C72.3212 28.3907 72.57 27.5698 72.57 26.7301C72.5782 26.168 72.4731 25.6101 72.2612 25.0894C72.0492 24.5688 71.7347 24.0962 71.3363 23.6996C70.9379 23.3031 70.4637 22.9907 69.9421 22.7812C69.4205 22.5717 68.862 22.4693 68.3 22.4801ZM68.3 29.3101C67.7836 29.3462 67.2682 29.2261 66.821 28.9655C66.3737 28.7048 66.0152 28.3157 65.792 27.8485C65.5689 27.3814 65.4914 26.858 65.5697 26.3462C65.648 25.8345 65.8784 25.3582 66.231 24.9791C66.5836 24.6001 67.042 24.3359 67.5468 24.2209C68.0515 24.1059 68.5792 24.1453 69.0612 24.3342C69.5432 24.523 69.9573 24.8525 70.2495 25.2798C70.5418 25.7071 70.6988 26.2124 70.7 26.7301C70.7161 27.0581 70.6664 27.386 70.5537 27.6945C70.4411 28.003 70.2678 28.2858 70.0442 28.5263C69.8205 28.7667 69.5509 28.96 69.2514 29.0946C68.9518 29.2292 68.6283 29.3025 68.3 29.3101ZM58.99 22.4801C58.1499 22.4821 57.3292 22.733 56.6316 23.2012C55.934 23.6694 55.3908 24.3339 55.0707 25.1106C54.7505 25.8874 54.6678 26.7416 54.8329 27.5653C54.998 28.3891 55.4036 29.1454 55.9983 29.7388C56.5931 30.3322 57.3504 30.736 58.1745 30.8992C58.9987 31.0623 59.8527 30.9776 60.6287 30.6556C61.4047 30.3337 62.0679 29.7889 62.5344 29.0902C63.001 28.3915 63.25 27.5702 63.25 26.7301C63.2582 26.168 63.1531 25.6101 62.9412 25.0894C62.7292 24.5688 62.4147 24.0962 62.0163 23.6996C61.6179 23.3031 61.1437 22.9907 60.6221 22.7812C60.1005 22.5717 59.542 22.4693 58.98 22.4801H58.99ZM58.99 29.3101C58.4733 29.3483 57.9572 29.23 57.5086 28.9707C57.0601 28.7113 56.7001 28.323 56.4754 27.8562C56.2506 27.3894 56.1717 26.8657 56.2487 26.3534C56.3258 25.8411 56.5553 25.3639 56.9073 24.9838C57.2594 24.6037 57.7177 24.3385 58.2227 24.2225C58.7276 24.1066 59.2558 24.1454 59.7384 24.3338C60.221 24.5222 60.6357 24.8516 60.9285 25.279C61.2213 25.7064 61.3786 26.212 61.38 26.7301C61.3961 27.0581 61.3464 27.386 61.2337 27.6945C61.1211 28.003 60.9478 28.2858 60.7242 28.5263C60.5005 28.7667 60.2309 28.96 59.9314 29.0946C59.6318 29.2292 59.3083 29.3025 58.98 29.3101H58.99ZM47.9 23.7901V25.5901H52.22C52.1523 26.4379 51.7999 27.2379 51.22 27.8601C50.7878 28.3003 50.2682 28.6452 49.6947 28.8726C49.1212 29.0999 48.5065 29.2047 47.89 29.1801C46.617 29.1801 45.3961 28.6744 44.4959 27.7742C43.5957 26.874 43.09 25.6531 43.09 24.3801C43.09 23.1071 43.5957 21.8862 44.4959 20.986C45.3961 20.0858 46.617 19.5801 47.89 19.5801C49.1078 19.5602 50.2838 20.0241 51.16 20.8701L52.43 19.6001C51.8385 19.0011 51.1328 18.527 50.3546 18.2058C49.5765 17.8846 48.7418 17.7228 47.9 17.7301C47.011 17.6955 46.1242 17.8407 45.2926 18.1571C44.4611 18.4734 43.702 18.9544 43.0608 19.5711C42.4196 20.1878 41.9094 20.9277 41.561 21.7463C41.2126 22.5649 41.033 23.4454 41.033 24.3351C41.033 25.2248 41.2126 26.1053 41.561 26.9239C41.9094 27.7425 42.4196 28.4823 43.0608 29.0991C43.702 29.7158 44.4611 30.1968 45.2926 30.5131C46.1242 30.8295 47.011 30.9747 47.9 30.9401C48.756 30.9788 49.6103 30.8337 50.4055 30.5146C51.2006 30.1955 51.9182 29.7097 52.51 29.0901C53.5577 27.939 54.1171 26.4259 54.07 24.8701C54.0732 24.4911 54.0398 24.1127 53.97 23.7401L47.9 23.7901ZM93.21 25.1901C92.9492 24.4228 92.4615 23.7529 91.8115 23.2689C91.1615 22.785 90.3798 22.5099 89.57 22.4801C89.023 22.479 88.4816 22.5902 87.9792 22.8066C87.4769 23.0231 87.0243 23.3403 86.6494 23.7386C86.2745 24.137 85.9853 24.6079 85.7996 25.1225C85.614 25.637 85.5358 26.1842 85.57 26.7301C85.5579 27.289 85.6585 27.8446 85.8659 28.3638C86.0733 28.8829 86.3832 29.355 86.7771 29.7517C87.171 30.1484 87.6408 30.4616 88.1585 30.6727C88.6761 30.8837 89.231 30.9883 89.79 30.9801C90.4895 30.9839 91.179 30.8141 91.7968 30.486C92.4146 30.1579 92.9414 29.6817 93.33 29.1001L91.88 28.1001C91.6636 28.4609 91.3572 28.7593 90.9909 28.9661C90.6245 29.173 90.2107 29.2812 89.79 29.2801C89.3568 29.2966 88.9287 29.1824 88.5613 28.9523C88.194 28.7223 87.9043 28.387 87.73 27.9901L93.42 25.6401L93.21 25.1901ZM87.41 26.6101C87.3897 26.3008 87.4314 25.9905 87.5325 25.6975C87.6337 25.4045 87.7922 25.1346 87.999 24.9037C88.2057 24.6727 88.4565 24.4854 88.7365 24.3525C89.0166 24.2197 89.3204 24.1441 89.63 24.1301C89.9526 24.1088 90.2743 24.1828 90.5552 24.3428C90.8361 24.5028 91.0638 24.7418 91.21 25.0301L87.41 26.6101ZM82.79 30.7301H84.66V18.2301H82.79V30.7301ZM79.73 23.4301H79.66C79.3782 23.115 79.0329 22.863 78.6469 22.6907C78.2609 22.5183 77.8428 22.4295 77.42 22.4301C76.3272 22.4831 75.2967 22.9545 74.542 23.7467C73.7873 24.5388 73.3663 25.591 73.3663 26.6851C73.3663 27.7792 73.7873 28.8314 74.542 29.6235C75.2967 30.4157 76.3272 30.8871 77.42 30.9401C77.8438 30.9472 78.2639 30.8614 78.651 30.6886C79.038 30.5158 79.3824 30.2603 79.66 29.9401H79.72V30.5501C79.72 32.1801 78.85 33.0501 77.45 33.0501C76.9837 33.0392 76.5312 32.8898 76.1501 32.6209C75.7691 32.352 75.4766 31.9757 75.31 31.5401L73.68 32.2201C73.9868 32.9665 74.5096 33.6041 75.1814 34.0513C75.8531 34.4986 76.6431 34.7349 77.45 34.7301C79.64 34.7301 81.45 33.4401 81.45 30.3001V22.7301H79.73V23.4301ZM77.59 29.3101C76.945 29.2533 76.3446 28.9568 75.9073 28.4793C75.47 28.0017 75.2274 27.3776 75.2274 26.7301C75.2274 26.0825 75.47 25.4585 75.9073 24.9809C76.3446 24.5034 76.945 24.2069 77.59 24.1501C77.9098 24.1665 78.2231 24.2468 78.5115 24.3861C78.7998 24.5255 79.0573 24.7212 79.2689 24.9616C79.4804 25.202 79.6417 25.4824 79.7432 25.7861C79.8447 26.0898 79.8844 26.4108 79.86 26.7301C79.8873 27.0508 79.8492 27.3737 79.7482 27.6793C79.6471 27.9848 79.4851 28.2667 79.272 28.5079C79.0589 28.7491 78.799 28.9445 78.5082 29.0824C78.2174 29.2203 77.9016 29.2977 77.58 29.3101H77.59ZM101.97 18.2301H97.5V30.7301H99.37V25.9901H101.98C102.513 26.0284 103.048 25.9565 103.552 25.7788C104.056 25.6012 104.518 25.3216 104.909 24.9576C105.3 24.5936 105.612 24.1528 105.825 23.6629C106.039 23.173 106.149 22.6444 106.149 22.1101C106.149 21.5758 106.039 21.0472 105.825 20.5573C105.612 20.0674 105.3 19.6266 104.909 19.2626C104.518 18.8986 104.056 18.619 103.552 18.4414C103.048 18.2637 102.513 18.1918 101.98 18.2301H101.97ZM101.97 24.2301H99.36V19.9701H102.01C102.579 19.9701 103.124 20.1961 103.527 20.5984C103.929 21.0006 104.155 21.5462 104.155 22.1151C104.155 22.684 103.929 23.2296 103.527 23.6318C103.124 24.0341 102.579 24.2601 102.01 24.2601L101.97 24.2301ZM113.5 22.4301C112.819 22.3894 112.141 22.5485 111.55 22.8878C110.958 23.2271 110.479 23.7319 110.17 24.3401L111.83 25.0301C111.994 24.7284 112.242 24.4809 112.543 24.3175C112.845 24.1542 113.188 24.0821 113.53 24.1101C113.767 24.0824 114.008 24.1022 114.238 24.1684C114.467 24.2346 114.681 24.3459 114.868 24.4958C115.054 24.6457 115.208 24.8311 115.322 25.0413C115.436 25.2515 115.506 25.4823 115.53 25.7201V25.8501C114.929 25.5321 114.26 25.3672 113.58 25.3701C111.79 25.3701 109.98 26.3701 109.98 28.1801C109.998 28.566 110.093 28.9445 110.259 29.2932C110.425 29.6418 110.66 29.9535 110.949 30.2099C111.238 30.4663 111.576 30.6621 111.942 30.7858C112.308 30.9095 112.695 30.9586 113.08 30.9301C113.551 30.9639 114.022 30.8703 114.445 30.6592C114.867 30.4481 115.225 30.1271 115.48 29.7301H115.54V30.7301H117.34V25.9201C117.34 23.7301 115.68 22.4601 113.55 22.4601L113.5 22.4301ZM113.27 29.2801C112.66 29.2801 111.81 28.9701 111.81 28.2201C111.81 27.2201 112.87 26.8901 113.81 26.8901C114.404 26.8754 114.991 27.0205 115.51 27.3101C115.447 27.8515 115.191 28.3521 114.789 28.7196C114.387 29.0871 113.865 29.2968 113.32 29.3101L113.27 29.2801ZM123.9 22.7301L121.76 28.1501H121.7L119.48 22.7301H117.48L120.81 30.3101L118.91 34.5201H120.86L125.98 22.7301H123.9ZM107.09 30.7301H108.96V18.2301H107.09V30.7301Z" fill="white"/>
<path d="M10.6 8.2702C10.2741 8.66131 10.1095 9.16199 10.14 9.6702V31.7902C10.1095 32.2984 10.2741 32.7991 10.6 33.1902L10.67 33.2602L23.06 20.8802V20.5902L10.67 8.2002L10.6 8.2702Z" fill="url(#paint0_linear_1_805)"/>
<path d="M27.16 25.0102L23.06 20.8802V20.5902L27.16 16.4502L27.25 16.5002L32.16 19.2902C33.56 20.0802 33.56 21.3802 32.16 22.1802L27.27 24.9602L27.16 25.0102Z" fill="url(#paint1_linear_1_805)"/>
<path d="M27.28 24.95L23.06 20.73L10.6 33.19C10.8854 33.4408 11.2494 33.5841 11.6292 33.5951C12.009 33.606 12.3807 33.484 12.68 33.25L27.29 24.95" fill="url(#paint2_linear_1_805)"/>
<path d="M27.28 16.51L12.67 8.21003C12.3706 7.97604 11.999 7.85398 11.6192 7.86494C11.2394 7.87589 10.8754 8.01918 10.59 8.27003L23.06 20.73L27.28 16.51Z" fill="url(#paint3_linear_1_805)"/>
<path opacity="0.2" d="M27.16 24.8599L12.67 33.1099C12.3813 33.3257 12.0305 33.4424 11.67 33.4424C11.3095 33.4424 10.9587 33.3257 10.67 33.1099L10.6 33.1799L10.67 33.2499C10.9581 33.4673 11.3091 33.5849 11.67 33.5849C12.0309 33.5849 12.382 33.4673 12.67 33.2499L27.28 24.9499L27.16 24.8599Z" fill="black"/>
<path opacity="0.12" d="M10.6 33.05C10.2741 32.6589 10.1095 32.1582 10.14 31.65V31.8C10.1095 32.3082 10.2741 32.8089 10.6 33.2L10.67 33.13L10.6 33.05ZM32.16 22.03L27.16 24.86L27.25 24.95L32.16 22.17C32.4386 22.0391 32.6777 21.8371 32.8533 21.5842C33.0289 21.3314 33.1347 21.0367 33.16 20.73C33.1038 21.0087 32.9844 21.2708 32.811 21.4962C32.6377 21.7215 32.415 21.9041 32.16 22.03Z" fill="black"/>
<path opacity="0.25" d="M12.67 8.34992L32.16 19.4299C32.415 19.5558 32.6377 19.7384 32.811 19.9637C32.9844 20.1891 33.1038 20.4512 33.16 20.7299C33.1347 20.4232 33.0289 20.1285 32.8533 19.8757C32.6778 19.6228 32.4386 19.4208 32.16 19.2899L12.67 8.20992C11.27 7.41992 10.13 8.07992 10.13 9.67992V9.82992C10.16 8.21992 11.28 7.55992 12.67 8.34992Z" fill="white"/>
</g>
<defs>
<linearGradient id="paint0_linear_1_805" x1="21.96" y1="9.4402" x2="5.18" y2="26.2202" gradientUnits="userSpaceOnUse">
<stop stop-color="#00A0FF"/>
<stop offset="0.01" stop-color="#00A1FF"/>
<stop offset="0.26" stop-color="#00BEFF"/>
<stop offset="0.51" stop-color="#00D2FF"/>
<stop offset="0.76" stop-color="#00DFFF"/>
<stop offset="1" stop-color="#00E3FF"/>
</linearGradient>
<linearGradient id="paint1_linear_1_805" x1="33.99" y1="20.7302" x2="9.8" y2="20.7302" gradientUnits="userSpaceOnUse">
<stop stop-color="#FFE000"/>
<stop offset="0.41" stop-color="#FFBD00"/>
<stop offset="0.78" stop-color="#FFA500"/>
<stop offset="1" stop-color="#FF9C00"/>
</linearGradient>
<linearGradient id="paint2_linear_1_805" x1="24.99" y1="23.03" x2="2.23001" y2="45.78" gradientUnits="userSpaceOnUse">
<stop stop-color="#FF3A44"/>
<stop offset="1" stop-color="#C31162"/>
</linearGradient>
<linearGradient id="paint3_linear_1_805" x1="7.46" y1="0.910029" x2="17.62" y2="11.07" gradientUnits="userSpaceOnUse">
<stop stop-color="#32A071"/>
<stop offset="0.07" stop-color="#2DA771"/>
<stop offset="0.48" stop-color="#15CF74"/>
<stop offset="0.8" stop-color="#06E775"/>
<stop offset="1" stop-color="#00F076"/>
</linearGradient>
<clipPath id="clip0_1_805">
<rect width="135" height="40" fill="white" transform="translate(0.160004 0.72998)"/>
</clipPath>
</defs>
</svg>
