<svg width="121" height="41" viewBox="0 0 121 41" fill="none" xmlns="http://www.w3.org/2000/svg">
<g clip-path="url(#clip0_1_792)">
<path d="M110.631 0.730469H10.0347C9.66769 0.730469 9.3047 0.730469 8.93972 0.732469C8.63373 0.734469 8.32974 0.740468 8.02075 0.745468C7.34929 0.7528 6.67938 0.811301 6.01682 0.920462C5.35556 1.03267 4.71504 1.24404 4.11688 1.54744C3.51861 1.85378 2.97201 2.25193 2.49693 2.7274C2.0202 3.20071 1.6228 3.74769 1.31997 4.34735C1.01606 4.94618 0.805308 5.58787 0.694993 6.25028C0.583725 6.91197 0.523881 7.58128 0.515999 8.25222C0.505999 8.55921 0.505999 8.8672 0.500999 9.17319V32.2894C0.505999 32.5994 0.506999 32.8994 0.515999 33.2104C0.524207 33.8813 0.584386 34.5507 0.695993 35.2123C0.805597 35.8754 1.01603 36.5178 1.31997 37.1172C1.62309 37.7146 2.02088 38.259 2.49793 38.7292C2.97067 39.2062 3.51694 39.6043 4.11588 39.9082C4.71438 40.2122 5.35519 40.4246 6.01682 40.5381C6.67944 40.6471 7.34929 40.7062 8.02075 40.7151C8.33074 40.7221 8.63373 40.7261 8.93972 40.7261C9.3057 40.7281 9.66769 40.7281 10.0347 40.7281H110.631C110.991 40.7281 111.355 40.7281 111.715 40.7261C112.019 40.7261 112.332 40.7221 112.637 40.7161C113.307 40.7074 113.976 40.6479 114.637 40.5381C115.301 40.4237 115.944 40.2114 116.545 39.9082C117.144 39.6042 117.69 39.2061 118.162 38.7292C118.638 38.2565 119.037 37.7119 119.344 37.1152C119.646 36.5154 119.855 35.8731 119.963 35.2103C120.074 34.5485 120.136 33.8794 120.148 33.2084C120.152 32.8984 120.152 32.5984 120.152 32.2874C120.16 31.9234 120.16 31.5624 120.16 31.1934V10.2661C120.16 9.90016 120.16 9.53617 120.152 9.17419C120.152 8.8682 120.152 8.56021 120.148 8.25422C120.136 7.5829 120.074 6.9134 119.963 6.25128C119.854 5.58921 119.645 4.94756 119.343 4.34835C118.726 3.1455 117.748 2.1663 116.545 1.54844C115.944 1.24572 115.301 1.0344 114.637 0.921462C113.976 0.811504 113.307 0.752665 112.637 0.745468C112.332 0.740468 112.019 0.734469 111.715 0.732469C111.355 0.730469 110.99 0.730469 110.631 0.730469Z" fill="#A6A6A6"/>
<path d="M8.94475 39.8542C8.63976 39.8542 8.34277 39.8502 8.04078 39.8442C7.41427 39.8358 6.78925 39.781 6.17084 39.6802C5.5947 39.5808 5.03659 39.3961 4.5149 39.1322C3.9978 38.8706 3.52613 38.5276 3.11794 38.1163C2.70402 37.7094 2.35948 37.2375 2.09798 36.7193C1.83305 36.198 1.64959 35.6392 1.554 35.0624C1.45129 34.4425 1.3958 33.8157 1.388 33.1874C1.381 32.9774 1.373 32.2744 1.373 32.2744V9.17522C1.373 9.17522 1.382 8.48324 1.388 8.28025C1.39545 7.65299 1.45061 7.0272 1.553 6.40831C1.6486 5.82985 1.83205 5.2694 2.09698 4.74636C2.35768 4.22868 2.70043 3.7566 3.11194 3.34841C3.52289 2.9362 3.99595 2.59102 4.5139 2.32544C5.03452 2.06235 5.59172 1.87897 6.16684 1.78146C6.78718 1.68003 7.41425 1.62521 8.04278 1.61747L8.94475 1.60547H111.71L112.623 1.61847C113.246 1.62569 113.867 1.67984 114.481 1.78046C115.062 1.87918 115.625 2.06386 116.152 2.32844C117.19 2.86331 118.034 3.70948 118.567 4.74836C118.828 5.26789 119.008 5.82383 119.102 6.39731C119.206 7.02121 119.264 7.65187 119.276 8.28425C119.279 8.56724 119.279 8.87223 119.279 9.17422C119.287 9.5492 119.287 9.90619 119.287 10.2662V31.1945C119.287 31.5575 119.287 31.9125 119.279 32.2694C119.279 32.5944 119.279 32.8924 119.275 33.1994C119.264 33.8204 119.207 34.4397 119.105 35.0524C119.012 35.6334 118.83 36.1966 118.565 36.7223C118.301 37.2348 117.959 37.7026 117.549 38.1083C117.14 38.5219 116.668 38.867 116.149 39.1302C115.624 39.3963 115.062 39.5817 114.481 39.6802C113.863 39.7811 113.238 39.8356 112.612 39.8432C112.319 39.8502 112.012 39.8542 111.715 39.8542L110.631 39.8562L8.94475 39.8542Z" fill="black"/>
<path d="M25.2687 21.0302C25.2796 20.1958 25.5013 19.3776 25.9132 18.6519C26.3251 17.9262 26.9138 17.3164 27.6247 16.8792C27.1731 16.2341 26.5773 15.7033 25.8847 15.3287C25.1921 14.9541 24.4217 14.7461 23.6347 14.7212C21.9547 14.5452 20.3267 15.7262 19.4707 15.7262C18.5987 15.7262 17.2807 14.7382 15.8627 14.7682C14.945 14.7978 14.0506 15.0647 13.2667 15.5428C12.4828 16.0208 11.8361 16.6939 11.3897 17.4962C9.45567 20.8442 10.8987 25.7652 12.7507 28.4722C13.6777 29.7972 14.7607 31.2772 16.1787 31.2252C17.5657 31.1672 18.0837 30.3402 19.7587 30.3402C21.4167 30.3402 21.9027 31.2252 23.3487 31.1922C24.8377 31.1672 25.7747 29.8602 26.6687 28.5222C27.3351 27.5781 27.8482 26.5345 28.1887 25.4302C27.3237 25.0645 26.5855 24.4523 26.0662 23.6698C25.547 22.8873 25.2696 21.9693 25.2687 21.0302ZM22.5367 12.9402C23.3483 11.9662 23.7482 10.7143 23.6517 9.4502C22.4116 9.58037 21.2662 10.1731 20.4437 11.1102C20.0416 11.5677 19.7337 12.0999 19.5374 12.6764C19.3411 13.2529 19.2603 13.8624 19.2997 14.4702C19.9198 14.4766 20.5333 14.3422 21.094 14.0772C21.6547 13.8122 22.148 13.4234 22.5367 12.9402Z" fill="white"/>
<path d="M42.8006 27.8698H38.0687L36.9318 31.2257H34.9268L39.4107 18.8081H41.4936L45.9765 31.2257H43.9375L42.8006 27.8698ZM38.5577 26.3198H42.3096L40.4597 20.874H40.4087L38.5577 26.3198ZM55.6582 26.6998C55.6582 29.5127 54.1522 31.3196 51.8793 31.3196C51.3039 31.3497 50.7316 31.2171 50.228 30.9372C49.7244 30.6572 49.3097 30.2412 49.0314 29.7367H48.9884V34.2206H47.1284V22.172H48.9284V23.6779H48.9614C49.2524 23.1756 49.6742 22.7615 50.1819 22.4798C50.6895 22.1981 51.264 22.0592 51.8443 22.078C54.1422 22.078 55.6582 23.8939 55.6582 26.6998ZM53.7482 26.6998C53.7482 24.8669 52.8002 23.6619 51.3553 23.6619C49.9353 23.6619 48.9804 24.8919 48.9804 26.6998C48.9804 28.5237 49.9353 29.7457 51.3553 29.7457C52.8002 29.7457 53.7482 28.5487 53.7482 26.6998ZM65.6228 26.6998C65.6228 29.5127 64.1169 31.3196 61.8439 31.3196C61.2685 31.3497 60.6963 31.2171 60.1927 30.9372C59.689 30.6572 59.2744 30.2412 58.996 29.7367H58.953V34.2206H57.0941V22.172H58.893V23.6779H58.927C59.2181 23.1756 59.6399 22.7615 60.1475 22.4798C60.6552 22.1981 61.2297 22.0592 61.8099 22.078C64.1079 22.078 65.6228 23.8939 65.6228 26.6998ZM63.7129 26.6998C63.7129 24.8669 62.7649 23.6619 61.32 23.6619C59.9 23.6619 58.945 24.8919 58.945 26.6998C58.945 28.5237 59.9 29.7457 61.32 29.7457C62.7649 29.7457 63.7129 28.5487 63.7129 26.6998ZM72.2076 27.7658C72.3456 28.9977 73.5416 29.8057 75.1775 29.8057C76.7435 29.8057 77.8704 28.9977 77.8704 27.8868C77.8704 26.9228 77.1904 26.3468 75.5805 25.9508L73.9715 25.5628C71.6916 25.0129 70.6327 23.9459 70.6327 22.215C70.6327 20.073 72.4996 18.6011 75.1515 18.6011C77.7754 18.6011 79.5744 20.073 79.6344 22.215H77.7584C77.6464 20.976 76.6225 20.228 75.1245 20.228C73.6266 20.228 72.6036 20.985 72.6036 22.086C72.6036 22.9639 73.2576 23.4809 74.8585 23.8759L76.2265 24.2119C78.7744 24.8149 79.8323 25.8378 79.8323 27.6548C79.8323 29.9777 77.9824 31.4326 75.0395 31.4326C72.2856 31.4326 70.4257 30.0127 70.3057 27.7658H72.2076ZM83.8432 20.03V22.172H85.5652V23.6439H83.8432V28.6347C83.8432 29.4107 84.1882 29.7717 84.9452 29.7717C85.1494 29.7681 85.3534 29.7538 85.5562 29.7287V31.1917C85.216 31.2552 84.8702 31.284 84.5242 31.2777C82.6912 31.2777 81.9763 30.5887 81.9763 28.8327V23.6439H80.6603V22.172H81.9763V20.03H83.8432ZM86.5621 26.6998C86.5621 23.8509 88.2401 22.061 90.856 22.061C93.4809 22.061 95.1508 23.8509 95.1508 26.6998C95.1508 29.5557 93.4899 31.3376 90.856 31.3376C88.2231 31.3376 86.5621 29.5557 86.5621 26.6998ZM93.2569 26.6998C93.2569 24.7459 92.3619 23.5919 90.856 23.5919C89.35 23.5919 88.4561 24.7539 88.4561 26.6998C88.4561 28.6617 89.35 29.8057 90.856 29.8057C92.3619 29.8057 93.2569 28.6617 93.2569 26.6998ZM96.6828 22.172H98.4557V23.7129H98.4987C98.6189 23.232 98.9008 22.807 99.2972 22.5093C99.6936 22.2116 100.18 22.0593 100.676 22.078C100.89 22.0771 101.104 22.1002 101.313 22.147V23.8849C101.042 23.8024 100.76 23.7646 100.478 23.7729C100.208 23.7619 99.9385 23.8095 99.6886 23.9124C99.4388 24.0153 99.2141 24.171 99.0301 24.3689C98.8461 24.5667 98.7071 24.8021 98.6226 25.0588C98.5381 25.3154 98.5102 25.5873 98.5407 25.8558V31.2257H96.6828V22.172ZM109.88 28.5667C109.63 30.2097 108.03 31.3376 105.982 31.3376C103.349 31.3376 101.714 29.5737 101.714 26.7428C101.714 23.9029 103.358 22.061 105.903 22.061C108.409 22.061 109.983 23.7809 109.983 26.5268V27.1638H103.59V27.2758C103.56 27.609 103.602 27.9446 103.712 28.2604C103.822 28.5762 103.998 28.865 104.229 29.1075C104.459 29.35 104.739 29.5407 105.048 29.6669C105.358 29.7932 105.691 29.8521 106.025 29.8397C106.464 29.8807 106.905 29.779 107.281 29.5497C107.658 29.3204 107.95 28.9756 108.115 28.5667H109.88ZM103.599 25.8648H108.124C108.141 25.5653 108.096 25.2655 107.991 24.9843C107.887 24.7031 107.725 24.4466 107.517 24.2308C107.308 24.015 107.057 23.8447 106.78 23.7304C106.502 23.6162 106.204 23.5605 105.904 23.5669C105.602 23.5651 105.302 23.6232 105.022 23.7379C104.742 23.8526 104.487 24.0217 104.273 24.2353C104.058 24.449 103.888 24.703 103.773 24.9827C103.657 25.2623 103.598 25.5622 103.599 25.8648Z" fill="white"/>
<path d="M38.3247 9.46098C38.7144 9.43303 39.1053 9.49189 39.4695 9.63332C39.8336 9.77476 40.1618 9.99524 40.4304 10.2789C40.699 10.5625 40.9013 10.9022 41.0228 11.2735C41.1442 11.6447 41.1817 12.0383 41.1326 12.4259C41.1326 14.3318 40.1027 15.4278 38.3247 15.4278H36.1698V9.45998L38.3247 9.46098ZM37.0968 14.5838H38.2217C38.5001 14.6003 38.7786 14.5546 39.037 14.4499C39.2954 14.3452 39.5273 14.1843 39.7156 13.9787C39.904 13.7732 40.0442 13.5282 40.1261 13.2617C40.2079 12.9952 40.2293 12.7137 40.1887 12.4379C40.2264 12.1631 40.2029 11.8834 40.1198 11.6188C40.0368 11.3542 39.8962 11.1112 39.7082 10.9072C39.5203 10.7033 39.2895 10.5435 39.0325 10.4392C38.7755 10.3349 38.4987 10.2887 38.2217 10.304H37.0968V14.5838ZM42.1786 13.1739C42.1514 12.8785 42.1861 12.5807 42.2804 12.2995C42.3748 12.0183 42.5268 11.7599 42.7266 11.5408C42.9265 11.3216 43.1699 11.1466 43.4412 11.0268C43.7126 10.9071 44.0059 10.8452 44.3025 10.8452C44.5991 10.8452 44.8925 10.9071 45.1638 11.0268C45.4352 11.1466 45.6785 11.3216 45.8784 11.5408C46.0783 11.7599 46.2303 12.0183 46.3246 12.2995C46.419 12.5807 46.4537 12.8785 46.4265 13.1739C46.456 13.4705 46.4231 13.7699 46.3298 14.053C46.2365 14.3361 46.085 14.5965 45.8849 14.8175C45.6849 15.0385 45.4408 15.2151 45.1683 15.3359C44.8958 15.4568 44.6011 15.5192 44.303 15.5192C44.005 15.5192 43.7102 15.4568 43.4377 15.3359C43.1653 15.2151 42.9212 15.0385 42.7211 14.8175C42.5211 14.5965 42.3695 14.3361 42.2763 14.053C42.183 13.7699 42.1491 13.4705 42.1786 13.1739ZM45.5125 13.1739C45.5125 12.1979 45.0735 11.6269 44.3045 11.6269C43.5316 11.6269 43.0976 12.1979 43.0976 13.1739C43.0976 14.1578 43.5316 14.7238 44.3045 14.7238C45.0745 14.7238 45.5125 14.1538 45.5125 13.1739ZM52.0713 15.4278H51.1493L50.2193 12.1109H50.1493L49.2224 15.4278H48.3094L47.0674 10.9249H47.9694L48.7754 14.3608H48.8424L49.7683 10.9249H50.6203L51.5463 14.3608H51.6163L52.4193 10.9249H53.3082L52.0713 15.4278ZM54.3522 10.9249H55.2072V11.6399H55.2732C55.3859 11.383 55.5759 11.1677 55.8168 11.0239C56.0577 10.8801 56.3375 10.8151 56.6171 10.8379C56.8362 10.8215 57.0563 10.8545 57.2609 10.9346C57.4655 11.0147 57.6495 11.1398 57.7992 11.3007C57.9489 11.4615 58.0605 11.654 58.1257 11.8638C58.191 12.0737 58.2082 12.2955 58.1761 12.5129V15.4278H57.2871V12.7359C57.2871 12.0119 56.9731 11.6519 56.3151 11.6519C56.1664 11.645 56.0179 11.6704 55.8799 11.7262C55.7419 11.782 55.6176 11.8671 55.5155 11.9754C55.4134 12.0838 55.336 12.2129 55.2884 12.354C55.2409 12.4951 55.2244 12.6448 55.2402 12.7929V15.4278H54.3522V10.9249ZM59.592 9.16699H60.48V15.4268H59.592V9.16699ZM61.7159 13.1739C61.6879 12.8781 61.722 12.5798 61.816 12.298C61.91 12.0162 62.0618 11.7571 62.2617 11.5374C62.4616 11.3177 62.7052 11.1421 62.9769 11.022C63.2485 10.9019 63.5423 10.8398 63.8394 10.8398C64.1364 10.8398 64.4302 10.9019 64.7019 11.022C64.9736 11.1421 65.2172 11.3177 65.4171 11.5374C65.617 11.7571 65.7688 12.0162 65.8628 12.298C65.9567 12.5798 65.9908 12.8781 65.9628 13.1739C65.9923 13.4705 65.9594 13.7699 65.8661 14.053C65.7729 14.3361 65.6213 14.5965 65.4213 14.8175C65.2212 15.0385 64.9771 15.2151 64.7046 15.3359C64.4322 15.4568 64.1374 15.5192 63.8394 15.5192C63.5413 15.5192 63.2466 15.4568 62.9741 15.3359C62.7016 15.2151 62.4575 15.0385 62.2575 14.8175C62.0574 14.5965 61.9059 14.3361 61.8126 14.053C61.7193 13.7699 61.6864 13.4705 61.7159 13.1739ZM65.0488 13.1739C65.0488 12.1979 64.6098 11.6269 63.8409 11.6269C63.0679 11.6269 62.6339 12.1979 62.6339 13.1739C62.6339 14.1578 63.0679 14.7238 63.8409 14.7238C64.6108 14.7238 65.0488 14.1538 65.0488 13.1739ZM66.8978 14.1538C66.8978 13.3439 67.5017 12.8759 68.5737 12.8099L69.7937 12.7399V12.3509C69.7937 11.8759 69.4787 11.6069 68.8717 11.6069C68.3747 11.6069 68.0317 11.7889 67.9327 12.1069H67.0728C67.1628 11.3339 67.8907 10.8369 68.9127 10.8369C70.0407 10.8369 70.6776 11.3999 70.6776 12.3509V15.4278H69.8227V14.7948H69.7527C69.6099 15.0219 69.4095 15.2069 69.1718 15.3312C68.934 15.4554 68.6676 15.5142 68.3997 15.5018C68.2107 15.5215 68.0196 15.5013 67.8388 15.4426C67.6579 15.3839 67.4915 15.288 67.35 15.161C67.2086 15.034 67.0954 14.8787 67.0176 14.7052C66.9399 14.5318 66.8984 14.3439 66.8978 14.1538ZM69.7927 13.7698V13.3929L68.6927 13.4628C68.0727 13.5048 67.7927 13.7158 67.7927 14.1128C67.7927 14.5178 68.1437 14.7528 68.6267 14.7528C68.7682 14.7671 68.9112 14.7528 69.0471 14.7107C69.183 14.6687 69.309 14.5998 69.4178 14.5081C69.5265 14.4164 69.6157 14.3039 69.6801 14.177C69.7445 14.0502 69.7828 13.9117 69.7927 13.7698ZM71.8456 13.1739C71.8456 11.7509 72.5776 10.8499 73.7155 10.8499C73.9968 10.8371 74.2759 10.9046 74.5203 11.0445C74.7646 11.1844 74.9641 11.3909 75.0955 11.6399H75.1625V9.16699H76.0505V15.4268H75.1995V14.7168H75.1295C74.9877 14.9643 74.7809 15.1683 74.5315 15.3067C74.2821 15.445 73.9996 15.5125 73.7145 15.5018C72.5696 15.5018 71.8456 14.6008 71.8456 13.1739ZM72.7636 13.1739C72.7636 14.1288 73.2136 14.7038 73.9665 14.7038C74.7165 14.7038 75.1785 14.1208 75.1785 13.1779C75.1785 12.2399 74.7105 11.6479 73.9665 11.6479C73.2186 11.6479 72.7636 12.2279 72.7636 13.1739ZM79.7273 13.1739C79.6993 12.8781 79.7334 12.5798 79.8274 12.298C79.9214 12.0162 80.0732 11.7571 80.2731 11.5374C80.473 11.3177 80.7166 11.1421 80.9883 11.022C81.2599 10.9019 81.5537 10.8398 81.8508 10.8398C82.1478 10.8398 82.4416 10.9019 82.7133 11.022C82.985 11.1421 83.2286 11.3177 83.4285 11.5374C83.6284 11.7571 83.7802 12.0162 83.8741 12.298C83.9681 12.5798 84.0022 12.8781 83.9742 13.1739C84.0037 13.4705 83.9708 13.7699 83.8775 14.053C83.7843 14.3361 83.6327 14.5965 83.4327 14.8175C83.2326 15.0385 82.9885 15.2151 82.716 15.3359C82.4436 15.4568 82.1488 15.5192 81.8508 15.5192C81.5527 15.5192 81.258 15.4568 80.9855 15.3359C80.713 15.2151 80.4689 15.0385 80.2689 14.8175C80.0688 14.5965 79.9173 14.3361 79.824 14.053C79.7307 13.7699 79.6978 13.4705 79.7273 13.1739ZM83.0602 13.1739C83.0602 12.1979 82.6222 11.6269 81.8523 11.6269C81.0803 11.6269 80.6453 12.1979 80.6453 13.1739C80.6453 14.1578 81.0803 14.7238 81.8523 14.7238C82.6222 14.7238 83.0602 14.1538 83.0602 13.1739ZM85.1672 10.9249H86.0221V11.6399H86.0881C86.2008 11.383 86.3909 11.1677 86.6318 11.0239C86.8727 10.8801 87.1525 10.8151 87.4321 10.8379C87.6512 10.8215 87.8712 10.8545 88.0758 10.9346C88.2805 11.0147 88.4644 11.1398 88.6142 11.3007C88.7639 11.4615 88.8755 11.654 88.9407 11.8638C89.006 12.0737 89.0232 12.2955 88.991 12.5129V15.4278H88.1021V12.7359C88.1021 12.0119 87.7881 11.6519 87.1301 11.6519C86.9814 11.645 86.8329 11.6704 86.6949 11.7262C86.5569 11.782 86.4326 11.8671 86.3305 11.9754C86.2284 12.0838 86.1509 12.2129 86.1034 12.354C86.0559 12.4951 86.0394 12.6448 86.0551 12.7929V15.4278H85.1662L85.1672 10.9249ZM94.0119 9.80397V10.9449H94.9878V11.6939H94.0119V14.0088C94.0119 14.4808 94.2059 14.6878 94.6488 14.6878C94.7621 14.6873 94.8753 14.6803 94.9878 14.6668V15.4068C94.8281 15.4356 94.6662 15.4509 94.5039 15.4528C93.5159 15.4528 93.1229 15.1048 93.1229 14.2368V11.6939H92.4079V10.9449H93.1229V9.80397H94.0119ZM96.2018 9.16699H97.0818V11.6479H97.1518C97.2701 11.3886 97.4655 11.172 97.7114 11.0278C97.9572 10.8836 98.2416 10.8187 98.5257 10.8419C98.7436 10.8301 98.9615 10.8666 99.1637 10.9486C99.366 11.0307 99.5476 11.1564 99.6956 11.3168C99.8437 11.4772 99.9545 11.6682 100.02 11.8764C100.086 12.0845 100.105 12.3046 100.076 12.5209V15.4278H99.1867V12.7399C99.1867 12.0199 98.8517 11.6559 98.2237 11.6559C98.0709 11.6434 97.9173 11.6643 97.7734 11.7174C97.6296 11.7705 97.4991 11.8543 97.3911 11.9631C97.2831 12.0719 97.2001 12.203 97.1481 12.3472C97.096 12.4913 97.0761 12.6452 97.0898 12.7979V15.4278H96.2018V9.16699ZM105.257 14.2118C105.137 14.6232 104.875 14.9791 104.519 15.2172C104.163 15.4554 103.734 15.5607 103.308 15.5148C103.011 15.5228 102.716 15.4661 102.443 15.3486C102.17 15.2311 101.926 15.0557 101.728 14.8344C101.53 14.6132 101.383 14.3514 101.296 14.0674C101.21 13.7834 101.186 13.484 101.227 13.1899C101.187 12.895 101.212 12.5952 101.298 12.3106C101.385 12.0261 101.531 11.7634 101.728 11.5404C101.925 11.3174 102.167 11.1393 102.439 11.0181C102.711 10.8969 103.005 10.8355 103.303 10.8379C104.556 10.8379 105.311 11.6939 105.311 13.1079V13.4178H102.132V13.4678C102.118 13.6332 102.138 13.7996 102.193 13.9564C102.247 14.1132 102.333 14.2569 102.446 14.3784C102.559 14.4999 102.696 14.5964 102.849 14.6617C103.001 14.7271 103.166 14.7598 103.332 14.7578C103.544 14.783 103.759 14.7445 103.949 14.6473C104.14 14.5501 104.297 14.3985 104.402 14.2118H105.257ZM102.132 12.7609H104.407C104.418 12.6096 104.397 12.4577 104.346 12.3149C104.296 12.172 104.215 12.0414 104.111 11.9315C104.006 11.8215 103.88 11.7347 103.74 11.6766C103.6 11.6184 103.449 11.5903 103.298 11.5939C103.144 11.592 102.991 11.6209 102.849 11.6789C102.707 11.7369 102.577 11.8228 102.469 11.9316C102.36 12.0403 102.274 12.1697 102.216 12.3122C102.158 12.4546 102.13 12.6072 102.132 12.7609Z" fill="white"/>
</g>
<defs>
<clipPath id="clip0_1_792">
<rect width="119.66" height="39.9987" fill="white" transform="translate(0.5 0.730469)"/>
</clipPath>
</defs>
</svg>
