<svg width="25" height="25" viewBox="0 0 25 25" fill="none" xmlns="http://www.w3.org/2000/svg">
<path d="M18.7714 5.93846C18.6795 5.84643 18.5627 5.78329 18.4354 5.75679C18.3081 5.73029 18.1758 5.7416 18.0548 5.78931L3.05484 11.7225C2.9353 11.7702 2.83209 11.8514 2.75766 11.9565C2.68323 12.0615 2.64073 12.1858 2.6353 12.3144C2.62987 12.443 2.66172 12.5704 2.72703 12.6814C2.79234 12.7923 2.88832 12.882 3.00341 12.9396L8.8577 15.8565L11.802 21.6825C11.8576 21.7928 11.9427 21.8855 12.0479 21.9503C12.1531 22.0151 12.2742 22.0493 12.3977 22.0493L12.4286 22.0485C12.5572 22.0426 12.6814 21.9997 12.7861 21.9248C12.8909 21.85 12.9718 21.7465 13.0191 21.6267L18.9214 6.65417C18.9691 6.5332 18.9804 6.40091 18.9539 6.27359C18.9274 6.14628 18.8643 6.02949 18.7723 5.9376L18.7714 5.93846ZM12.3223 19.7539L10.1666 15.4879L14.2723 11.3822C14.3974 11.2571 14.4678 11.0875 14.4678 10.9106C14.4679 10.7337 14.3977 10.564 14.2727 10.4389C14.1477 10.3137 13.978 10.2434 13.8011 10.2433C13.6242 10.2432 13.4546 10.3134 13.3294 10.4385L9.22113 14.5467L4.93713 12.4125L17.1154 7.59531L12.3223 19.7539Z" fill="white"/>
</svg>
