<svg width="33" height="33" viewBox="0 0 33 33" fill="none" xmlns="http://www.w3.org/2000/svg">
<g clip-path="url(#clip0_1_1022)">
<path d="M26.9 7.20986C27.3418 7.20986 27.7 6.85169 27.7 6.40986C27.7 5.96804 27.3418 5.60986 26.9 5.60986C26.4582 5.60986 26.1 5.96804 26.1 6.40986C26.1 6.85169 26.4582 7.20986 26.9 7.20986Z" fill="white"/>
<path d="M16.5032 32.81C13.1394 32.8096 9.86123 31.7491 7.13453 29.7793C4.40782 27.8094 2.37124 25.0303 1.31416 21.8369C0.257071 18.6435 0.23324 15.1982 1.24605 11.9905C2.25886 8.78275 4.2568 5.97579 6.95599 3.96839C9.65573 1.96141 12.9195 0.856748 16.2832 0.811506C19.6469 0.766264 22.9393 1.78275 25.692 3.71639C25.8366 3.81813 25.9348 3.97314 25.9652 4.14733C25.9955 4.32151 25.9553 4.5006 25.8536 4.64519C25.7519 4.78979 25.5968 4.88805 25.4227 4.91835C25.2485 4.94866 25.0694 4.90853 24.9248 4.80679C18.696 0.433994 10.1584 1.55079 5.26319 7.37879C0.367194 13.2068 0.739994 21.81 6.12239 27.1932C11.5032 32.5756 20.1064 32.9492 25.9328 28.0524C31.76 23.1564 32.8768 14.6164 28.504 8.38679C28.4022 8.2423 28.3619 8.06327 28.392 7.88909C28.4222 7.71491 28.5203 7.55984 28.6648 7.45799C28.8093 7.35615 28.9883 7.31588 29.1625 7.34603C29.3367 7.37619 29.4918 7.4743 29.5936 7.61879C31.277 10.0155 32.2701 12.8284 32.4648 15.7507C32.6595 18.6731 32.0482 21.5928 30.6976 24.1916C29.3474 26.79 27.3097 28.9678 24.8067 30.4876C22.3037 32.0074 19.4315 32.8107 16.5032 32.81Z" fill="white"/>
<path d="M11.6392 24.81H7.9912V13.5884H11.6392V24.81ZM9.8152 12.054C8.9608 12.054 8.1888 11.562 7.8616 10.8068C7.70182 10.437 7.66003 10.0269 7.74193 9.63243C7.82382 9.23799 8.02541 8.87842 8.3192 8.60278C8.6218 8.31819 8.99923 8.12572 9.40729 8.04794C9.81535 7.97015 10.2371 8.01027 10.6232 8.16358C11.4136 8.47638 11.9296 9.21398 11.9296 10.0316C11.9296 11.1484 10.9832 12.0532 9.816 12.054H9.8152ZM25.3 24.81H21.6552V19.3532C21.6552 18.0508 21.6304 16.3772 19.7592 16.3772C17.8616 16.3772 17.5712 17.7948 17.5712 19.2588V24.81H13.9264V13.5884H17.4248V15.1212H17.4736C18.1864 13.9556 19.5136 13.2588 20.9248 13.3092C24.6184 13.3092 25.3 15.6332 25.3 18.6548V24.81Z" fill="white"/>
</g>
<defs>
<clipPath id="clip0_1_1022">
<rect width="32" height="32" fill="white" transform="translate(0.5 0.810059)"/>
</clipPath>
</defs>
</svg>
