<svg width="33" height="33" viewBox="0 0 33 33" fill="none" xmlns="http://www.w3.org/2000/svg">
<g clip-path="url(#clip0_1_1028)">
<path d="M26.9001 7.21035C27.3419 7.21035 27.7001 6.85218 27.7001 6.41035C27.7001 5.96852 27.3419 5.61035 26.9001 5.61035C26.4583 5.61035 26.1001 5.96852 26.1001 6.41035C26.1001 6.85218 26.4583 7.21035 26.9001 7.21035Z" fill="white"/>
<path d="M16.5031 32.81C13.1393 32.8096 9.86114 31.7492 7.13444 29.7793C4.40773 27.8094 2.37115 25.0304 1.31407 21.837C0.256979 18.6436 0.233148 15.1982 1.24596 11.9905C2.25877 8.78276 4.25671 5.97579 6.9559 3.9684C9.65563 1.96141 12.9194 0.856748 16.2831 0.811506C19.6468 0.766264 22.9392 1.78275 25.6919 3.7164C25.8365 3.81813 25.9348 3.97314 25.9651 4.14733C25.9954 4.32151 25.9552 4.5006 25.8535 4.6452C25.7518 4.78979 25.5968 4.88805 25.4226 4.91836C25.2484 4.94866 25.0693 4.90853 24.9247 4.8068C18.6959 0.433994 10.1583 1.55079 5.2631 7.3788C0.367103 13.2068 0.739902 21.81 6.1223 27.1932C11.5031 32.5756 20.1063 32.9492 25.9327 28.0524C31.7599 23.1564 32.8767 14.6164 28.5039 8.3868C28.4021 8.24231 28.3618 8.06328 28.3919 7.88909C28.4221 7.71491 28.5202 7.55984 28.6647 7.458C28.8092 7.35615 28.9882 7.31588 29.1624 7.34603C29.3366 7.37619 29.4917 7.47431 29.5935 7.61879C31.2769 10.0155 32.27 12.8284 32.4647 15.7507C32.6594 18.6731 32.0481 21.5928 30.6975 24.1916C29.3473 26.7901 27.3096 28.9679 24.8066 30.4876C22.3036 32.0074 19.4314 32.8107 16.5031 32.81Z" fill="white"/>
<path d="M12.7726 7.873C11.815 7.91818 11.1611 8.07101 10.5894 8.29565C9.99772 8.52623 9.49623 8.83565 8.99727 9.33642C8.4983 9.83718 8.19104 10.339 7.96208 10.9316C7.7405 11.5046 7.59038 12.1591 7.54808 13.1172C7.50577 14.0754 7.49641 14.3834 7.50109 16.8274C7.50577 19.2715 7.51657 19.5778 7.56302 20.538C7.60874 21.4954 7.76102 22.1492 7.98566 22.721C8.2166 23.3127 8.52566 23.814 9.02661 24.3132C9.52755 24.8123 10.029 25.1188 10.623 25.3482C11.1955 25.5694 11.8501 25.7202 12.8081 25.7622C13.7661 25.8041 14.0744 25.8138 16.5177 25.8091C18.9611 25.8045 19.2687 25.7937 20.2287 25.7481C21.1886 25.7026 21.839 25.5492 22.411 25.3257C23.0027 25.0942 23.5043 24.7857 24.0031 24.2845C24.5019 23.7834 24.809 23.2812 25.0378 22.6883C25.2595 22.1159 25.4102 21.4612 25.4518 20.504C25.4937 19.5433 25.5036 19.2366 25.4989 16.7929C25.4943 14.3492 25.4833 14.0428 25.4377 13.083C25.3922 12.1232 25.2397 11.4715 25.0153 10.8992C24.784 10.3075 24.4753 9.80658 23.9745 9.30708C23.4737 8.80757 22.9712 8.50067 22.3784 8.27243C21.8057 8.05085 21.1514 7.89982 20.1934 7.85842C19.2354 7.81702 18.9271 7.8064 16.4828 7.81108C14.0386 7.81576 13.7326 7.8262 12.7726 7.873ZM12.8777 24.1431C12.0002 24.1049 11.5238 23.9591 11.2063 23.837C10.7858 23.675 10.4862 23.4792 10.1698 23.1658C9.85336 22.8524 9.65896 22.5518 9.49479 22.1322C9.37149 21.8147 9.22299 21.3388 9.18195 20.4613C9.13731 19.5129 9.12795 19.2281 9.12273 16.8253C9.11751 14.4224 9.12669 14.138 9.16827 13.1892C9.20571 12.3124 9.35241 11.8354 9.47427 11.5181C9.63628 11.0971 9.8314 10.798 10.1455 10.4818C10.4596 10.1655 10.7593 9.97075 11.1793 9.80658C11.4964 9.68274 11.9723 9.5355 12.8495 9.49374C13.7986 9.44874 14.083 9.43974 16.4855 9.43452C18.888 9.4293 19.1731 9.4383 20.1226 9.48006C20.9994 9.51822 21.4766 9.66348 21.7936 9.78606C22.2143 9.94807 22.5136 10.1427 22.8299 10.4573C23.1461 10.7719 23.3411 11.0706 23.5052 11.4914C23.6293 11.8077 23.7765 12.2834 23.8179 13.1611C23.8631 14.1103 23.8733 14.3949 23.8777 16.7972C23.882 19.1995 23.8735 19.4848 23.8319 20.4332C23.7936 21.3107 23.6482 21.7874 23.5259 22.1052C23.3639 22.5256 23.1686 22.8253 22.8543 23.1413C22.5401 23.4574 22.2407 23.6522 21.8206 23.8163C21.5038 23.94 21.0273 24.0876 20.1509 24.1294C19.2018 24.174 18.9174 24.1834 16.514 24.1886C14.1106 24.1938 13.8269 24.1841 12.8777 24.1431ZM20.2148 11.9999C20.2152 12.2136 20.2789 12.4223 20.3978 12.5997C20.5168 12.7771 20.6858 12.9153 20.8833 12.9967C21.0808 13.0781 21.298 13.0991 21.5074 13.057C21.7169 13.015 21.9091 12.9118 22.0599 12.7604C22.2107 12.6091 22.3132 12.4165 22.3545 12.2069C22.3957 11.9973 22.3739 11.7801 22.2918 11.5829C22.2097 11.3857 22.0709 11.2173 21.8931 11.099C21.7152 10.9806 21.5063 10.9177 21.2927 10.9181C21.0063 10.9187 20.7319 11.033 20.5297 11.2359C20.3276 11.4387 20.2143 11.7136 20.2148 11.9999ZM11.8789 16.8191C11.884 19.3716 13.9569 21.436 16.5087 21.4311C19.0606 21.4263 21.1265 19.3536 21.1217 16.8011C21.1168 14.2487 19.0434 12.1837 16.4911 12.1888C13.9389 12.1938 11.8741 14.2671 11.8789 16.8191ZM13.5 16.8159C13.4988 16.2225 13.6736 15.6422 14.0023 15.1481C14.331 14.6541 14.7988 14.2687 15.3465 14.0405C15.8943 13.8124 16.4974 13.7518 17.0796 13.8664C17.6617 13.981 18.1969 14.2656 18.6173 14.6844C19.0377 15.1031 19.3245 15.6371 19.4414 16.2188C19.5583 16.8006 19.5001 17.4039 19.2741 17.9526C19.0481 18.5012 18.6645 18.9705 18.1718 19.3011C17.6791 19.6318 17.0994 19.8089 16.506 19.81C16.1121 19.8109 15.7218 19.7341 15.3575 19.584C14.9931 19.434 14.662 19.2137 14.3828 18.9356C14.1037 18.6576 13.882 18.3273 13.7306 17.9636C13.5791 17.5999 13.5007 17.2099 13.5 16.8159Z" fill="white"/>
</g>
<defs>
<clipPath id="clip0_1_1028">
<rect width="32" height="32" fill="white" transform="translate(0.5 0.810059)"/>
</clipPath>
</defs>
</svg>
