<svg width="33" height="33" viewBox="0 0 33 33" fill="none" xmlns="http://www.w3.org/2000/svg">
<g clip-path="url(#clip0_1_1017)">
<path d="M27.3336 6.81008C27.2241 6.81008 27.1157 6.78852 27.0146 6.74663C26.9135 6.70473 26.8216 6.64333 26.7442 6.56593C26.6668 6.48852 26.6054 6.39662 26.5635 6.29549C26.5216 6.19435 26.5 6.08595 26.5 5.97648C26.5 5.86701 26.5216 5.75861 26.5635 5.65748C26.6054 5.55634 26.6668 5.46444 26.7442 5.38704C26.8216 5.30963 26.9135 5.24823 27.0146 5.20634C27.1157 5.16444 27.2241 5.14288 27.3336 5.14288C27.5547 5.14288 27.7667 5.23071 27.923 5.38704C28.0794 5.54337 28.1672 5.7554 28.1672 5.97648C28.1672 6.19757 28.0794 6.4096 27.923 6.56593C27.7667 6.72226 27.5547 6.81008 27.3336 6.81008ZM29.5936 7.61968C31.4903 10.3085 32.5059 13.5196 32.5 16.8101C32.5 25.6325 25.3224 32.8101 16.5 32.8101C7.6776 32.8101 0.5 25.6325 0.5 16.8101C0.5 7.98768 7.6776 0.810081 16.5 0.810081C19.7905 0.804566 23.0017 1.82035 25.6904 3.71728C25.8315 3.82034 25.9265 3.97471 25.9549 4.14713C25.9833 4.31954 25.9429 4.49622 25.8423 4.6391C25.7417 4.78198 25.589 4.87963 25.4171 4.91101C25.2451 4.94239 25.0678 4.905 24.9232 4.80688C22.4587 3.0689 19.5157 2.13839 16.5 2.14368C8.412 2.14368 1.8336 8.72288 1.8336 16.8101C1.8336 24.8981 8.412 31.4773 16.5 31.4773C24.588 31.4773 31.1664 24.8973 31.1664 16.8101C31.1718 13.794 30.241 10.8506 28.5024 8.38608C28.4008 8.24138 28.3608 8.06223 28.3912 7.88805C28.4217 7.71386 28.5201 7.55891 28.6648 7.45728C28.8095 7.35565 28.9887 7.31566 29.1628 7.34612C29.337 7.37658 29.492 7.47498 29.5936 7.61968Z" fill="white"/>
<path d="M25.3816 12.1781C24.7237 12.4787 24.0245 12.6791 23.3072 12.7725C24.0658 12.3207 24.6338 11.608 24.9048 10.7677C24.1955 11.1785 23.4215 11.4661 22.616 11.6181C22.0743 11.0133 21.3456 10.6075 20.5462 10.4656C19.7468 10.3236 18.9229 10.4538 18.2062 10.8352C17.4895 11.2166 16.9213 11.8272 16.5924 12.5695C16.2635 13.3118 16.193 14.1429 16.392 14.9301C14.9499 14.8583 13.5391 14.4839 12.2512 13.8312C10.9633 13.1784 9.82722 12.2619 8.9168 11.1413C8.45339 11.9393 8.31126 12.8838 8.5193 13.7828C8.72734 14.6819 9.26994 15.4679 10.0368 15.9813C9.46816 15.9638 8.9117 15.8122 8.4128 15.5389C8.41369 16.3761 8.70391 17.1872 9.23429 17.835C9.76468 18.4827 10.5026 18.9272 11.3232 19.0933C10.7861 19.237 10.2232 19.2561 9.6776 19.1493C9.90976 19.8695 10.3612 20.4992 10.9688 20.9503C11.5764 21.4014 12.3098 21.6514 13.0664 21.6653C11.7819 22.6723 10.1961 23.2181 8.564 23.2149C8.276 23.2149 7.9872 23.1989 7.7 23.1669C9.25971 24.1713 11.0614 24.7367 12.9154 24.8034C14.7693 24.8701 16.607 24.4357 18.2349 23.546C19.8627 22.6562 21.2206 21.344 22.1655 19.7475C23.1104 18.151 23.6073 16.3292 23.604 14.4741V14.0037C24.2978 13.5027 24.8993 12.885 25.3816 12.1781Z" fill="white"/>
</g>
<defs>
<clipPath id="clip0_1_1017">
<rect width="32" height="32" fill="white" transform="translate(0.5 0.810059)"/>
</clipPath>
</defs>
</svg>
