<svg width="101" height="101" viewBox="0 0 101 101" fill="none" xmlns="http://www.w3.org/2000/svg">
<g clip-path="url(#clip0_1_772)">
<path d="M0.5 0.72998H100.5V100.73H0.5V0.72998Z" fill="white"/>
<path d="M30.803 6.79053H33.8333V9.82083H30.803V6.79053ZM39.8939 6.79053H42.9242V9.82083H39.8939V6.79053ZM42.9242 6.79053H45.9545V9.82083H42.9242V6.79053ZM45.9545 6.79053H48.9849V9.82083H45.9545V6.79053ZM52.0152 6.79053H55.0455V9.82083H52.0152V6.79053ZM58.0758 6.79053H61.1061V9.82083H58.0758V6.79053ZM61.1061 6.79053H64.1364V9.82083H61.1061V6.79053ZM48.9849 9.82083H52.0152V12.8511H48.9849V9.82083ZM55.0455 9.82083H58.0758V12.8511H55.0455V9.82083ZM64.1364 9.82083H67.1667V12.8511H64.1364V9.82083ZM67.1667 9.82083H70.197V12.8511H67.1667V9.82083ZM33.8333 12.8511H36.8636V15.8814H33.8333V12.8511ZM42.9242 12.8511H45.9545V15.8814H42.9242V12.8511ZM52.0152 12.8511H55.0455V15.8814H52.0152V12.8511ZM58.0758 12.8511H61.1061V15.8814H58.0758V12.8511ZM61.1061 12.8511H64.1364V15.8814H61.1061V12.8511ZM64.1364 12.8511H67.1667V15.8814H64.1364V12.8511ZM67.1667 12.8511H70.197V15.8814H67.1667V12.8511ZM30.803 15.8814H33.8333V18.9117H30.803V15.8814ZM33.8333 15.8814H36.8636V18.9117H33.8333V15.8814ZM42.9242 15.8814H45.9545V18.9117H42.9242V15.8814ZM45.9545 15.8814H48.9849V18.9117H45.9545V15.8814ZM52.0152 15.8814H55.0455V18.9117H52.0152V15.8814ZM61.1061 15.8814H64.1364V18.9117H61.1061V15.8814ZM64.1364 15.8814H67.1667V18.9117H64.1364V15.8814ZM30.803 18.9117H33.8333V21.942H30.803V18.9117ZM45.9545 18.9117H48.9849V21.942H45.9545V18.9117ZM52.0152 18.9117H55.0455V21.942H52.0152V18.9117ZM61.1061 18.9117H64.1364V21.942H61.1061V18.9117ZM67.1667 18.9117H70.197V21.942H67.1667V18.9117ZM30.803 21.942H33.8333V24.9723H30.803V21.942ZM36.8636 21.942H39.8939V24.9723H36.8636V21.942ZM39.8939 21.942H42.9242V24.9723H39.8939V21.942ZM45.9545 21.942H48.9849V24.9723H45.9545V21.942ZM64.1364 21.942H67.1667V24.9723H64.1364V21.942ZM30.803 24.9723H33.8333V28.0026H30.803V24.9723ZM36.8636 24.9723H39.8939V28.0026H36.8636V24.9723ZM42.9242 24.9723H45.9545V28.0026H42.9242V24.9723ZM48.9849 24.9723H52.0152V28.0026H48.9849V24.9723ZM55.0455 24.9723H58.0758V28.0026H55.0455V24.9723ZM61.1061 24.9723H64.1364V28.0026H61.1061V24.9723ZM67.1667 24.9723H70.197V28.0026H67.1667V24.9723ZM30.803 28.0026H33.8333V31.033H30.803V28.0026ZM39.8939 28.0026H42.9242V31.033H39.8939V28.0026ZM48.9849 28.0026H52.0152V31.033H48.9849V28.0026ZM52.0152 28.0026H55.0455V31.033H52.0152V28.0026ZM58.0758 28.0026H61.1061V31.033H58.0758V28.0026ZM61.1061 28.0026H64.1364V31.033H61.1061V28.0026ZM64.1364 28.0026H67.1667V31.033H64.1364V28.0026ZM6.56061 31.033H9.59091V34.0633H6.56061V31.033ZM18.6818 31.033H21.7121V34.0633H18.6818V31.033ZM24.7424 31.033H27.7727V34.0633H24.7424V31.033ZM27.7727 31.033H30.803V34.0633H27.7727V31.033ZM30.803 31.033H33.8333V34.0633H30.803V31.033ZM36.8636 31.033H39.8939V34.0633H36.8636V31.033ZM39.8939 31.033H42.9242V34.0633H39.8939V31.033ZM45.9545 31.033H48.9849V34.0633H45.9545V31.033ZM48.9849 31.033H52.0152V34.0633H48.9849V31.033ZM58.0758 31.033H61.1061V34.0633H58.0758V31.033ZM61.1061 31.033H64.1364V34.0633H61.1061V31.033ZM67.1667 31.033H70.197V34.0633H67.1667V31.033ZM70.197 31.033H73.2273V34.0633H70.197V31.033ZM73.2273 31.033H76.2576V34.0633H73.2273V31.033ZM76.2576 31.033H79.2879V34.0633H76.2576V31.033ZM79.2879 31.033H82.3182V34.0633H79.2879V31.033ZM82.3182 31.033H85.3485V34.0633H82.3182V31.033ZM91.4091 31.033H94.4394V34.0633H91.4091V31.033ZM6.56061 34.0633H9.59091V37.0936H6.56061V34.0633ZM9.59091 34.0633H12.6212V37.0936H9.59091V34.0633ZM12.6212 34.0633H15.6515V37.0936H12.6212V34.0633ZM18.6818 34.0633H21.7121V37.0936H18.6818V34.0633ZM21.7121 34.0633H24.7424V37.0936H21.7121V34.0633ZM27.7727 34.0633H30.803V37.0936H27.7727V34.0633ZM36.8636 34.0633H39.8939V37.0936H36.8636V34.0633ZM48.9849 34.0633H52.0152V37.0936H48.9849V34.0633ZM52.0152 34.0633H55.0455V37.0936H52.0152V34.0633ZM55.0455 34.0633H58.0758V37.0936H55.0455V34.0633ZM58.0758 34.0633H61.1061V37.0936H58.0758V34.0633ZM61.1061 34.0633H64.1364V37.0936H61.1061V34.0633ZM70.197 34.0633H73.2273V37.0936H70.197V34.0633ZM73.2273 34.0633H76.2576V37.0936H73.2273V34.0633ZM76.2576 34.0633H79.2879V37.0936H76.2576V34.0633ZM79.2879 34.0633H82.3182V37.0936H79.2879V34.0633ZM82.3182 34.0633H85.3485V37.0936H82.3182V34.0633ZM85.3485 34.0633H88.3788V37.0936H85.3485V34.0633ZM88.3788 34.0633H91.4091V37.0936H88.3788V34.0633ZM91.4091 34.0633H94.4394V37.0936H91.4091V34.0633ZM6.56061 37.0936H9.59091V40.1239H6.56061V37.0936ZM18.6818 37.0936H21.7121V40.1239H18.6818V37.0936ZM24.7424 37.0936H27.7727V40.1239H24.7424V37.0936ZM30.803 37.0936H33.8333V40.1239H30.803V37.0936ZM45.9545 37.0936H48.9849V40.1239H45.9545V37.0936ZM48.9849 37.0936H52.0152V40.1239H48.9849V37.0936ZM52.0152 37.0936H55.0455V40.1239H52.0152V37.0936ZM55.0455 37.0936H58.0758V40.1239H55.0455V37.0936ZM61.1061 37.0936H64.1364V40.1239H61.1061V37.0936ZM70.197 37.0936H73.2273V40.1239H70.197V37.0936ZM73.2273 37.0936H76.2576V40.1239H73.2273V37.0936ZM76.2576 37.0936H79.2879V40.1239H76.2576V37.0936ZM91.4091 37.0936H94.4394V40.1239H91.4091V37.0936ZM15.6515 40.1239H18.6818V43.1542H15.6515V40.1239ZM36.8636 40.1239H39.8939V43.1542H36.8636V40.1239ZM39.8939 40.1239H42.9242V43.1542H39.8939V40.1239ZM45.9545 40.1239H48.9849V43.1542H45.9545V40.1239ZM55.0455 40.1239H58.0758V43.1542H55.0455V40.1239ZM58.0758 40.1239H61.1061V43.1542H58.0758V40.1239ZM61.1061 40.1239H64.1364V43.1542H61.1061V40.1239ZM64.1364 40.1239H67.1667V43.1542H64.1364V40.1239ZM67.1667 40.1239H70.197V43.1542H67.1667V40.1239ZM70.197 40.1239H73.2273V43.1542H70.197V40.1239ZM73.2273 40.1239H76.2576V43.1542H73.2273V40.1239ZM76.2576 40.1239H79.2879V43.1542H76.2576V40.1239ZM82.3182 40.1239H85.3485V43.1542H82.3182V40.1239ZM88.3788 40.1239H91.4091V43.1542H88.3788V40.1239ZM91.4091 40.1239H94.4394V43.1542H91.4091V40.1239ZM9.59091 43.1542H12.6212V46.1845H9.59091V43.1542ZM12.6212 43.1542H15.6515V46.1845H12.6212V43.1542ZM15.6515 43.1542H18.6818V46.1845H15.6515V43.1542ZM18.6818 43.1542H21.7121V46.1845H18.6818V43.1542ZM21.7121 43.1542H24.7424V46.1845H21.7121V43.1542ZM24.7424 43.1542H27.7727V46.1845H24.7424V43.1542ZM27.7727 43.1542H30.803V46.1845H27.7727V43.1542ZM30.803 43.1542H33.8333V46.1845H30.803V43.1542ZM45.9545 43.1542H48.9849V46.1845H45.9545V43.1542ZM55.0455 43.1542H58.0758V46.1845H55.0455V43.1542ZM67.1667 43.1542H70.197V46.1845H67.1667V43.1542ZM76.2576 43.1542H79.2879V46.1845H76.2576V43.1542ZM88.3788 43.1542H91.4091V46.1845H88.3788V43.1542ZM15.6515 46.1845H18.6818V49.2148H15.6515V46.1845ZM27.7727 46.1845H30.803V49.2148H27.7727V46.1845ZM33.8333 46.1845H36.8636V49.2148H33.8333V46.1845ZM36.8636 46.1845H39.8939V49.2148H36.8636V46.1845ZM42.9242 46.1845H45.9545V49.2148H42.9242V46.1845ZM45.9545 46.1845H48.9849V49.2148H45.9545V46.1845ZM48.9849 46.1845H52.0152V49.2148H48.9849V46.1845ZM52.0152 46.1845H55.0455V49.2148H52.0152V46.1845ZM73.2273 46.1845H76.2576V49.2148H73.2273V46.1845ZM76.2576 46.1845H79.2879V49.2148H76.2576V46.1845ZM79.2879 46.1845H82.3182V49.2148H79.2879V46.1845ZM82.3182 46.1845H85.3485V49.2148H82.3182V46.1845ZM85.3485 46.1845H88.3788V49.2148H85.3485V46.1845ZM88.3788 46.1845H91.4091V49.2148H88.3788V46.1845ZM91.4091 46.1845H94.4394V49.2148H91.4091V46.1845ZM9.59091 49.2148H12.6212V52.2451H9.59091V49.2148ZM12.6212 49.2148H15.6515V52.2451H12.6212V49.2148ZM15.6515 49.2148H18.6818V52.2451H15.6515V49.2148ZM18.6818 49.2148H21.7121V52.2451H18.6818V49.2148ZM21.7121 49.2148H24.7424V52.2451H21.7121V49.2148ZM24.7424 49.2148H27.7727V52.2451H24.7424V49.2148ZM33.8333 49.2148H36.8636V52.2451H33.8333V49.2148ZM39.8939 49.2148H42.9242V52.2451H39.8939V49.2148ZM42.9242 49.2148H45.9545V52.2451H42.9242V49.2148ZM52.0152 49.2148H55.0455V52.2451H52.0152V49.2148ZM58.0758 49.2148H61.1061V52.2451H58.0758V49.2148ZM67.1667 49.2148H70.197V52.2451H67.1667V49.2148ZM82.3182 49.2148H85.3485V52.2451H82.3182V49.2148ZM85.3485 49.2148H88.3788V52.2451H85.3485V49.2148ZM91.4091 49.2148H94.4394V52.2451H91.4091V49.2148ZM6.56061 52.2451H9.59091V55.2754H6.56061V52.2451ZM18.6818 52.2451H21.7121V55.2754H18.6818V52.2451ZM21.7121 52.2451H24.7424V55.2754H21.7121V52.2451ZM27.7727 52.2451H30.803V55.2754H27.7727V52.2451ZM30.803 52.2451H33.8333V55.2754H30.803V52.2451ZM36.8636 52.2451H39.8939V55.2754H36.8636V52.2451ZM48.9849 52.2451H52.0152V55.2754H48.9849V52.2451ZM52.0152 52.2451H55.0455V55.2754H52.0152V52.2451ZM55.0455 52.2451H58.0758V55.2754H55.0455V52.2451ZM58.0758 52.2451H61.1061V55.2754H58.0758V52.2451ZM61.1061 52.2451H64.1364V55.2754H61.1061V52.2451ZM70.197 52.2451H73.2273V55.2754H70.197V52.2451ZM76.2576 52.2451H79.2879V55.2754H76.2576V52.2451ZM88.3788 52.2451H91.4091V55.2754H88.3788V52.2451ZM91.4091 52.2451H94.4394V55.2754H91.4091V52.2451ZM6.56061 55.2754H9.59091V58.3057H6.56061V55.2754ZM15.6515 55.2754H18.6818V58.3057H15.6515V55.2754ZM18.6818 55.2754H21.7121V58.3057H18.6818V55.2754ZM21.7121 55.2754H24.7424V58.3057H21.7121V55.2754ZM24.7424 55.2754H27.7727V58.3057H24.7424V55.2754ZM27.7727 55.2754H30.803V58.3057H27.7727V55.2754ZM30.803 55.2754H33.8333V58.3057H30.803V55.2754ZM42.9242 55.2754H45.9545V58.3057H42.9242V55.2754ZM45.9545 55.2754H48.9849V58.3057H45.9545V55.2754ZM48.9849 55.2754H52.0152V58.3057H48.9849V55.2754ZM67.1667 55.2754H70.197V58.3057H67.1667V55.2754ZM70.197 55.2754H73.2273V58.3057H70.197V55.2754ZM88.3788 55.2754H91.4091V58.3057H88.3788V55.2754ZM6.56061 58.3057H9.59091V61.336H6.56061V58.3057ZM9.59091 58.3057H12.6212V61.336H9.59091V58.3057ZM12.6212 58.3057H15.6515V61.336H12.6212V58.3057ZM18.6818 58.3057H21.7121V61.336H18.6818V58.3057ZM27.7727 58.3057H30.803V61.336H27.7727V58.3057ZM39.8939 58.3057H42.9242V61.336H39.8939V58.3057ZM42.9242 58.3057H45.9545V61.336H42.9242V58.3057ZM52.0152 58.3057H55.0455V61.336H52.0152V58.3057ZM55.0455 58.3057H58.0758V61.336H55.0455V58.3057ZM61.1061 58.3057H64.1364V61.336H61.1061V58.3057ZM73.2273 58.3057H76.2576V61.336H73.2273V58.3057ZM76.2576 58.3057H79.2879V61.336H76.2576V58.3057ZM79.2879 58.3057H82.3182V61.336H79.2879V58.3057ZM82.3182 58.3057H85.3485V61.336H82.3182V58.3057ZM88.3788 58.3057H91.4091V61.336H88.3788V58.3057ZM91.4091 58.3057H94.4394V61.336H91.4091V58.3057ZM12.6212 61.336H15.6515V64.3663H12.6212V61.336ZM21.7121 61.336H24.7424V64.3663H21.7121V61.336ZM24.7424 61.336H27.7727V64.3663H24.7424V61.336ZM27.7727 61.336H30.803V64.3663H27.7727V61.336ZM30.803 61.336H33.8333V64.3663H30.803V61.336ZM45.9545 61.336H48.9849V64.3663H45.9545V61.336ZM48.9849 61.336H52.0152V64.3663H48.9849V61.336ZM52.0152 61.336H55.0455V64.3663H52.0152V61.336ZM85.3485 61.336H88.3788V64.3663H85.3485V61.336ZM91.4091 61.336H94.4394V64.3663H91.4091V61.336ZM12.6212 64.3663H15.6515V67.3966H12.6212V64.3663ZM15.6515 64.3663H18.6818V67.3966H15.6515V64.3663ZM18.6818 64.3663H21.7121V67.3966H18.6818V64.3663ZM27.7727 64.3663H30.803V67.3966H27.7727V64.3663ZM39.8939 64.3663H42.9242V67.3966H39.8939V64.3663ZM42.9242 64.3663H45.9545V67.3966H42.9242V64.3663ZM45.9545 64.3663H48.9849V67.3966H45.9545V64.3663ZM55.0455 64.3663H58.0758V67.3966H55.0455V64.3663ZM58.0758 64.3663H61.1061V67.3966H58.0758V64.3663ZM67.1667 64.3663H70.197V67.3966H67.1667V64.3663ZM88.3788 64.3663H91.4091V67.3966H88.3788V64.3663ZM91.4091 64.3663H94.4394V67.3966H91.4091V64.3663ZM6.56061 67.3966H9.59091V70.4269H6.56061V67.3966ZM9.59091 67.3966H12.6212V70.4269H9.59091V67.3966ZM12.6212 67.3966H15.6515V70.4269H12.6212V67.3966ZM15.6515 67.3966H18.6818V70.4269H15.6515V67.3966ZM18.6818 67.3966H21.7121V70.4269H18.6818V67.3966ZM24.7424 67.3966H27.7727V70.4269H24.7424V67.3966ZM30.803 67.3966H33.8333V70.4269H30.803V67.3966ZM36.8636 67.3966H39.8939V70.4269H36.8636V67.3966ZM39.8939 67.3966H42.9242V70.4269H39.8939V67.3966ZM45.9545 67.3966H48.9849V70.4269H45.9545V67.3966ZM67.1667 67.3966H70.197V70.4269H67.1667V67.3966ZM70.197 67.3966H73.2273V70.4269H70.197V67.3966ZM73.2273 67.3966H76.2576V70.4269H73.2273V67.3966ZM76.2576 67.3966H79.2879V70.4269H76.2576V67.3966ZM79.2879 67.3966H82.3182V70.4269H79.2879V67.3966ZM82.3182 67.3966H85.3485V70.4269H82.3182V67.3966ZM91.4091 67.3966H94.4394V70.4269H91.4091V67.3966ZM30.803 70.4269H33.8333V73.4572H30.803V70.4269ZM39.8939 70.4269H42.9242V73.4572H39.8939V70.4269ZM45.9545 70.4269H48.9849V73.4572H45.9545V70.4269ZM48.9849 70.4269H52.0152V73.4572H48.9849V70.4269ZM52.0152 70.4269H55.0455V73.4572H52.0152V70.4269ZM55.0455 70.4269H58.0758V73.4572H55.0455V70.4269ZM64.1364 70.4269H67.1667V73.4572H64.1364V70.4269ZM67.1667 70.4269H70.197V73.4572H67.1667V70.4269ZM79.2879 70.4269H82.3182V73.4572H79.2879V70.4269ZM91.4091 70.4269H94.4394V73.4572H91.4091V70.4269ZM30.803 73.4572H33.8333V76.4875H30.803V73.4572ZM36.8636 73.4572H39.8939V76.4875H36.8636V73.4572ZM42.9242 73.4572H45.9545V76.4875H42.9242V73.4572ZM52.0152 73.4572H55.0455V76.4875H52.0152V73.4572ZM55.0455 73.4572H58.0758V76.4875H55.0455V73.4572ZM58.0758 73.4572H61.1061V76.4875H58.0758V73.4572ZM61.1061 73.4572H64.1364V76.4875H61.1061V73.4572ZM64.1364 73.4572H67.1667V76.4875H64.1364V73.4572ZM67.1667 73.4572H70.197V76.4875H67.1667V73.4572ZM73.2273 73.4572H76.2576V76.4875H73.2273V73.4572ZM79.2879 73.4572H82.3182V76.4875H79.2879V73.4572ZM82.3182 73.4572H85.3485V76.4875H82.3182V73.4572ZM85.3485 73.4572H88.3788V76.4875H85.3485V73.4572ZM91.4091 73.4572H94.4394V76.4875H91.4091V73.4572ZM33.8333 76.4875H36.8636V79.5178H33.8333V76.4875ZM42.9242 76.4875H45.9545V79.5178H42.9242V76.4875ZM48.9849 76.4875H52.0152V79.5178H48.9849V76.4875ZM52.0152 76.4875H55.0455V79.5178H52.0152V76.4875ZM58.0758 76.4875H61.1061V79.5178H58.0758V76.4875ZM64.1364 76.4875H67.1667V79.5178H64.1364V76.4875ZM67.1667 76.4875H70.197V79.5178H67.1667V76.4875ZM79.2879 76.4875H82.3182V79.5178H79.2879V76.4875ZM88.3788 76.4875H91.4091V79.5178H88.3788V76.4875ZM30.803 79.5178H33.8333V82.5481H30.803V79.5178ZM33.8333 79.5178H36.8636V82.5481H33.8333V79.5178ZM36.8636 79.5178H39.8939V82.5481H36.8636V79.5178ZM45.9545 79.5178H48.9849V82.5481H45.9545V79.5178ZM48.9849 79.5178H52.0152V82.5481H48.9849V79.5178ZM58.0758 79.5178H61.1061V82.5481H58.0758V79.5178ZM64.1364 79.5178H67.1667V82.5481H64.1364V79.5178ZM67.1667 79.5178H70.197V82.5481H67.1667V79.5178ZM70.197 79.5178H73.2273V82.5481H70.197V79.5178ZM73.2273 79.5178H76.2576V82.5481H73.2273V79.5178ZM76.2576 79.5178H79.2879V82.5481H76.2576V79.5178ZM79.2879 79.5178H82.3182V82.5481H79.2879V79.5178ZM82.3182 79.5178H85.3485V82.5481H82.3182V79.5178ZM88.3788 79.5178H91.4091V82.5481H88.3788V79.5178ZM33.8333 82.5481H36.8636V85.5784H33.8333V82.5481ZM39.8939 82.5481H42.9242V85.5784H39.8939V82.5481ZM45.9545 82.5481H48.9849V85.5784H45.9545V82.5481ZM52.0152 82.5481H55.0455V85.5784H52.0152V82.5481ZM55.0455 82.5481H58.0758V85.5784H55.0455V82.5481ZM61.1061 82.5481H64.1364V85.5784H61.1061V82.5481ZM67.1667 82.5481H70.197V85.5784H67.1667V82.5481ZM70.197 82.5481H73.2273V85.5784H70.197V82.5481ZM91.4091 82.5481H94.4394V85.5784H91.4091V82.5481ZM33.8333 85.5784H36.8636V88.6087H33.8333V85.5784ZM39.8939 85.5784H42.9242V88.6087H39.8939V85.5784ZM52.0152 85.5784H55.0455V88.6087H52.0152V85.5784ZM64.1364 85.5784H67.1667V88.6087H64.1364V85.5784ZM70.197 85.5784H73.2273V88.6087H70.197V85.5784ZM82.3182 85.5784H85.3485V88.6087H82.3182V85.5784ZM85.3485 85.5784H88.3788V88.6087H85.3485V85.5784ZM88.3788 85.5784H91.4091V88.6087H88.3788V85.5784ZM91.4091 85.5784H94.4394V88.6087H91.4091V85.5784ZM36.8636 88.6087H39.8939V91.639H36.8636V88.6087ZM42.9242 88.6087H45.9545V91.639H42.9242V88.6087ZM58.0758 88.6087H61.1061V91.639H58.0758V88.6087ZM67.1667 88.6087H70.197V91.639H67.1667V88.6087ZM76.2576 88.6087H79.2879V91.639H76.2576V88.6087ZM82.3182 88.6087H85.3485V91.639H82.3182V88.6087ZM88.3788 88.6087H91.4091V91.639H88.3788V88.6087ZM91.4091 88.6087H94.4394V91.639H91.4091V88.6087ZM30.803 91.639H33.8333V94.6693H30.803V91.639ZM36.8636 91.639H39.8939V94.6693H36.8636V91.639ZM42.9242 91.639H45.9545V94.6693H42.9242V91.639ZM45.9545 91.639H48.9849V94.6693H45.9545V91.639ZM52.0152 91.639H55.0455V94.6693H52.0152V91.639ZM58.0758 91.639H61.1061V94.6693H58.0758V91.639ZM61.1061 91.639H64.1364V94.6693H61.1061V91.639ZM67.1667 91.639H70.197V94.6693H67.1667V91.639ZM73.2273 91.639H76.2576V94.6693H73.2273V91.639ZM88.3788 91.639H91.4091V94.6693H88.3788V91.639Z" fill="black"/>
<path d="M24.5909 6.79053H6.56061V28.0026H27.7727V6.79053H24.5909ZM24.5909 24.8208H9.74243V9.97235H24.5909V24.8208Z" fill="black"/>
<path d="M91.2576 6.79053H73.2273V28.0026H94.4394V6.79053H91.2576ZM91.2576 24.8208H76.4091V9.97235H91.2576V24.8208Z" fill="black"/>
<path d="M24.5909 73.457H6.56061V94.6692H27.7727V73.457H24.5909ZM24.5909 91.4873H9.74243V76.6388H24.5909V91.4873Z" fill="black"/>
<path d="M12.6212 12.8511H21.7121V21.942H12.6212V12.8511Z" fill="black"/>
<path d="M79.2879 12.8511H88.3788V21.942H79.2879V12.8511Z" fill="black"/>
<path d="M12.6212 79.5181H21.7121V88.609H12.6212V79.5181Z" fill="black"/>
</g>
<defs>
<clipPath id="clip0_1_772">
<rect width="100" height="100" fill="white" transform="translate(0.5 0.72998)"/>
</clipPath>
</defs>
</svg>
