<svg width="81" height="81" viewBox="0 0 81 81" fill="none" xmlns="http://www.w3.org/2000/svg">
<path d="M41.18 78.53C61.9459 78.53 78.78 61.6959 78.78 40.93C78.78 20.1641 61.9459 3.33002 41.18 3.33002C20.4141 3.33002 3.58 20.1641 3.58 40.93C3.58 61.6959 20.4141 78.53 41.18 78.53Z" stroke="#0A146E" stroke-width="0.25316" stroke-miterlimit="10" stroke-dasharray="1.52 1.52"/>
<path d="M13.14 5.57001H68.78C69.34 5.57001 69.82 6.05001 69.82 6.61001V70.01C69.82 70.57 69.34 71.05 68.78 71.05H13.14C12.58 71.05 12.1 70.57 12.1 70.01V6.61001C12.1 6.01001 12.58 5.57001 13.14 5.57001Z" fill="#E6EBF5"/>
<path d="M14.02 6.81H67.82C68.38 6.81 68.86 7.29 68.86 7.85V68.85C68.86 69.41 68.38 69.89 67.82 69.89H14.02C13.46 69.89 12.98 69.41 12.98 68.85V7.85C12.98 7.29 13.46 6.81 14.02 6.81Z" fill="#F8F8F8"/>
<path opacity="0.2" d="M8.38 17.21H38.06C38.62 17.21 39.1 17.69 39.1 18.25V36.37C39.1 36.93 38.62 37.41 38.06 37.41H8.38C7.82 37.41 7.34 36.93 7.34 36.37V18.25C7.34 17.65 7.82 17.21 8.38 17.21Z" fill="#003CBE"/>
<path d="M1.62 14.37H37.98V34.01C37.98 34.57 37.5 35.05 36.94 35.05H2.66C2.1 35.05 1.62 34.57 1.62 34.01V14.37Z" fill="url(#paint0_linear_1_345)"/>
<path d="M2.02 17.41H37.5V33.53C37.5 34.09 37.02 34.57 36.46 34.57H3.06C2.5 34.57 2.02 34.09 2.02 33.53V17.41Z" fill="white"/>
<path d="M16.78 18.85H4.46V31.85H16.78V18.85Z" fill="url(#paint1_linear_1_345)"/>
<path d="M16.46 19.13H4.82V31.53H16.46V19.13Z" fill="#003CBE"/>
<path d="M37.54 14.77H2.02V17.37H37.54V14.77Z" fill="#003CBE"/>
<path d="M34.7 22.77H21.22V23.65H34.7V22.77Z" fill="#E0E0E0"/>
<path d="M34.7 26.45H21.22V27.33H34.7V26.45Z" fill="#F5F5F5"/>
<path opacity="0.2" d="M29.1 24.61H21.14V25.49H29.1V24.61Z" fill="#003CBE"/>
<path opacity="0.2" d="M26.58 28.29H21.14V29.17H26.58V28.29Z" fill="#0A146E"/>
<path d="M32.98 28.29H27.54V29.17H32.98V28.29Z" fill="#0A146E"/>
<path d="M18.06 42.05H64.22C64.42 42.05 64.58 42.21 64.58 42.41V43.37C64.58 43.57 64.42 43.73 64.22 43.73H18.06C17.86 43.73 17.7 43.57 17.7 43.37V42.41C17.74 42.17 17.9 42.05 18.06 42.05Z" fill="#E0E0E0"/>
<path d="M18.06 45.61H32.98C33.18 45.61 33.34 45.77 33.34 45.97V46.93C33.34 47.13 33.18 47.29 32.98 47.29H18.06C17.86 47.29 17.7 47.13 17.7 46.93V45.97C17.74 45.77 17.9 45.61 18.06 45.61Z" fill="#E0E0E0"/>
<path d="M49.3 45.61H64.22C64.42 45.61 64.58 45.77 64.58 45.97V46.93C64.58 47.13 64.42 47.29 64.22 47.29H49.3C49.1 47.29 48.94 47.13 48.94 46.93V45.97C48.98 45.77 49.14 45.61 49.3 45.61Z" fill="#0A146E"/>
<path d="M18.06 49.21H64.22C64.42 49.21 64.58 49.37 64.58 49.57V50.53C64.58 50.73 64.42 50.89 64.22 50.89H18.06C17.86 50.89 17.7 50.73 17.7 50.53V49.57C17.74 49.37 17.9 49.21 18.06 49.21Z" fill="#E0E0E0"/>
<path d="M18.06 52.81H64.22C64.42 52.81 64.58 52.97 64.58 53.17V54.13C64.58 54.33 64.42 54.49 64.22 54.49H18.06C17.86 54.49 17.7 54.33 17.7 54.13V53.17C17.74 52.97 17.9 52.81 18.06 52.81Z" fill="#E0E0E0"/>
<path d="M39.02 56.41H42.98C43.18 56.41 43.34 56.57 43.34 56.77V57.73C43.34 57.93 43.18 58.09 42.98 58.09H39.02C38.82 58.09 38.66 57.93 38.66 57.73V56.77C38.7 56.53 38.86 56.41 39.02 56.41Z" fill="#0A146E"/>
<path d="M60.26 56.41H64.22C64.42 56.41 64.58 56.57 64.58 56.77V57.73C64.58 57.93 64.42 58.09 64.22 58.09H60.26C60.06 58.09 59.9 57.93 59.9 57.73V56.77C59.94 56.53 60.1 56.41 60.26 56.41Z" fill="#0A146E"/>
<path d="M49.34 14.37H63.58C64.14 14.37 64.62 14.85 64.62 15.41V25.01C64.62 25.57 64.14 26.05 63.58 26.05H49.34C48.78 26.05 48.3 25.57 48.3 25.01V15.41C48.3 14.85 48.74 14.37 49.34 14.37Z" fill="#0A146E"/>
<path d="M18.06 56.41H22.02C22.22 56.41 22.38 56.57 22.38 56.77V57.73C22.38 57.93 22.22 58.09 22.02 58.09H18.06C17.86 58.09 17.7 57.93 17.7 57.73V56.77C17.74 56.53 17.9 56.41 18.06 56.41Z" fill="#003CBE"/>
<defs>
<linearGradient id="paint0_linear_1_345" x1="19.8211" y1="35.0505" x2="19.8211" y2="14.3898" gradientUnits="userSpaceOnUse">
<stop stop-color="#808080" stop-opacity="0.25"/>
<stop offset="0.54" stop-color="#808080" stop-opacity="0.12"/>
<stop offset="1" stop-color="#808080" stop-opacity="0.1"/>
</linearGradient>
<linearGradient id="paint1_linear_1_345" x1="4.44632" y1="25.3513" x2="16.7651" y2="25.3513" gradientUnits="userSpaceOnUse">
<stop stop-color="#808080" stop-opacity="0.25"/>
<stop offset="0.54" stop-color="#808080" stop-opacity="0.12"/>
<stop offset="1" stop-color="#808080" stop-opacity="0.1"/>
</linearGradient>
</defs>
</svg>
