<svg width="141" height="35" viewBox="0 0 141 35" fill="none" xmlns="http://www.w3.org/2000/svg">
<g clip-path="url(#clip0_1_845)">
<path fill-rule="evenodd" clip-rule="evenodd" d="M38.0182 11.2803H52.0884V14.0134H46.5566V29.3797H43.513V14.0134H38.0047V11.2814H38.017L38.0182 11.2803ZM51.4882 16.274H54.0883V18.8044H54.1376C54.2238 18.4461 54.3828 18.1013 54.6157 17.7687C54.8487 17.4373 55.1308 17.1171 55.4623 16.8495C55.7958 16.5717 56.1676 16.3435 56.5664 16.1721C56.9586 16.007 57.3794 15.9203 57.8049 15.9168C58.1241 15.9168 58.357 15.9291 58.4802 15.9426C58.6033 15.9549 58.7265 15.9806 58.8609 15.9941V18.7776C58.6616 18.7406 58.461 18.7108 58.2596 18.688C58.0601 18.663 57.8593 18.6503 57.6582 18.6499C57.1966 18.647 56.7403 18.749 56.3238 18.9482C55.9073 19.1474 55.5415 19.4386 55.254 19.7998C54.9257 20.2198 54.6764 20.6959 54.5183 21.205C54.3336 21.7671 54.2473 22.4053 54.2473 23.1331V29.3662H51.4758V16.2751H51.487L51.4882 16.274ZM71.6064 29.3797H68.883V27.5524H68.8338C68.4908 28.2165 67.9626 28.7668 67.3131 29.1367C66.6378 29.5331 65.9503 29.7369 65.2527 29.7369C63.5954 29.7369 62.3938 29.3147 61.6581 28.4604C60.9213 27.6039 60.5529 26.314 60.5529 24.5898V16.274H63.3255V24.3087C63.3255 25.4575 63.5338 26.276 63.9638 26.7485C64.3803 27.221 64.9828 27.4628 65.742 27.4628C66.331 27.4628 66.8092 27.3732 67.2022 27.1829C67.5942 26.9903 67.9133 26.7485 68.1462 26.4282C68.3926 26.1226 68.5639 25.7385 68.6736 25.3052C68.7856 24.8708 68.8338 24.3983 68.8338 23.8866V16.2874H71.6064V29.3797ZM76.3285 25.1776C76.4148 26.0196 76.7216 26.6074 77.249 26.9522C77.7887 27.2848 78.427 27.4628 79.1751 27.4628C79.4326 27.4628 79.7271 27.4382 80.0586 27.399C80.39 27.3609 80.708 27.2714 80.9902 27.1571C81.2847 27.0418 81.5177 26.8627 81.7147 26.6331C81.8984 26.4036 81.9835 26.1091 81.9723 25.7385C81.9717 25.5687 81.9366 25.4008 81.8692 25.2449C81.8019 25.089 81.7036 24.9484 81.5804 24.8316C81.334 24.5898 81.0272 24.4106 80.6476 24.2572C80.2237 24.1018 79.7887 23.9783 79.3464 23.8877C78.8559 23.7847 78.3654 23.6694 77.8627 23.5552C77.3475 23.4399 76.8436 23.2865 76.3655 23.1207C75.9016 22.9624 75.4666 22.7294 75.0777 22.431C74.6916 22.143 74.3805 21.7663 74.1707 21.3326C73.9367 20.8848 73.8269 20.3361 73.8269 19.6722C73.8269 18.9567 73.9982 18.3689 74.3297 17.8841C74.6581 17.4068 75.0899 17.0095 75.5928 16.7219C76.1079 16.4274 76.6723 16.2236 77.2983 16.0948C77.8889 15.9817 78.4886 15.9221 79.0899 15.9168C79.7394 15.9168 80.3654 15.9941 80.9533 16.134C81.5423 16.2751 82.082 16.5035 82.5613 16.8372C83.0395 17.1563 83.4314 17.5773 83.7505 18.0878C84.0697 18.5995 84.2656 19.2254 84.3519 19.9532H81.4572C81.3228 19.2635 81.0272 18.791 80.549 18.5615C80.0709 18.3185 79.5188 18.2032 78.9052 18.2032C78.7092 18.2032 78.4763 18.2155 78.2064 18.2547C77.9354 18.2927 77.6913 18.3554 77.445 18.445C77.2121 18.5346 77.0161 18.6757 76.8448 18.8548C76.6764 19.049 76.5883 19.3 76.5984 19.5568C76.5984 19.9151 76.7216 20.1951 76.9545 20.4134C77.1874 20.6306 77.4942 20.8086 77.875 20.962C78.2557 21.1031 78.6846 21.2308 79.1751 21.3315C79.6655 21.4345 80.1683 21.5499 80.6834 21.6641C81.1873 21.7794 81.6778 21.9328 82.1683 22.0985C82.6587 22.2653 83.0887 22.4949 83.4683 22.7882C83.8491 23.0827 84.1559 23.4399 84.3888 23.8743C84.6217 24.3087 84.7449 24.8574 84.7449 25.4967C84.7449 26.276 84.5725 26.9265 84.2298 27.4763C83.8935 28.0097 83.4401 28.4596 82.904 28.7919C82.3429 29.1354 81.7299 29.3857 81.0888 29.5331C80.4412 29.6843 79.7785 29.7613 79.1135 29.7626C78.3162 29.7626 77.5793 29.673 76.9052 29.4816C76.2735 29.3116 75.6789 29.0257 75.1516 28.6385C74.6619 28.2591 74.2636 27.7747 73.9859 27.221C73.7037 26.6589 73.557 25.9815 73.5324 25.2022H76.3285V25.1776ZM85.4806 16.2751H87.578V12.3406H90.3506V16.2751H92.8533V18.4327H90.3506V25.4329C90.3506 25.7385 90.3618 25.9949 90.3875 26.2245C90.4122 26.4417 90.4726 26.6331 90.5589 26.7865C90.6504 26.9446 90.7935 27.0664 90.9642 27.1314C91.1479 27.2075 91.3808 27.2456 91.6999 27.2456C91.8959 27.2456 92.0919 27.2456 92.289 27.2344C92.4849 27.221 92.6809 27.1952 92.878 27.1448V29.3797C92.5711 29.4178 92.2643 29.4435 91.9821 29.4805C91.685 29.5175 91.3857 29.5351 91.0863 29.5331C90.3506 29.5331 89.7616 29.4558 89.3204 29.3147C88.8781 29.1748 88.5231 28.9576 88.2779 28.6765C88.0203 28.3966 87.8602 28.0506 87.7627 27.6296C87.6666 27.1539 87.613 26.6705 87.6026 26.1853V18.4596H85.5052V16.2751H85.4806ZM94.8163 16.2751H97.4411V18.0498H97.4904C97.8823 17.2839 98.4221 16.7476 99.1219 16.4151C99.8309 16.0799 100.606 15.9096 101.391 15.9168C102.385 15.9168 103.244 16.096 103.98 16.4654C104.702 16.8121 105.332 17.3242 105.819 17.9602C106.31 18.5984 106.666 19.3396 106.911 20.1827C107.158 21.0259 107.28 21.9328 107.28 22.8912C107.28 23.7724 107.169 24.6278 106.948 25.4452C106.747 26.2296 106.411 26.973 105.955 27.642C105.517 28.2736 104.937 28.7942 104.262 29.1625C103.574 29.5454 102.777 29.7369 101.845 29.7369C101.44 29.7369 101.036 29.6988 100.63 29.6215C100.229 29.5447 99.838 29.4206 99.4657 29.252C98.7149 28.919 98.0789 28.3723 97.6371 27.68H97.5878V34.22H94.8163V16.2751ZM104.507 22.8397C104.508 22.2579 104.434 21.6783 104.286 21.1154C104.152 20.5872 103.928 20.0861 103.623 19.6341C103.341 19.2127 102.968 18.8593 102.532 18.5995C102.073 18.3352 101.552 18.1983 101.023 18.2032C99.8588 18.2032 98.9741 18.6253 98.3862 19.4684C97.7972 20.3104 97.5016 21.4345 97.5016 22.8397C97.5016 23.5037 97.5766 24.1161 97.7356 24.6793C97.8946 25.2414 98.1164 25.7262 98.4344 26.1349C98.7412 26.5436 99.1096 26.8627 99.5385 27.0933C99.9685 27.3352 100.471 27.4516 101.036 27.4516C101.674 27.4516 102.2 27.3105 102.643 27.0418C103.084 26.7731 103.44 26.4159 103.722 25.9949C104.004 25.5605 104.213 25.0746 104.336 24.5259C104.448 23.9709 104.506 23.4061 104.507 22.8397ZM109.402 11.2803H112.174V14.0134H109.402V11.2803ZM109.402 16.274H112.174V29.3797H109.402V16.274ZM114.652 11.2803H117.425V29.3797H114.652V11.2803ZM125.925 29.7369C124.92 29.7369 124.024 29.5577 123.239 29.2129C122.48 28.881 121.799 28.394 121.24 27.783C120.684 27.1456 120.263 26.4026 120 25.5986C119.708 24.6996 119.563 23.7592 119.572 22.814C119.572 21.8175 119.718 20.8982 120 20.0551C120.263 19.2514 120.684 18.5088 121.24 17.8718C121.793 17.2538 122.476 16.7652 123.239 16.4408C124.024 16.096 124.92 15.9168 125.925 15.9168C126.932 15.9168 127.827 16.096 128.613 16.4408C129.372 16.7726 130.053 17.2597 130.612 17.8706C131.168 18.508 131.589 19.251 131.851 20.0551C132.143 20.9454 132.288 21.8772 132.28 22.814C132.28 23.8228 132.133 24.7555 131.851 25.5986C131.589 26.4022 131.167 27.1448 130.612 27.7819C130.059 28.3999 129.376 28.8884 128.613 29.2129C127.827 29.5577 126.932 29.7369 125.925 29.7369ZM125.925 27.4505C126.539 27.4505 127.079 27.3105 127.532 27.0418C127.987 26.7731 128.354 26.4159 128.649 25.9815C128.943 25.5471 129.153 25.0499 129.299 24.5002C129.435 23.9515 129.508 23.3895 129.508 22.814C129.508 22.2519 129.435 21.7033 129.299 21.1412C129.174 20.6119 128.954 20.1099 128.649 19.6599C128.36 19.2308 127.979 18.8726 127.532 18.6119C127.079 18.3431 126.539 18.2032 125.925 18.2032C125.313 18.2032 124.773 18.3431 124.318 18.6119C123.875 18.8767 123.494 19.2342 123.202 19.6599C122.902 20.1125 122.682 20.6136 122.552 21.1412C122.417 21.6885 122.347 22.2501 122.344 22.814C122.344 23.3895 122.417 23.9504 122.552 24.5002C122.687 25.0488 122.907 25.5471 123.202 25.9815C123.496 26.4159 123.865 26.7731 124.318 27.0418C124.773 27.3229 125.313 27.4505 125.925 27.4505ZM133.09 16.274H135.187V12.3417H137.96V16.2762H140.462V18.4327H137.96V25.4329C137.96 25.7385 137.972 25.9949 137.997 26.2245C138.021 26.4417 138.083 26.6331 138.168 26.7865C138.254 26.9399 138.39 27.0553 138.573 27.1314C138.757 27.2075 138.99 27.2456 139.309 27.2456C139.506 27.2456 139.702 27.2456 139.898 27.2344C140.094 27.221 140.291 27.1952 140.487 27.1448V29.3797C140.18 29.4178 139.873 29.4435 139.591 29.4805C139.294 29.5174 138.996 29.535 138.697 29.5331C137.96 29.5331 137.371 29.4558 136.93 29.3147C136.488 29.1748 136.132 28.9576 135.887 28.6765C135.629 28.3966 135.469 28.0506 135.372 27.6296C135.276 27.1539 135.222 26.6705 135.212 26.1853V18.4596H133.114V16.2751L133.09 16.274Z" fill="#5C667B"/>
<path fill-rule="evenodd" clip-rule="evenodd" d="M16.7656 0.629883L20.5986 12.841H33.006L22.9704 20.383L26.8023 32.5818L16.7656 25.0397L6.71656 32.5818L10.5619 20.383L0.512909 12.8287L12.9202 12.8398L16.7667 0.629883H16.7656ZM22.9704 20.383L16.7656 25.0397L23.8315 23.1441L22.9704 20.383Z" fill="#00B67A"/>
</g>
<defs>
<clipPath id="clip0_1_845">
<rect width="140" height="33.59" fill="white" transform="translate(0.5 0.629883)"/>
</clipPath>
</defs>
</svg>
